%TF.GenerationSoftware,KiCad,Pcbnew,9.0.2*%
%TF.CreationDate,2026-06-17T19:09:17-06:00*%
%TF.ProjectId,speed-reader,73706565-642d-4726-9561-6465722e6b69,rev?*%
%TF.SameCoordinates,Original*%
%TF.FileFunction,Legend,Bot*%
%TF.FilePolarity,Positive*%
%FSLAX46Y46*%
G04 Gerber Fmt 4.6, Leading zero omitted, Abs format (unit mm)*
G04 Created by KiCad (PCBNEW 9.0.2) date 2026-06-17 19:09:17*
%MOMM*%
%LPD*%
G01*
G04 APERTURE LIST*
%ADD10C,0.106680*%
%ADD11C,0.150000*%
%ADD12C,0.100000*%
%ADD13C,0.127000*%
%ADD14C,0.504000*%
%ADD15C,0.120000*%
G04 APERTURE END LIST*
D10*
X68206056Y-34780391D02*
X67684509Y-35562711D01*
X67684509Y-34780391D02*
X68206056Y-35562711D01*
X67386482Y-35562711D02*
X67386482Y-34780391D01*
X67051202Y-35339191D02*
X66678669Y-35339191D01*
X67125709Y-35562711D02*
X66864936Y-34780391D01*
X66864936Y-34780391D02*
X66604162Y-35562711D01*
X66194376Y-34780391D02*
X66045362Y-34780391D01*
X66045362Y-34780391D02*
X65970856Y-34817644D01*
X65970856Y-34817644D02*
X65896349Y-34892151D01*
X65896349Y-34892151D02*
X65859096Y-35041164D01*
X65859096Y-35041164D02*
X65859096Y-35301938D01*
X65859096Y-35301938D02*
X65896349Y-35450951D01*
X65896349Y-35450951D02*
X65970856Y-35525458D01*
X65970856Y-35525458D02*
X66045362Y-35562711D01*
X66045362Y-35562711D02*
X66194376Y-35562711D01*
X66194376Y-35562711D02*
X66268882Y-35525458D01*
X66268882Y-35525458D02*
X66343389Y-35450951D01*
X66343389Y-35450951D02*
X66380642Y-35301938D01*
X66380642Y-35301938D02*
X66380642Y-35041164D01*
X66380642Y-35041164D02*
X66343389Y-34892151D01*
X66343389Y-34892151D02*
X66268882Y-34817644D01*
X66268882Y-34817644D02*
X66194376Y-34780391D01*
X65114029Y-35562711D02*
X65561069Y-35562711D01*
X65337549Y-35562711D02*
X65337549Y-34780391D01*
X65337549Y-34780391D02*
X65412056Y-34892151D01*
X65412056Y-34892151D02*
X65486563Y-34966658D01*
X65486563Y-34966658D02*
X65561069Y-35003911D01*
D11*
X122481009Y-48785714D02*
X122528628Y-48928571D01*
X122528628Y-48928571D02*
X122576247Y-48976190D01*
X122576247Y-48976190D02*
X122671485Y-49023809D01*
X122671485Y-49023809D02*
X122814342Y-49023809D01*
X122814342Y-49023809D02*
X122909580Y-48976190D01*
X122909580Y-48976190D02*
X122957200Y-48928571D01*
X122957200Y-48928571D02*
X123004819Y-48833333D01*
X123004819Y-48833333D02*
X123004819Y-48452381D01*
X123004819Y-48452381D02*
X122004819Y-48452381D01*
X122004819Y-48452381D02*
X122004819Y-48785714D01*
X122004819Y-48785714D02*
X122052438Y-48880952D01*
X122052438Y-48880952D02*
X122100057Y-48928571D01*
X122100057Y-48928571D02*
X122195295Y-48976190D01*
X122195295Y-48976190D02*
X122290533Y-48976190D01*
X122290533Y-48976190D02*
X122385771Y-48928571D01*
X122385771Y-48928571D02*
X122433390Y-48880952D01*
X122433390Y-48880952D02*
X122481009Y-48785714D01*
X122481009Y-48785714D02*
X122481009Y-48452381D01*
X122719104Y-49404762D02*
X122719104Y-49880952D01*
X123004819Y-49309524D02*
X122004819Y-49642857D01*
X122004819Y-49642857D02*
X123004819Y-49976190D01*
X122004819Y-50166667D02*
X122004819Y-50738095D01*
X123004819Y-50452381D02*
X122004819Y-50452381D01*
X123004819Y-51595238D02*
X123004819Y-51023810D01*
X123004819Y-51309524D02*
X122004819Y-51309524D01*
X122004819Y-51309524D02*
X122147676Y-51214286D01*
X122147676Y-51214286D02*
X122242914Y-51119048D01*
X122242914Y-51119048D02*
X122290533Y-51023810D01*
D12*
%TO.C,XIAO1*%
X75500000Y-55013000D02*
X75500000Y-37868000D01*
X73595000Y-56918000D02*
X59625000Y-56918000D01*
D13*
X71105000Y-35963000D02*
X71101272Y-34952728D01*
X70601272Y-34453000D02*
X62606000Y-34453000D01*
X62106000Y-34953000D02*
X62106000Y-35963000D01*
D12*
X59625000Y-35963000D02*
X73595000Y-35963000D01*
X57720000Y-55013000D02*
X57720000Y-37868000D01*
X73595000Y-35959000D02*
G75*
G02*
X75500000Y-37864000I-1J-1905001D01*
G01*
X75500000Y-55013000D02*
G75*
G02*
X73595000Y-56918000I-1905000J0D01*
G01*
D13*
X70601272Y-34453000D02*
G75*
G02*
X71101270Y-34952728I-22J-500020D01*
G01*
X62106000Y-34953000D02*
G75*
G02*
X62606000Y-34453000I500000J0D01*
G01*
D12*
X57720000Y-37868000D02*
G75*
G02*
X59625000Y-35963000I1905000J0D01*
G01*
X59625000Y-56918000D02*
G75*
G02*
X57720000Y-55013000I0J1905000D01*
G01*
D14*
X75962000Y-36379000D02*
G75*
G02*
X75458000Y-36379000I-252000J0D01*
G01*
X75458000Y-36379000D02*
G75*
G02*
X75962000Y-36379000I252000J0D01*
G01*
X74819000Y-37259000D02*
G75*
G02*
X74315000Y-37259000I-252000J0D01*
G01*
X74315000Y-37259000D02*
G75*
G02*
X74819000Y-37259000I252000J0D01*
G01*
D15*
%TO.C,BAT1*%
X121460000Y-53060000D02*
X113640000Y-53060000D01*
X119860000Y-53060000D02*
X119860000Y-52140000D01*
X113640000Y-53060000D02*
X113640000Y-46940000D01*
X117500000Y-52300000D02*
X115900000Y-52300000D01*
X115900000Y-52300000D02*
X115900000Y-51300000D01*
X121460000Y-52140000D02*
X121460000Y-53060000D01*
X119860000Y-52140000D02*
X121460000Y-52140000D01*
X119860000Y-51860000D02*
X119860000Y-52140000D01*
X119860000Y-51860000D02*
X121075000Y-51860000D01*
X115900000Y-51800000D02*
X113640000Y-51800000D01*
X117500000Y-51300000D02*
X117500000Y-52300000D01*
X115900000Y-51300000D02*
X117500000Y-51300000D01*
X115900000Y-51300000D02*
X113640000Y-51300000D01*
X118000000Y-50500000D02*
X118000000Y-49500000D01*
X113640000Y-50500000D02*
X118000000Y-50500000D01*
X118000000Y-49500000D02*
X113640000Y-49500000D01*
X117500000Y-48700000D02*
X117500000Y-47700000D01*
X115900000Y-48700000D02*
X117500000Y-48700000D01*
X121460000Y-47860000D02*
X119860000Y-47860000D01*
X119860000Y-47860000D02*
X119860000Y-48140000D01*
X117500000Y-47700000D02*
X115900000Y-47700000D01*
X115900000Y-47700000D02*
X115900000Y-48700000D01*
X121460000Y-46940000D02*
X121460000Y-47860000D01*
X119860000Y-46940000D02*
X119860000Y-47860000D01*
X113640000Y-46940000D02*
X121460000Y-46940000D01*
%TD*%
M02*
