%TF.GenerationSoftware,KiCad,Pcbnew,9.0.2*%
%TF.CreationDate,2026-06-17T19:09:17-06:00*%
%TF.ProjectId,speed-reader,73706565-642d-4726-9561-6465722e6b69,rev?*%
%TF.SameCoordinates,Original*%
%TF.FileFunction,Copper,L2,Bot*%
%TF.FilePolarity,Positive*%
%FSLAX46Y46*%
G04 Gerber Fmt 4.6, Leading zero omitted, Abs format (unit mm)*
G04 Created by KiCad (PCBNEW 9.0.2) date 2026-06-17 19:09:17*
%MOMM*%
%LPD*%
G01*
G04 APERTURE LIST*
G04 Aperture macros list*
%AMRoundRect*
0 Rectangle with rounded corners*
0 $1 Rounding radius*
0 $2 $3 $4 $5 $6 $7 $8 $9 X,Y pos of 4 corners*
0 Add a 4 corners polygon primitive as box body*
4,1,4,$2,$3,$4,$5,$6,$7,$8,$9,$2,$3,0*
0 Add four circle primitives for the rounded corners*
1,1,$1+$1,$2,$3*
1,1,$1+$1,$4,$5*
1,1,$1+$1,$6,$7*
1,1,$1+$1,$8,$9*
0 Add four rect primitives between the rounded corners*
20,1,$1+$1,$2,$3,$4,$5,0*
20,1,$1+$1,$4,$5,$6,$7,0*
20,1,$1+$1,$6,$7,$8,$9,0*
20,1,$1+$1,$8,$9,$2,$3,0*%
G04 Aperture macros list end*
%TA.AperFunction,ComponentPad*%
%ADD10C,1.800000*%
%TD*%
%TA.AperFunction,ComponentPad*%
%ADD11R,1.800000X1.800000*%
%TD*%
%TA.AperFunction,ComponentPad*%
%ADD12C,1.600000*%
%TD*%
%TA.AperFunction,ComponentPad*%
%ADD13RoundRect,0.250000X0.550000X-0.550000X0.550000X0.550000X-0.550000X0.550000X-0.550000X-0.550000X0*%
%TD*%
%TA.AperFunction,ComponentPad*%
%ADD14C,2.000000*%
%TD*%
%TA.AperFunction,SMDPad,CuDef*%
%ADD15RoundRect,0.275000X-0.975000X-0.275000X0.975000X-0.275000X0.975000X0.275000X-0.975000X0.275000X0*%
%TD*%
%TA.AperFunction,SMDPad,CuDef*%
%ADD16RoundRect,0.500000X0.875000X0.500000X-0.875000X0.500000X-0.875000X-0.500000X0.875000X-0.500000X0*%
%TD*%
%TA.AperFunction,SMDPad,CuDef*%
%ADD17C,1.700000*%
%TD*%
%TA.AperFunction,ComponentPad*%
%ADD18RoundRect,0.250000X0.625000X-0.350000X0.625000X0.350000X-0.625000X0.350000X-0.625000X-0.350000X0*%
%TD*%
%TA.AperFunction,ComponentPad*%
%ADD19O,1.750000X1.200000*%
%TD*%
%TA.AperFunction,ViaPad*%
%ADD20C,0.600000*%
%TD*%
%TA.AperFunction,Conductor*%
%ADD21C,0.200000*%
%TD*%
G04 APERTURE END LIST*
D10*
%TO.P,DISPLAY1,VCC*%
%TO.N,VCC*%
X47000000Y-56390000D03*
%TO.P,DISPLAY1,SDA,SDA*%
%TO.N,/SDA*%
X47000000Y-51310000D03*
%TO.P,DISPLAY1,SCL,SCL*%
%TO.N,/SCL*%
X47000000Y-53850000D03*
%TO.P,DISPLAY1,RST,RST*%
%TO.N,/RST*%
X47000000Y-48770000D03*
D11*
%TO.P,DISPLAY1,GND,GND*%
%TO.N,GND*%
X47000000Y-58930000D03*
D10*
%TO.P,DISPLAY1,DC,DC*%
%TO.N,/DC*%
X47000000Y-46230000D03*
%TO.P,DISPLAY1,CS,CS*%
%TO.N,/CS*%
X47000000Y-43690000D03*
%TO.P,DISPLAY1,BL,BL*%
%TO.N,/BL*%
X47000000Y-41150000D03*
%TD*%
D12*
%TO.P,D3,2,A*%
%TO.N,Net-(D3-A)*%
X125000000Y-52380000D03*
D13*
%TO.P,D3,1,K*%
%TO.N,/ROW1*%
X125000000Y-60000000D03*
%TD*%
D12*
%TO.P,D1,2,A*%
%TO.N,Net-(D1-A)*%
X125000000Y-39880000D03*
D13*
%TO.P,D1,1,K*%
%TO.N,/ROW0*%
X125000000Y-47500000D03*
%TD*%
%TO.P,D4,1,K*%
%TO.N,/ROW1*%
X139500000Y-60000000D03*
D12*
%TO.P,D4,2,A*%
%TO.N,Net-(D4-A)*%
X139500000Y-52380000D03*
%TD*%
D13*
%TO.P,D2,1,K*%
%TO.N,/ROW0*%
X139500000Y-47500000D03*
D12*
%TO.P,D2,2,A*%
%TO.N,Net-(D2-A)*%
X139500000Y-39880000D03*
%TD*%
D14*
%TO.P,SW2,1,1*%
%TO.N,/COL1*%
X143250000Y-41250000D03*
X149750000Y-41250000D03*
%TO.P,SW2,2,2*%
%TO.N,Net-(D2-A)*%
X143250000Y-45750000D03*
X149750000Y-45750000D03*
%TD*%
%TO.P,SW1,1,1*%
%TO.N,/COL0*%
X128750000Y-41250000D03*
X135250000Y-41250000D03*
%TO.P,SW1,2,2*%
%TO.N,Net-(D1-A)*%
X128750000Y-45750000D03*
X135250000Y-45750000D03*
%TD*%
%TO.P,SW3,1,1*%
%TO.N,/COL0*%
X128750000Y-53750000D03*
X135250000Y-53750000D03*
%TO.P,SW3,2,2*%
%TO.N,Net-(D3-A)*%
X128750000Y-58250000D03*
X135250000Y-58250000D03*
%TD*%
%TO.P,SW4,1,1*%
%TO.N,/COL1*%
X143250000Y-53750000D03*
X149750000Y-53750000D03*
%TO.P,SW4,2,2*%
%TO.N,Net-(D4-A)*%
X143250000Y-58250000D03*
X149750000Y-58250000D03*
%TD*%
D15*
%TO.P,XIAO1,22,GND*%
%TO.N,Net-(BAT1-Pin_1)*%
X71055000Y-44213000D03*
%TO.P,XIAO1,21,BAT*%
%TO.N,Net-(BAT1-Pin_2)*%
X71055000Y-46118000D03*
D16*
%TO.P,XIAO1,1,GPIO2_A0_D0*%
%TO.N,/ROW0*%
X74665000Y-38880000D03*
%TO.P,XIAO1,2,GPIO3_A1_D1*%
%TO.N,/ROW1*%
X74665000Y-41420000D03*
%TO.P,XIAO1,3,GPIO4_A2_D2*%
%TO.N,/COL0*%
X74665000Y-43960000D03*
%TO.P,XIAO1,4,GPIO5_A3_D3*%
%TO.N,/COL1*%
X74665000Y-46500000D03*
%TO.P,XIAO1,5,GPIO6_D4_SDA*%
%TO.N,/RST*%
X74665000Y-49040000D03*
%TO.P,XIAO1,6,GPIO7_D5_SCL*%
%TO.N,/BL*%
X74665000Y-51580000D03*
%TO.P,XIAO1,7,GPIO21_D6_TX*%
%TO.N,/CS*%
X74665000Y-54120000D03*
%TO.P,XIAO1,8,GPIO20_D7_RX*%
%TO.N,/DC*%
X58500000Y-54120000D03*
%TO.P,XIAO1,9,GPIO8_D8_SCK*%
%TO.N,/SCL*%
X58500000Y-51580000D03*
%TO.P,XIAO1,10,GPIO9_D9_MISO*%
%TO.N,unconnected-(XIAO1-GPIO9_D9_MISO-Pad10)*%
X58500000Y-49040000D03*
%TO.P,XIAO1,11,GPIO10_D10_MOSI*%
%TO.N,/SDA*%
X58500000Y-46500000D03*
%TO.P,XIAO1,12,3V3*%
%TO.N,VCC*%
X58500000Y-43960000D03*
%TO.P,XIAO1,13,GND*%
%TO.N,GND*%
X58500000Y-41420000D03*
%TO.P,XIAO1,14,VBUS*%
%TO.N,unconnected-(XIAO1-VBUS-Pad14)*%
X58500000Y-38880000D03*
D17*
%TO.P,XIAO1,15*%
%TO.N,N/C*%
X67880000Y-37868000D03*
%TO.P,XIAO1,16*%
X65340000Y-37868000D03*
%TO.P,XIAO1,17*%
X67880000Y-40408000D03*
%TO.P,XIAO1,18*%
X65340000Y-40408000D03*
%TO.P,XIAO1,19*%
X67880000Y-42948000D03*
%TO.P,XIAO1,20*%
X65340000Y-42948000D03*
%TD*%
D18*
%TO.P,BAT1,1,Pin_1*%
%TO.N,Net-(BAT1-Pin_1)*%
X120000000Y-51000000D03*
D19*
%TO.P,BAT1,2,Pin_2*%
%TO.N,Net-(BAT1-Pin_2)*%
X120000000Y-49000000D03*
%TD*%
D20*
%TO.N,/ROW0*%
X77500000Y-39000000D03*
%TO.N,/ROW1*%
X77500000Y-42000000D03*
%TO.N,Net-(BAT1-Pin_2)*%
X68500000Y-46500000D03*
%TO.N,Net-(BAT1-Pin_1)*%
X68500000Y-44500000D03*
%TO.N,VCC*%
X54500000Y-47500000D03*
%TO.N,/COL1*%
X77500000Y-47150000D03*
%TO.N,/COL0*%
X77500000Y-43850000D03*
%TD*%
D21*
%TO.N,/ROW0*%
X77380000Y-38880000D02*
X77500000Y-39000000D01*
X74665000Y-38880000D02*
X77380000Y-38880000D01*
%TO.N,/ROW1*%
X76920000Y-41420000D02*
X77500000Y-42000000D01*
X74665000Y-41420000D02*
X76920000Y-41420000D01*
%TO.N,/COL0*%
X74665000Y-43960000D02*
X77390000Y-43960000D01*
X77390000Y-43960000D02*
X77500000Y-43850000D01*
%TO.N,Net-(D3-A)*%
X128750000Y-58250000D02*
X135250000Y-58250000D01*
%TO.N,/COL0*%
X128750000Y-53750000D02*
X135250000Y-53750000D01*
%TO.N,Net-(D4-A)*%
X143250000Y-58250000D02*
X149750000Y-58250000D01*
%TO.N,/COL1*%
X143250000Y-53750000D02*
X149750000Y-53750000D01*
%TO.N,Net-(D2-A)*%
X143250000Y-45750000D02*
X149750000Y-45750000D01*
%TO.N,/COL1*%
X143250000Y-41250000D02*
X149750000Y-41250000D01*
%TO.N,/COL0*%
X128750000Y-41250000D02*
X135250000Y-41250000D01*
%TO.N,Net-(D1-A)*%
X128750000Y-45750000D02*
X135250000Y-45750000D01*
%TO.N,/COL1*%
X76850000Y-46500000D02*
X77500000Y-47150000D01*
X74665000Y-46500000D02*
X76850000Y-46500000D01*
%TO.N,Net-(BAT1-Pin_2)*%
X68882000Y-46118000D02*
X68500000Y-46500000D01*
X71055000Y-46118000D02*
X68882000Y-46118000D01*
%TO.N,Net-(BAT1-Pin_1)*%
X71055000Y-44213000D02*
X68787000Y-44213000D01*
X68787000Y-44213000D02*
X68500000Y-44500000D01*
%TO.N,/COL1*%
X141949000Y-52449000D02*
X143250000Y-53750000D01*
X141949000Y-42551000D02*
X141949000Y-52449000D01*
X143250000Y-41250000D02*
X141949000Y-42551000D01*
%TO.N,/COL0*%
X127449000Y-42551000D02*
X127449000Y-52449000D01*
X128750000Y-41250000D02*
X127449000Y-42551000D01*
X127449000Y-52449000D02*
X128750000Y-53750000D01*
%TO.N,VCC*%
X58040000Y-43960000D02*
X54500000Y-47500000D01*
X58500000Y-43960000D02*
X58040000Y-43960000D01*
%TO.N,/CS*%
X66879000Y-60531000D02*
X73290000Y-54120000D01*
X73290000Y-54120000D02*
X74665000Y-54120000D01*
X45465314Y-60531000D02*
X66879000Y-60531000D01*
X44100000Y-59165686D02*
X45465314Y-60531000D01*
X44100000Y-46590000D02*
X44100000Y-59165686D01*
X47000000Y-43690000D02*
X44100000Y-46590000D01*
%TO.N,/BL*%
X78500000Y-47745000D02*
X74665000Y-51580000D01*
X78500000Y-38553959D02*
X78500000Y-47745000D01*
X51433000Y-36717000D02*
X76663041Y-36717000D01*
X76663041Y-36717000D02*
X78500000Y-38553959D01*
X47000000Y-41150000D02*
X51433000Y-36717000D01*
%TO.N,/RST*%
X69804240Y-49040000D02*
X74665000Y-49040000D01*
X60176000Y-37676000D02*
X60176000Y-39411760D01*
X60176000Y-39411760D02*
X69804240Y-49040000D01*
X57285942Y-37579000D02*
X60079000Y-37579000D01*
X48201000Y-46663942D02*
X57285942Y-37579000D01*
X48201000Y-47569000D02*
X48201000Y-46663942D01*
X60079000Y-37579000D02*
X60176000Y-37676000D01*
X47000000Y-48770000D02*
X48201000Y-47569000D01*
%TO.N,GND*%
X49949000Y-49971000D02*
X58500000Y-41420000D01*
X46640529Y-49971000D02*
X49949000Y-49971000D01*
X45799000Y-50812529D02*
X46640529Y-49971000D01*
X45799000Y-57729000D02*
X45799000Y-50812529D01*
X47000000Y-58930000D02*
X45799000Y-57729000D01*
%TO.N,/DC*%
X51869000Y-60131000D02*
X57880000Y-54120000D01*
X45399000Y-59731000D02*
X45799000Y-60131000D01*
X45399000Y-47831000D02*
X45399000Y-59731000D01*
X47000000Y-46230000D02*
X45399000Y-47831000D01*
X45799000Y-60131000D02*
X51869000Y-60131000D01*
X57880000Y-54120000D02*
X58500000Y-54120000D01*
%TO.N,/SCL*%
X56230000Y-53850000D02*
X58500000Y-51580000D01*
X47000000Y-53850000D02*
X56230000Y-53850000D01*
%TO.N,/SDA*%
X53690000Y-51310000D02*
X58500000Y-46500000D01*
X47000000Y-51310000D02*
X53690000Y-51310000D01*
%TD*%
M02*
