%TF.GenerationSoftware,KiCad,Pcbnew,9.0.2*%
%TF.CreationDate,2026-06-17T19:09:17-06:00*%
%TF.ProjectId,speed-reader,73706565-642d-4726-9561-6465722e6b69,rev?*%
%TF.SameCoordinates,Original*%
%TF.FileFunction,Soldermask,Bot*%
%TF.FilePolarity,Negative*%
%FSLAX46Y46*%
G04 Gerber Fmt 4.6, Leading zero omitted, Abs format (unit mm)*
G04 Created by KiCad (PCBNEW 9.0.2) date 2026-06-17 19:09:17*
%MOMM*%
%LPD*%
G01*
G04 APERTURE LIST*
G04 Aperture macros list*
%AMRoundRect*
0 Rectangle with rounded corners*
0 $1 Rounding radius*
0 $2 $3 $4 $5 $6 $7 $8 $9 X,Y pos of 4 corners*
0 Add a 4 corners polygon primitive as box body*
4,1,4,$2,$3,$4,$5,$6,$7,$8,$9,$2,$3,0*
0 Add four circle primitives for the rounded corners*
1,1,$1+$1,$2,$3*
1,1,$1+$1,$4,$5*
1,1,$1+$1,$6,$7*
1,1,$1+$1,$8,$9*
0 Add four rect primitives between the rounded corners*
20,1,$1+$1,$2,$3,$4,$5,0*
20,1,$1+$1,$4,$5,$6,$7,0*
20,1,$1+$1,$6,$7,$8,$9,0*
20,1,$1+$1,$8,$9,$2,$3,0*%
G04 Aperture macros list end*
%ADD10C,1.800000*%
%ADD11R,1.800000X1.800000*%
%ADD12C,1.600000*%
%ADD13RoundRect,0.250000X0.550000X-0.550000X0.550000X0.550000X-0.550000X0.550000X-0.550000X-0.550000X0*%
%ADD14C,2.000000*%
%ADD15RoundRect,0.275000X-0.975000X-0.275000X0.975000X-0.275000X0.975000X0.275000X-0.975000X0.275000X0*%
%ADD16RoundRect,0.525400X0.900400X0.525400X-0.900400X0.525400X-0.900400X-0.525400X0.900400X-0.525400X0*%
%ADD17C,1.700000*%
%ADD18RoundRect,0.250000X0.625000X-0.350000X0.625000X0.350000X-0.625000X0.350000X-0.625000X-0.350000X0*%
%ADD19O,1.750000X1.200000*%
G04 APERTURE END LIST*
D10*
%TO.C,DISPLAY1*%
X47000000Y-56390000D03*
X47000000Y-51310000D03*
X47000000Y-53850000D03*
X47000000Y-48770000D03*
D11*
X47000000Y-58930000D03*
D10*
X47000000Y-46230000D03*
X47000000Y-43690000D03*
X47000000Y-41150000D03*
%TD*%
D12*
%TO.C,D3*%
X125000000Y-52380000D03*
D13*
X125000000Y-60000000D03*
%TD*%
D12*
%TO.C,D1*%
X125000000Y-39880000D03*
D13*
X125000000Y-47500000D03*
%TD*%
%TO.C,D4*%
X139500000Y-60000000D03*
D12*
X139500000Y-52380000D03*
%TD*%
D13*
%TO.C,D2*%
X139500000Y-47500000D03*
D12*
X139500000Y-39880000D03*
%TD*%
D14*
%TO.C,SW2*%
X143250000Y-41250000D03*
X149750000Y-41250000D03*
X143250000Y-45750000D03*
X149750000Y-45750000D03*
%TD*%
%TO.C,SW1*%
X128750000Y-41250000D03*
X135250000Y-41250000D03*
X128750000Y-45750000D03*
X135250000Y-45750000D03*
%TD*%
%TO.C,SW3*%
X128750000Y-53750000D03*
X135250000Y-53750000D03*
X128750000Y-58250000D03*
X135250000Y-58250000D03*
%TD*%
%TO.C,SW4*%
X143250000Y-53750000D03*
X149750000Y-53750000D03*
X143250000Y-58250000D03*
X149750000Y-58250000D03*
%TD*%
D15*
%TO.C,XIAO1*%
X71055000Y-44213000D03*
X71055000Y-46118000D03*
D16*
X74665000Y-38880000D03*
X74665000Y-41420000D03*
X74665000Y-43960000D03*
X74665000Y-46500000D03*
X74665000Y-49040000D03*
X74665000Y-51580000D03*
X74665000Y-54120000D03*
X58500000Y-54120000D03*
X58500000Y-51580000D03*
X58500000Y-49040000D03*
X58500000Y-46500000D03*
X58500000Y-43960000D03*
X58500000Y-41420000D03*
X58500000Y-38880000D03*
D17*
X67880000Y-37868000D03*
X65340000Y-37868000D03*
X67880000Y-40408000D03*
X65340000Y-40408000D03*
X67880000Y-42948000D03*
X65340000Y-42948000D03*
%TD*%
D18*
%TO.C,BAT1*%
X120000000Y-51000000D03*
D19*
X120000000Y-49000000D03*
%TD*%
M02*
