  0
SECTION
  2
HEADER
  9
$ANGBASE
  50
0.0
  9
$ANGDIR
  70
1
  9
$MEASUREMENT
  70
0
  0
ENDSEC
  0
SECTION
  2
TABLES
  0
TABLE
  2
LTYPE
  70
4
  0
LTYPE
  5
40F
  2
CONTINUOUS
  70
0
  3
Solid line
  72
65
  73
0
  40
0.0
  0
LTYPE
  5
410
  2
DASHDOT
 70
0
  3
Dash Dot ____ _ ____ _
 72
65
 73
4
 40
2.0
 49
1.25
 49
-0.25
 49
0.25
 49
-0.25
  0
LTYPE
  5
411
  2
DASHED
 70
0
  3
Dashed __ __ __ __ __
 72
65
 73
2
 40
0.75
 49
0.5
 49
-0.25
  0
LTYPE
  5
43B
  2
DOTTED
 70
0
  3
Dotted .  .  .  .
 72
65
 73
2
 40
0.2
 49
0.0
 49
-0.2
  0
ENDTAB
  0
TABLE
  2
STYLE
  70
4
  0
STYLE
  2
KICAD
  70
0
  40
0
  41
1
  42
1
  50
0
  71
0
  3
isocp.shx
  0
STYLE
  2
KICADB
  70
0
  40
0
  41
1
  42
1
  50
0
  71
0
  3
isocp.shx
  0
STYLE
  2
KICADI
  70
0
  40
0
  41
1
  42
1
  50
15
  71
0
  3
isocp.shx
  0
STYLE
  2
KICADBI
  70
0
  40
0
  41
1
  42
1
  50
15
  71
0
  3
isocp.shx
  0
ENDTAB
  0
TABLE
  2
LAYER
  70
1
  0
LAYER
  2
BLACK
  70
0
  62
7
  6
CONTINUOUS
  0
ENDTAB
  0
ENDSEC
  0
SECTION
  2
ENTITIES
0
LINE
8
BLACK
6
CONTINUOUS
10
4.5853731889763782
20
-2.2388157086614173
11
4.5930113385826772
21
-2.2412975196850393
0
LINE
8
BLACK
6
CONTINUOUS
10
4.5930113385826772
20
-2.2412975196850393
11
4.6001672440944885
21
-2.2449436220472441
0
LINE
8
BLACK
6
CONTINUOUS
10
4.6001672440944885
20
-2.2449436220472441
11
4.6066646456692908
21
-2.2496642519685039
0
LINE
8
BLACK
6
CONTINUOUS
10
4.6066646456692908
20
-2.2496642519685039
11
4.612343622047244
21
-2.2553432283464567
0
LINE
8
BLACK
6
CONTINUOUS
10
4.612343622047244
20
-2.2553432283464567
11
4.6170642519685039
21
-2.2618406299212599
0
LINE
8
BLACK
6
CONTINUOUS
10
4.6170642519685039
20
-2.2618406299212599
11
4.6207103543307086
21
-2.2689965354330708
0
LINE
8
BLACK
6
CONTINUOUS
10
4.6207103543307086
20
-2.2689965354330708
11
4.6231921653543306
21
-2.2766346850393702
0
LINE
8
BLACK
6
CONTINUOUS
10
4.6231921653543306
20
-2.2766346850393702
11
4.6244485433070865
21
-2.2845670472440944
0
LINE
8
BLACK
6
CONTINUOUS
10
4.6244485433070865
20
-2.2845670472440944
11
4.6244485433070865
21
-2.2925983070866143
0
LINE
8
BLACK
6
CONTINUOUS
10
4.6244485433070865
20
-2.2925983070866143
11
4.6231921653543306
21
-2.3005306692913385
0
LINE
8
BLACK
6
CONTINUOUS
10
4.6231921653543306
20
-2.3005306692913385
11
4.6207103543307086
21
-2.3081688188976379
0
LINE
8
BLACK
6
CONTINUOUS
10
4.6207103543307086
20
-2.3081688188976379
11
4.6170642519685039
21
-2.3153247244094488
0
LINE
8
BLACK
6
CONTINUOUS
10
4.6170642519685039
20
-2.3153247244094488
11
4.612343622047244
21
-2.321822125984252
0
LINE
8
BLACK
6
CONTINUOUS
10
4.612343622047244
20
-2.321822125984252
11
4.6066646456692908
21
-2.3275011023622048
0
LINE
8
BLACK
6
CONTINUOUS
10
4.6066646456692908
20
-2.3275011023622048
11
4.6001672440944885
21
-2.3322217322834646
0
LINE
8
BLACK
6
CONTINUOUS
10
4.6001672440944885
20
-2.3322217322834646
11
4.5930113385826772
21
-2.3358678346456694
0
LINE
8
BLACK
6
CONTINUOUS
10
4.5930113385826772
20
-2.3358678346456694
11
4.5853731889763782
21
-2.3383496456692914
0
LINE
8
BLACK
6
CONTINUOUS
10
4.5853731889763782
20
-2.3383496456692914
11
4.5774408267716531
21
-2.3396060236220473
0
LINE
8
BLACK
6
CONTINUOUS
10
4.5774408267716531
20
-2.3396060236220473
11
4.5694095669291341
21
-2.3396060236220473
0
LINE
8
BLACK
6
CONTINUOUS
10
4.5694095669291341
20
-2.3396060236220473
11
4.561477204724409
21
-2.3383496456692914
0
LINE
8
BLACK
6
CONTINUOUS
10
4.561477204724409
20
-2.3383496456692914
11
4.55383905511811
21
-2.3358678346456694
0
LINE
8
BLACK
6
CONTINUOUS
10
4.55383905511811
20
-2.3358678346456694
11
4.5466831496062987
21
-2.3322217322834646
0
LINE
8
BLACK
6
CONTINUOUS
10
4.5466831496062987
20
-2.3322217322834646
11
4.5401857480314955
21
-2.3275011023622048
0
LINE
8
BLACK
6
CONTINUOUS
10
4.5401857480314955
20
-2.3275011023622048
11
4.5345067716535432
21
-2.321822125984252
0
LINE
8
BLACK
6
CONTINUOUS
10
4.5345067716535432
20
-2.321822125984252
11
4.5297861417322833
21
-2.3153247244094488
0
LINE
8
BLACK
6
CONTINUOUS
10
4.5297861417322833
20
-2.3153247244094488
11
4.5261400393700786
21
-2.3081688188976379
0
LINE
8
BLACK
6
CONTINUOUS
10
4.5261400393700786
20
-2.3081688188976379
11
4.5236582283464566
21
-2.3005306692913385
0
LINE
8
BLACK
6
CONTINUOUS
10
4.5236582283464566
20
-2.3005306692913385
11
4.5224018503937007
21
-2.2925983070866143
0
LINE
8
BLACK
6
CONTINUOUS
10
4.5224018503937007
20
-2.2925983070866143
11
4.5224018503937007
21
-2.2848644881889761
0
LINE
8
BLACK
6
CONTINUOUS
10
4.5224018503937007
20
-2.2848644881889761
11
4.5224018503937007
21
-2.2845670472440944
0
LINE
8
BLACK
6
CONTINUOUS
10
4.5224018503937007
20
-2.2845670472440944
11
4.5236582283464566
21
-2.2766346850393702
0
LINE
8
BLACK
6
CONTINUOUS
10
4.5236582283464566
20
-2.2766346850393702
11
4.5261400393700786
21
-2.2689965354330708
0
LINE
8
BLACK
6
CONTINUOUS
10
4.5261400393700786
20
-2.2689965354330708
11
4.5297861417322833
21
-2.2618406299212599
0
LINE
8
BLACK
6
CONTINUOUS
10
4.5297861417322833
20
-2.2618406299212599
11
4.5345067716535432
21
-2.2553432283464567
0
LINE
8
BLACK
6
CONTINUOUS
10
4.5345067716535432
20
-2.2553432283464567
11
4.5401857480314955
21
-2.2496642519685039
0
LINE
8
BLACK
6
CONTINUOUS
10
4.5401857480314955
20
-2.2496642519685039
11
4.5466831496062987
21
-2.2449436220472441
0
LINE
8
BLACK
6
CONTINUOUS
10
4.5466831496062987
20
-2.2449436220472441
11
4.55383905511811
21
-2.2412975196850393
0
LINE
8
BLACK
6
CONTINUOUS
10
4.55383905511811
20
-2.2412975196850393
11
4.561477204724409
21
-2.2388157086614173
0
LINE
8
BLACK
6
CONTINUOUS
10
4.561477204724409
20
-2.2388157086614173
11
4.5694095669291341
21
-2.2375593307086614
0
LINE
8
BLACK
6
CONTINUOUS
10
4.5694095669291341
20
-2.2375593307086614
11
4.5774408267716531
21
-2.2375593307086614
0
LINE
8
BLACK
6
CONTINUOUS
10
4.5774408267716531
20
-2.2375593307086614
11
4.5853731889763782
21
-2.2388157086614173
0
LINE
8
BLACK
6
CONTINUOUS
10
4.5261811023622043
20
-2.2923008661417321
11
4.5273444094488191
21
-2.2996457086614175
0
LINE
8
BLACK
6
CONTINUOUS
10
4.5273444094488191
20
-2.2996457086614175
11
4.5296423622047239
21
-2.3067181102362202
0
LINE
8
BLACK
6
CONTINUOUS
10
4.5296423622047239
20
-2.3067181102362202
11
4.5330184251968504
21
-2.3133439763779529
0
LINE
8
BLACK
6
CONTINUOUS
10
4.5330184251968504
20
-2.3133439763779529
11
4.537389409448819
21
-2.3193601574803151
0
LINE
8
BLACK
6
CONTINUOUS
10
4.537389409448819
20
-2.3193601574803151
11
4.5426477165354333
21
-2.324618464566929
0
LINE
8
BLACK
6
CONTINUOUS
10
4.5426477165354333
20
-2.324618464566929
11
4.5486638976377956
21
-2.3289894488188976
0
LINE
8
BLACK
6
CONTINUOUS
10
4.5486638976377956
20
-2.3289894488188976
11
4.5552897637795278
21
-2.3323655118110236
0
LINE
8
BLACK
6
CONTINUOUS
10
4.5552897637795278
20
-2.3323655118110236
11
4.5623621653543305
21
-2.3346634645669289
0
LINE
8
BLACK
6
CONTINUOUS
10
4.5623621653543305
20
-2.3346634645669289
11
4.5697070078740154
21
-2.3358267716535432
0
LINE
8
BLACK
6
CONTINUOUS
10
4.5697070078740154
20
-2.3358267716535432
11
4.5771433858267718
21
-2.3358267716535432
0
LINE
8
BLACK
6
CONTINUOUS
10
4.5771433858267718
20
-2.3358267716535432
11
4.5844882283464568
21
-2.3346634645669289
0
LINE
8
BLACK
6
CONTINUOUS
10
4.5844882283464568
20
-2.3346634645669289
11
4.5915606299212595
21
-2.3323655118110236
0
LINE
8
BLACK
6
CONTINUOUS
10
4.5915606299212595
20
-2.3323655118110236
11
4.5981864960629917
21
-2.3289894488188976
0
LINE
8
BLACK
6
CONTINUOUS
10
4.5981864960629917
20
-2.3289894488188976
11
4.6042026771653539
21
-2.324618464566929
0
LINE
8
BLACK
6
CONTINUOUS
10
4.6042026771653539
20
-2.324618464566929
11
4.6094609842519683
21
-2.3193601574803151
0
LINE
8
BLACK
6
CONTINUOUS
10
4.6094609842519683
20
-2.3193601574803151
11
4.6138319685039368
21
-2.3133439763779529
0
LINE
8
BLACK
6
CONTINUOUS
10
4.6138319685039368
20
-2.3133439763779529
11
4.6172080314960633
21
-2.3067181102362202
0
LINE
8
BLACK
6
CONTINUOUS
10
4.6172080314960633
20
-2.3067181102362202
11
4.6195059842519681
21
-2.2996457086614175
0
LINE
8
BLACK
6
CONTINUOUS
10
4.6195059842519681
20
-2.2996457086614175
11
4.620669291338583
21
-2.2923008661417321
0
LINE
8
BLACK
6
CONTINUOUS
10
4.620669291338583
20
-2.2923008661417321
11
4.620669291338583
21
-2.2848644881889761
0
LINE
8
BLACK
6
CONTINUOUS
10
4.620669291338583
20
-2.2848644881889761
11
4.6195059842519681
21
-2.2775196456692912
0
LINE
8
BLACK
6
CONTINUOUS
10
4.6195059842519681
20
-2.2775196456692912
11
4.6172080314960633
21
-2.2704472440944881
0
LINE
8
BLACK
6
CONTINUOUS
10
4.6172080314960633
20
-2.2704472440944881
11
4.6138319685039368
21
-2.2638213779527558
0
LINE
8
BLACK
6
CONTINUOUS
10
4.6138319685039368
20
-2.2638213779527558
11
4.6094609842519683
21
-2.2578051968503936
0
LINE
8
BLACK
6
CONTINUOUS
10
4.6094609842519683
20
-2.2578051968503936
11
4.6042026771653539
21
-2.2525468897637793
0
LINE
8
BLACK
6
CONTINUOUS
10
4.6042026771653539
20
-2.2525468897637793
11
4.5981864960629917
21
-2.2481759055118111
0
LINE
8
BLACK
6
CONTINUOUS
10
4.5981864960629917
20
-2.2481759055118111
11
4.5915606299212595
21
-2.2447998425196851
0
LINE
8
BLACK
6
CONTINUOUS
10
4.5915606299212595
20
-2.2447998425196851
11
4.5844882283464568
21
-2.2425018897637794
0
LINE
8
BLACK
6
CONTINUOUS
10
4.5844882283464568
20
-2.2425018897637794
11
4.5771433858267718
21
-2.2413385826771655
0
LINE
8
BLACK
6
CONTINUOUS
10
4.5771433858267718
20
-2.2413385826771655
11
4.5697070078740154
21
-2.2413385826771655
0
LINE
8
BLACK
6
CONTINUOUS
10
4.5697070078740154
20
-2.2413385826771655
11
4.5623621653543305
21
-2.2425018897637794
0
LINE
8
BLACK
6
CONTINUOUS
10
4.5623621653543305
20
-2.2425018897637794
11
4.5552897637795278
21
-2.2447998425196851
0
LINE
8
BLACK
6
CONTINUOUS
10
4.5552897637795278
20
-2.2447998425196851
11
4.5486638976377956
21
-2.2481759055118111
0
LINE
8
BLACK
6
CONTINUOUS
10
4.5486638976377956
20
-2.2481759055118111
11
4.5426477165354333
21
-2.2525468897637793
0
LINE
8
BLACK
6
CONTINUOUS
10
4.5426477165354333
20
-2.2525468897637793
11
4.537389409448819
21
-2.2578051968503936
0
LINE
8
BLACK
6
CONTINUOUS
10
4.537389409448819
20
-2.2578051968503936
11
4.5330184251968504
21
-2.2638213779527558
0
LINE
8
BLACK
6
CONTINUOUS
10
4.5330184251968504
20
-2.2638213779527558
11
4.5296423622047239
21
-2.2704472440944881
0
LINE
8
BLACK
6
CONTINUOUS
10
4.5296423622047239
20
-2.2704472440944881
11
4.5273444094488191
21
-2.2775196456692912
0
LINE
8
BLACK
6
CONTINUOUS
10
4.5273444094488191
20
-2.2775196456692912
11
4.5261811023622043
21
-2.2848644881889761
0
LINE
8
BLACK
6
CONTINUOUS
10
4.5261811023622043
20
-2.2848644881889761
11
4.5261811023622043
21
-2.2923008661417321
0
LINE
8
BLACK
6
CONTINUOUS
10
4.5853731889763782
20
-1.5986582283464568
11
4.5930113385826772
21
-1.6011400393700788
0
LINE
8
BLACK
6
CONTINUOUS
10
4.5930113385826772
20
-1.6011400393700788
11
4.6001672440944885
21
-1.6047861417322835
0
LINE
8
BLACK
6
CONTINUOUS
10
4.6001672440944885
20
-1.6047861417322835
11
4.6066646456692908
21
-1.6095067716535432
0
LINE
8
BLACK
6
CONTINUOUS
10
4.6066646456692908
20
-1.6095067716535432
11
4.612343622047244
21
-1.6151857480314959
0
LINE
8
BLACK
6
CONTINUOUS
10
4.612343622047244
20
-1.6151857480314959
11
4.6170642519685039
21
-1.6216831496062991
0
LINE
8
BLACK
6
CONTINUOUS
10
4.6170642519685039
20
-1.6216831496062991
11
4.6207103543307086
21
-1.6288390551181102
0
LINE
8
BLACK
6
CONTINUOUS
10
4.6207103543307086
20
-1.6288390551181102
11
4.6231921653543306
21
-1.6364772047244094
0
LINE
8
BLACK
6
CONTINUOUS
10
4.6231921653543306
20
-1.6364772047244094
11
4.6244485433070865
21
-1.6444095669291339
0
LINE
8
BLACK
6
CONTINUOUS
10
4.6244485433070865
20
-1.6444095669291339
11
4.6244485433070865
21
-1.6524408267716535
0
LINE
8
BLACK
6
CONTINUOUS
10
4.6244485433070865
20
-1.6524408267716535
11
4.6231921653543306
21
-1.660373188976378
0
LINE
8
BLACK
6
CONTINUOUS
10
4.6231921653543306
20
-1.660373188976378
11
4.6207103543307086
21
-1.6680113385826771
0
LINE
8
BLACK
6
CONTINUOUS
10
4.6207103543307086
20
-1.6680113385826771
11
4.6170642519685039
21
-1.6751672440944883
0
LINE
8
BLACK
6
CONTINUOUS
10
4.6170642519685039
20
-1.6751672440944883
11
4.612343622047244
21
-1.6816646456692912
0
LINE
8
BLACK
6
CONTINUOUS
10
4.612343622047244
20
-1.6816646456692912
11
4.6066646456692908
21
-1.687343622047244
0
LINE
8
BLACK
6
CONTINUOUS
10
4.6066646456692908
20
-1.687343622047244
11
4.6001672440944885
21
-1.6920642519685039
0
LINE
8
BLACK
6
CONTINUOUS
10
4.6001672440944885
20
-1.6920642519685039
11
4.5930113385826772
21
-1.6957103543307086
0
LINE
8
BLACK
6
CONTINUOUS
10
4.5930113385826772
20
-1.6957103543307086
11
4.5853731889763782
21
-1.6981921653543306
0
LINE
8
BLACK
6
CONTINUOUS
10
4.5853731889763782
20
-1.6981921653543306
11
4.5774408267716531
21
-1.6994485433070865
0
LINE
8
BLACK
6
CONTINUOUS
10
4.5774408267716531
20
-1.6994485433070865
11
4.5694095669291341
21
-1.6994485433070865
0
LINE
8
BLACK
6
CONTINUOUS
10
4.5694095669291341
20
-1.6994485433070865
11
4.561477204724409
21
-1.6981921653543306
0
LINE
8
BLACK
6
CONTINUOUS
10
4.561477204724409
20
-1.6981921653543306
11
4.55383905511811
21
-1.6957103543307086
0
LINE
8
BLACK
6
CONTINUOUS
10
4.55383905511811
20
-1.6957103543307086
11
4.5466831496062987
21
-1.6920642519685039
0
LINE
8
BLACK
6
CONTINUOUS
10
4.5466831496062987
20
-1.6920642519685039
11
4.5401857480314955
21
-1.687343622047244
0
LINE
8
BLACK
6
CONTINUOUS
10
4.5401857480314955
20
-1.687343622047244
11
4.5345067716535432
21
-1.6816646456692912
0
LINE
8
BLACK
6
CONTINUOUS
10
4.5345067716535432
20
-1.6816646456692912
11
4.5297861417322833
21
-1.6751672440944883
0
LINE
8
BLACK
6
CONTINUOUS
10
4.5297861417322833
20
-1.6751672440944883
11
4.5261400393700786
21
-1.6680113385826771
0
LINE
8
BLACK
6
CONTINUOUS
10
4.5261400393700786
20
-1.6680113385826771
11
4.5236582283464566
21
-1.660373188976378
0
LINE
8
BLACK
6
CONTINUOUS
10
4.5236582283464566
20
-1.660373188976378
11
4.5224018503937007
21
-1.6524408267716535
0
LINE
8
BLACK
6
CONTINUOUS
10
4.5224018503937007
20
-1.6524408267716535
11
4.5224018503937007
21
-1.6447070078740158
0
LINE
8
BLACK
6
CONTINUOUS
10
4.5224018503937007
20
-1.6447070078740158
11
4.5224018503937007
21
-1.6444095669291339
0
LINE
8
BLACK
6
CONTINUOUS
10
4.5224018503937007
20
-1.6444095669291339
11
4.5236582283464566
21
-1.6364772047244094
0
LINE
8
BLACK
6
CONTINUOUS
10
4.5236582283464566
20
-1.6364772047244094
11
4.5261400393700786
21
-1.6288390551181102
0
LINE
8
BLACK
6
CONTINUOUS
10
4.5261400393700786
20
-1.6288390551181102
11
4.5297861417322833
21
-1.6216831496062991
0
LINE
8
BLACK
6
CONTINUOUS
10
4.5297861417322833
20
-1.6216831496062991
11
4.5345067716535432
21
-1.6151857480314959
0
LINE
8
BLACK
6
CONTINUOUS
10
4.5345067716535432
20
-1.6151857480314959
11
4.5401857480314955
21
-1.6095067716535432
0
LINE
8
BLACK
6
CONTINUOUS
10
4.5401857480314955
20
-1.6095067716535432
11
4.5466831496062987
21
-1.6047861417322835
0
LINE
8
BLACK
6
CONTINUOUS
10
4.5466831496062987
20
-1.6047861417322835
11
4.55383905511811
21
-1.6011400393700788
0
LINE
8
BLACK
6
CONTINUOUS
10
4.55383905511811
20
-1.6011400393700788
11
4.561477204724409
21
-1.5986582283464568
0
LINE
8
BLACK
6
CONTINUOUS
10
4.561477204724409
20
-1.5986582283464568
11
4.5694095669291341
21
-1.5974018503937009
0
LINE
8
BLACK
6
CONTINUOUS
10
4.5694095669291341
20
-1.5974018503937009
11
4.5774408267716531
21
-1.5974018503937009
0
LINE
8
BLACK
6
CONTINUOUS
10
4.5774408267716531
20
-1.5974018503937009
11
4.5853731889763782
21
-1.5986582283464568
0
LINE
8
BLACK
6
CONTINUOUS
10
4.5261811023622043
20
-1.6521433858267716
11
4.5273444094488191
21
-1.6594882283464567
0
LINE
8
BLACK
6
CONTINUOUS
10
4.5273444094488191
20
-1.6594882283464567
11
4.5296423622047239
21
-1.6665606299212599
0
LINE
8
BLACK
6
CONTINUOUS
10
4.5296423622047239
20
-1.6665606299212599
11
4.5330184251968504
21
-1.6731864960629921
0
LINE
8
BLACK
6
CONTINUOUS
10
4.5330184251968504
20
-1.6731864960629921
11
4.537389409448819
21
-1.6792026771653543
0
LINE
8
BLACK
6
CONTINUOUS
10
4.537389409448819
20
-1.6792026771653543
11
4.5426477165354333
21
-1.6844609842519684
0
LINE
8
BLACK
6
CONTINUOUS
10
4.5426477165354333
20
-1.6844609842519684
11
4.5486638976377956
21
-1.688831968503937
0
LINE
8
BLACK
6
CONTINUOUS
10
4.5486638976377956
20
-1.688831968503937
11
4.5552897637795278
21
-1.692208031496063
0
LINE
8
BLACK
6
CONTINUOUS
10
4.5552897637795278
20
-1.692208031496063
11
4.5623621653543305
21
-1.6945059842519685
0
LINE
8
BLACK
6
CONTINUOUS
10
4.5623621653543305
20
-1.6945059842519685
11
4.5697070078740154
21
-1.6956692913385827
0
LINE
8
BLACK
6
CONTINUOUS
10
4.5697070078740154
20
-1.6956692913385827
11
4.5771433858267718
21
-1.6956692913385827
0
LINE
8
BLACK
6
CONTINUOUS
10
4.5771433858267718
20
-1.6956692913385827
11
4.5844882283464568
21
-1.6945059842519685
0
LINE
8
BLACK
6
CONTINUOUS
10
4.5844882283464568
20
-1.6945059842519685
11
4.5915606299212595
21
-1.692208031496063
0
LINE
8
BLACK
6
CONTINUOUS
10
4.5915606299212595
20
-1.692208031496063
11
4.5981864960629917
21
-1.688831968503937
0
LINE
8
BLACK
6
CONTINUOUS
10
4.5981864960629917
20
-1.688831968503937
11
4.6042026771653539
21
-1.6844609842519684
0
LINE
8
BLACK
6
CONTINUOUS
10
4.6042026771653539
20
-1.6844609842519684
11
4.6094609842519683
21
-1.6792026771653543
0
LINE
8
BLACK
6
CONTINUOUS
10
4.6094609842519683
20
-1.6792026771653543
11
4.6138319685039368
21
-1.6731864960629921
0
LINE
8
BLACK
6
CONTINUOUS
10
4.6138319685039368
20
-1.6731864960629921
11
4.6172080314960633
21
-1.6665606299212599
0
LINE
8
BLACK
6
CONTINUOUS
10
4.6172080314960633
20
-1.6665606299212599
11
4.6195059842519681
21
-1.6594882283464567
0
LINE
8
BLACK
6
CONTINUOUS
10
4.6195059842519681
20
-1.6594882283464567
11
4.620669291338583
21
-1.6521433858267716
0
LINE
8
BLACK
6
CONTINUOUS
10
4.620669291338583
20
-1.6521433858267716
11
4.620669291338583
21
-1.6447070078740158
0
LINE
8
BLACK
6
CONTINUOUS
10
4.620669291338583
20
-1.6447070078740158
11
4.6195059842519681
21
-1.6373621653543307
0
LINE
8
BLACK
6
CONTINUOUS
10
4.6195059842519681
20
-1.6373621653543307
11
4.6172080314960633
21
-1.6302897637795275
0
LINE
8
BLACK
6
CONTINUOUS
10
4.6172080314960633
20
-1.6302897637795275
11
4.6138319685039368
21
-1.6236638976377953
0
LINE
8
BLACK
6
CONTINUOUS
10
4.6138319685039368
20
-1.6236638976377953
11
4.6094609842519683
21
-1.617647716535433
0
LINE
8
BLACK
6
CONTINUOUS
10
4.6094609842519683
20
-1.617647716535433
11
4.6042026771653539
21
-1.6123894094488189
0
LINE
8
BLACK
6
CONTINUOUS
10
4.6042026771653539
20
-1.6123894094488189
11
4.5981864960629917
21
-1.6080184251968503
0
LINE
8
BLACK
6
CONTINUOUS
10
4.5981864960629917
20
-1.6080184251968503
11
4.5915606299212595
21
-1.6046423622047243
0
LINE
8
BLACK
6
CONTINUOUS
10
4.5915606299212595
20
-1.6046423622047243
11
4.5844882283464568
21
-1.6023444094488188
0
LINE
8
BLACK
6
CONTINUOUS
10
4.5844882283464568
20
-1.6023444094488188
11
4.5771433858267718
21
-1.6011811023622047
0
LINE
8
BLACK
6
CONTINUOUS
10
4.5771433858267718
20
-1.6011811023622047
11
4.5697070078740154
21
-1.6011811023622047
0
LINE
8
BLACK
6
CONTINUOUS
10
4.5697070078740154
20
-1.6011811023622047
11
4.5623621653543305
21
-1.6023444094488188
0
LINE
8
BLACK
6
CONTINUOUS
10
4.5623621653543305
20
-1.6023444094488188
11
4.5552897637795278
21
-1.6046423622047243
0
LINE
8
BLACK
6
CONTINUOUS
10
4.5552897637795278
20
-1.6046423622047243
11
4.5486638976377956
21
-1.6080184251968503
0
LINE
8
BLACK
6
CONTINUOUS
10
4.5486638976377956
20
-1.6080184251968503
11
4.5426477165354333
21
-1.6123894094488189
0
LINE
8
BLACK
6
CONTINUOUS
10
4.5426477165354333
20
-1.6123894094488189
11
4.537389409448819
21
-1.617647716535433
0
LINE
8
BLACK
6
CONTINUOUS
10
4.537389409448819
20
-1.617647716535433
11
4.5330184251968504
21
-1.6236638976377953
0
LINE
8
BLACK
6
CONTINUOUS
10
4.5330184251968504
20
-1.6236638976377953
11
4.5296423622047239
21
-1.6302897637795275
0
LINE
8
BLACK
6
CONTINUOUS
10
4.5296423622047239
20
-1.6302897637795275
11
4.5273444094488191
21
-1.6373621653543307
0
LINE
8
BLACK
6
CONTINUOUS
10
4.5273444094488191
20
-1.6373621653543307
11
4.5261811023622043
21
-1.6447070078740158
0
LINE
8
BLACK
6
CONTINUOUS
10
4.5261811023622043
20
-1.6447070078740158
11
4.5261811023622043
21
-1.6521433858267716
0
LINE
8
BLACK
6
CONTINUOUS
10
6.0826771653543306
20
-1.4133858267716535
11
6.0954345669291339
21
-1.4140544094488188
0
LINE
8
BLACK
6
CONTINUOUS
10
6.0954345669291339
20
-1.4140544094488188
11
6.1080522047244097
21
-1.4160528346456693
0
LINE
8
BLACK
6
CONTINUOUS
10
6.1080522047244097
20
-1.4160528346456693
11
6.1203918503937009
21
-1.4193592519685039
0
LINE
8
BLACK
6
CONTINUOUS
10
6.1203918503937009
20
-1.4193592519685039
11
6.1323182677165349
21
-1.4239373622047244
0
LINE
8
BLACK
6
CONTINUOUS
10
6.1323182677165349
20
-1.4239373622047244
11
6.143700787401575
21
-1.4297370472440944
0
LINE
8
BLACK
6
CONTINUOUS
10
6.143700787401575
20
-1.4297370472440944
11
6.1544147244094489
21
-1.4366947637795275
0
LINE
8
BLACK
6
CONTINUOUS
10
6.1544147244094489
20
-1.4366947637795275
11
6.1643427165354332
21
-1.4447342913385826
0
LINE
8
BLACK
6
CONTINUOUS
10
6.1643427165354332
20
-1.4447342913385826
11
6.1733759448818892
21
-1.4537675196850393
0
LINE
8
BLACK
6
CONTINUOUS
10
6.1733759448818892
20
-1.4537675196850393
11
6.1814154724409445
21
-1.4636955118110235
0
LINE
8
BLACK
6
CONTINUOUS
10
6.1814154724409445
20
-1.4636955118110235
11
6.188373188976378
21
-1.4744094488188977
0
LINE
8
BLACK
6
CONTINUOUS
10
6.188373188976378
20
-1.4744094488188977
11
6.1941728740157478
21
-1.4857919685039369
0
LINE
8
BLACK
6
CONTINUOUS
10
6.1941728740157478
20
-1.4857919685039369
11
6.1987509842519684
21
-1.4977183858267715
0
LINE
8
BLACK
6
CONTINUOUS
10
6.1987509842519684
20
-1.4977183858267715
11
6.2020574015748027
21
-1.510058031496063
0
LINE
8
BLACK
6
CONTINUOUS
10
6.2020574015748027
20
-1.510058031496063
11
6.2040558267716532
21
-1.5226756692913386
0
LINE
8
BLACK
6
CONTINUOUS
10
6.2040558267716532
20
-1.5226756692913386
11
6.2047244094488185
21
-1.5354330708661417
0
LINE
8
BLACK
6
CONTINUOUS
10
6.2047244094488185
20
-1.5354330708661417
11
6.2047244094488185
21
-2.401574803149606
0
LINE
8
BLACK
6
CONTINUOUS
10
6.2047244094488185
20
-2.401574803149606
11
6.2040558267716532
21
-2.4143322047244093
0
LINE
8
BLACK
6
CONTINUOUS
10
6.2040558267716532
20
-2.4143322047244093
11
6.2020574015748027
21
-2.4269498425196852
0
LINE
8
BLACK
6
CONTINUOUS
10
6.2020574015748027
20
-2.4269498425196852
11
6.1987509842519684
21
-2.4392894881889764
0
LINE
8
BLACK
6
CONTINUOUS
10
6.1987509842519684
20
-2.4392894881889764
11
6.1941728740157478
21
-2.4512159055118108
0
LINE
8
BLACK
6
CONTINUOUS
10
6.1941728740157478
20
-2.4512159055118108
11
6.188373188976378
21
-2.4625984251968505
0
LINE
8
BLACK
6
CONTINUOUS
10
6.188373188976378
20
-2.4625984251968505
11
6.1814154724409445
21
-2.4733123622047244
0
LINE
8
BLACK
6
CONTINUOUS
10
6.1814154724409445
20
-2.4733123622047244
11
6.1733759448818892
21
-2.4832403543307087
0
LINE
8
BLACK
6
CONTINUOUS
10
6.1733759448818892
20
-2.4832403543307087
11
6.1643427165354332
21
-2.4922735826771651
0
LINE
8
BLACK
6
CONTINUOUS
10
6.1643427165354332
20
-2.4922735826771651
11
6.1544147244094489
21
-2.5003131102362204
0
LINE
8
BLACK
6
CONTINUOUS
10
6.1544147244094489
20
-2.5003131102362204
11
6.143700787401575
21
-2.5072708267716535
0
LINE
8
BLACK
6
CONTINUOUS
10
6.143700787401575
20
-2.5072708267716535
11
6.1323182677165349
21
-2.5130705118110237
0
LINE
8
BLACK
6
CONTINUOUS
10
6.1323182677165349
20
-2.5130705118110237
11
6.1203918503937009
21
-2.5176486220472438
0
LINE
8
BLACK
6
CONTINUOUS
10
6.1203918503937009
20
-2.5176486220472438
11
6.1080522047244097
21
-2.5209550393700786
0
LINE
8
BLACK
6
CONTINUOUS
10
6.1080522047244097
20
-2.5209550393700786
11
6.0954345669291339
21
-2.5229534645669291
0
LINE
8
BLACK
6
CONTINUOUS
10
6.0954345669291339
20
-2.5229534645669291
11
6.0826771653543306
21
-2.5236220472440944
0
LINE
8
BLACK
6
CONTINUOUS
10
6.0826771653543306
20
-2.5236220472440944
11
1.7913385826771653
21
-2.5236220472440944
0
LINE
8
BLACK
6
CONTINUOUS
10
1.7913385826771653
20
-2.5236220472440944
11
1.7785811811023622
21
-2.5229534645669291
0
LINE
8
BLACK
6
CONTINUOUS
10
1.7785811811023622
20
-2.5229534645669291
11
1.7659635433070866
21
-2.5209550393700786
0
LINE
8
BLACK
6
CONTINUOUS
10
1.7659635433070866
20
-2.5209550393700786
11
1.7536238976377951
21
-2.5176486220472438
0
LINE
8
BLACK
6
CONTINUOUS
10
1.7536238976377951
20
-2.5176486220472438
11
1.7416974803149605
21
-2.5130705118110237
0
LINE
8
BLACK
6
CONTINUOUS
10
1.7416974803149605
20
-2.5130705118110237
11
1.7303149606299213
21
-2.5072708267716535
0
LINE
8
BLACK
6
CONTINUOUS
10
1.7303149606299213
20
-2.5072708267716535
11
1.7196010236220471
21
-2.5003131102362204
0
LINE
8
BLACK
6
CONTINUOUS
10
1.7196010236220471
20
-2.5003131102362204
11
1.7096730314960629
21
-2.4922735826771651
0
LINE
8
BLACK
6
CONTINUOUS
10
1.7096730314960629
20
-2.4922735826771651
11
1.7006398031496062
21
-2.4832403543307087
0
LINE
8
BLACK
6
CONTINUOUS
10
1.7006398031496062
20
-2.4832403543307087
11
1.6926002755905512
21
-2.4733123622047244
0
LINE
8
BLACK
6
CONTINUOUS
10
1.6926002755905512
20
-2.4733123622047244
11
1.6856425590551181
21
-2.4625984251968505
0
LINE
8
BLACK
6
CONTINUOUS
10
1.6856425590551181
20
-2.4625984251968505
11
1.6798428740157481
21
-2.4512159055118108
0
LINE
8
BLACK
6
CONTINUOUS
10
1.6798428740157481
20
-2.4512159055118108
11
1.6752647637795275
21
-2.4392894881889764
0
LINE
8
BLACK
6
CONTINUOUS
10
1.6752647637795275
20
-2.4392894881889764
11
1.6719583464566929
21
-2.4269498425196852
0
LINE
8
BLACK
6
CONTINUOUS
10
1.6719583464566929
20
-2.4269498425196852
11
1.6699599212598424
21
-2.4143322047244093
0
LINE
8
BLACK
6
CONTINUOUS
10
1.6699599212598424
20
-2.4143322047244093
11
1.6692913385826771
21
-2.401574803149606
0
LINE
8
BLACK
6
CONTINUOUS
10
1.6692913385826771
20
-2.401574803149606
11
1.6692913385826771
21
-1.5354330708661417
0
LINE
8
BLACK
6
CONTINUOUS
10
1.6692913385826771
20
-1.5354330708661417
11
1.6699599212598424
21
-1.5226756692913386
0
LINE
8
BLACK
6
CONTINUOUS
10
1.6699599212598424
20
-1.5226756692913386
11
1.6719583464566929
21
-1.510058031496063
0
LINE
8
BLACK
6
CONTINUOUS
10
1.6719583464566929
20
-1.510058031496063
11
1.6752647637795275
21
-1.4977183858267715
0
LINE
8
BLACK
6
CONTINUOUS
10
1.6752647637795275
20
-1.4977183858267715
11
1.6798428740157481
21
-1.4857919685039369
0
LINE
8
BLACK
6
CONTINUOUS
10
1.6798428740157481
20
-1.4857919685039369
11
1.6856425590551181
21
-1.4744094488188977
0
LINE
8
BLACK
6
CONTINUOUS
10
1.6856425590551181
20
-1.4744094488188977
11
1.6926002755905512
21
-1.4636955118110235
0
LINE
8
BLACK
6
CONTINUOUS
10
1.6926002755905512
20
-1.4636955118110235
11
1.7006398031496062
21
-1.4537675196850393
0
LINE
8
BLACK
6
CONTINUOUS
10
1.7006398031496062
20
-1.4537675196850393
11
1.7096730314960629
21
-1.4447342913385826
0
LINE
8
BLACK
6
CONTINUOUS
10
1.7096730314960629
20
-1.4447342913385826
11
1.7196010236220471
21
-1.4366947637795275
0
LINE
8
BLACK
6
CONTINUOUS
10
1.7196010236220471
20
-1.4366947637795275
11
1.7303149606299213
21
-1.4297370472440944
0
LINE
8
BLACK
6
CONTINUOUS
10
1.7303149606299213
20
-1.4297370472440944
11
1.7416974803149605
21
-1.4239373622047244
0
LINE
8
BLACK
6
CONTINUOUS
10
1.7416974803149605
20
-1.4239373622047244
11
1.7536238976377951
21
-1.4193592519685039
0
LINE
8
BLACK
6
CONTINUOUS
10
1.7536238976377951
20
-1.4193592519685039
11
1.7659635433070866
21
-1.4160528346456693
0
LINE
8
BLACK
6
CONTINUOUS
10
1.7659635433070866
20
-1.4160528346456693
11
1.7785811811023622
21
-1.4140544094488188
0
LINE
8
BLACK
6
CONTINUOUS
10
1.7785811811023622
20
-1.4140544094488188
11
1.7913385826771653
21
-1.4133858267716535
0
LINE
8
BLACK
6
CONTINUOUS
10
1.7913385826771653
20
-1.4133858267716535
11
6.0826771653543306
21
-1.4133858267716535
0
LINE
8
BLACK
6
CONTINUOUS
10
1.7913385826771653
20
-1.421259842519685
11
1.7849267716535433
21
-1.421259842519685
0
LINE
8
BLACK
6
CONTINUOUS
10
1.7849267716535433
20
-1.421259842519685
11
1.7721837401574803
21
-1.4226956692913386
0
LINE
8
BLACK
6
CONTINUOUS
10
1.7721837401574803
20
-1.4226956692913386
11
1.7596815748031496
21
-1.4255491732283465
0
LINE
8
BLACK
6
CONTINUOUS
10
1.7596815748031496
20
-1.4255491732283465
11
1.7475775590551181
21
-1.4297845669291338
0
LINE
8
BLACK
6
CONTINUOUS
10
1.7475775590551181
20
-1.4297845669291338
11
1.7360238188976378
21
-1.4353485433070865
0
LINE
8
BLACK
6
CONTINUOUS
10
1.7360238188976378
20
-1.4353485433070865
11
1.7251657086614174
21
-1.4421711417322833
0
LINE
8
BLACK
6
CONTINUOUS
10
1.7251657086614174
20
-1.4421711417322833
11
1.7151397637795276
21
-1.4501665748031496
0
LINE
8
BLACK
6
CONTINUOUS
10
1.7151397637795276
20
-1.4501665748031496
11
1.7060720866141732
21
-1.459234251968504
0
LINE
8
BLACK
6
CONTINUOUS
10
1.7060720866141732
20
-1.459234251968504
11
1.6980766535433069
21
-1.4692601968503938
0
LINE
8
BLACK
6
CONTINUOUS
10
1.6980766535433069
20
-1.4692601968503938
11
1.6912540551181101
21
-1.4801183070866142
0
LINE
8
BLACK
6
CONTINUOUS
10
1.6912540551181101
20
-1.4801183070866142
11
1.6856900787401574
21
-1.4916720472440945
0
LINE
8
BLACK
6
CONTINUOUS
10
1.6856900787401574
20
-1.4916720472440945
11
1.6814546850393701
21
-1.503776062992126
0
LINE
8
BLACK
6
CONTINUOUS
10
1.6814546850393701
20
-1.503776062992126
11
1.6786011811023622
21
-1.5162782283464566
0
LINE
8
BLACK
6
CONTINUOUS
10
1.6786011811023622
20
-1.5162782283464566
11
1.6771653543307086
21
-1.5290212598425197
0
LINE
8
BLACK
6
CONTINUOUS
10
1.6771653543307086
20
-1.5290212598425197
11
1.6771653543307086
21
-1.5354330708661417
0
LINE
8
BLACK
6
CONTINUOUS
10
1.6771653543307086
20
-1.5354330708661417
11
1.6771653543307086
21
-2.401574803149606
0
LINE
8
BLACK
6
CONTINUOUS
10
1.6771653543307086
20
-2.401574803149606
11
1.6771653543307086
21
-2.4079866141732285
0
LINE
8
BLACK
6
CONTINUOUS
10
1.6771653543307086
20
-2.4079866141732285
11
1.6786011811023622
21
-2.4207296456692915
0
LINE
8
BLACK
6
CONTINUOUS
10
1.6786011811023622
20
-2.4207296456692915
11
1.6814546850393701
21
-2.4332318110236222
0
LINE
8
BLACK
6
CONTINUOUS
10
1.6814546850393701
20
-2.4332318110236222
11
1.6856900787401574
21
-2.4453358267716534
0
LINE
8
BLACK
6
CONTINUOUS
10
1.6856900787401574
20
-2.4453358267716534
11
1.6912540551181101
21
-2.4568895669291337
0
LINE
8
BLACK
6
CONTINUOUS
10
1.6912540551181101
20
-2.4568895669291337
11
1.6980766535433069
21
-2.4677476771653541
0
LINE
8
BLACK
6
CONTINUOUS
10
1.6980766535433069
20
-2.4677476771653541
11
1.7060720866141732
21
-2.4777736220472439
0
LINE
8
BLACK
6
CONTINUOUS
10
1.7060720866141732
20
-2.4777736220472439
11
1.7151397637795276
21
-2.4868412992125983
0
LINE
8
BLACK
6
CONTINUOUS
10
1.7151397637795276
20
-2.4868412992125983
11
1.7251657086614174
21
-2.4948367322834644
0
LINE
8
BLACK
6
CONTINUOUS
10
1.7251657086614174
20
-2.4948367322834644
11
1.7360238188976378
21
-2.5016593307086614
0
LINE
8
BLACK
6
CONTINUOUS
10
1.7360238188976378
20
-2.5016593307086614
11
1.7475775590551181
21
-2.5072233070866141
0
LINE
8
BLACK
6
CONTINUOUS
10
1.7475775590551181
20
-2.5072233070866141
11
1.7596815748031496
21
-2.5114587007874016
0
LINE
8
BLACK
6
CONTINUOUS
10
1.7596815748031496
20
-2.5114587007874016
11
1.7721837401574803
21
-2.5143122047244093
0
LINE
8
BLACK
6
CONTINUOUS
10
1.7721837401574803
20
-2.5143122047244093
11
1.7849267716535433
21
-2.515748031496063
0
LINE
8
BLACK
6
CONTINUOUS
10
1.7849267716535433
20
-2.515748031496063
11
1.7913385826771653
21
-2.515748031496063
0
LINE
8
BLACK
6
CONTINUOUS
10
1.7913385826771653
20
-2.515748031496063
11
6.0826771653543306
21
-2.515748031496063
0
LINE
8
BLACK
6
CONTINUOUS
10
6.0826771653543306
20
-2.515748031496063
11
6.089088976377953
21
-2.515748031496063
0
LINE
8
BLACK
6
CONTINUOUS
10
6.089088976377953
20
-2.515748031496063
11
6.101832007874016
21
-2.5143122047244093
0
LINE
8
BLACK
6
CONTINUOUS
10
6.101832007874016
20
-2.5143122047244093
11
6.1143341732283467
21
-2.5114587007874016
0
LINE
8
BLACK
6
CONTINUOUS
10
6.1143341732283467
20
-2.5114587007874016
11
6.1264381889763779
21
-2.5072233070866141
0
LINE
8
BLACK
6
CONTINUOUS
10
6.1264381889763779
20
-2.5072233070866141
11
6.1379919291338583
21
-2.5016593307086614
0
LINE
8
BLACK
6
CONTINUOUS
10
6.1379919291338583
20
-2.5016593307086614
11
6.1488500393700782
21
-2.4948367322834644
0
LINE
8
BLACK
6
CONTINUOUS
10
6.1488500393700782
20
-2.4948367322834644
11
6.158875984251968
21
-2.4868412992125983
0
LINE
8
BLACK
6
CONTINUOUS
10
6.158875984251968
20
-2.4868412992125983
11
6.1679436614173229
21
-2.4777736220472439
0
LINE
8
BLACK
6
CONTINUOUS
10
6.1679436614173229
20
-2.4777736220472439
11
6.1759390944881885
21
-2.4677476771653541
0
LINE
8
BLACK
6
CONTINUOUS
10
6.1759390944881885
20
-2.4677476771653541
11
6.1827616929133855
21
-2.4568895669291337
0
LINE
8
BLACK
6
CONTINUOUS
10
6.1827616929133855
20
-2.4568895669291337
11
6.1883256692913386
21
-2.4453358267716534
0
LINE
8
BLACK
6
CONTINUOUS
10
6.1883256692913386
20
-2.4453358267716534
11
6.1925610629921257
21
-2.4332318110236222
0
LINE
8
BLACK
6
CONTINUOUS
10
6.1925610629921257
20
-2.4332318110236222
11
6.1954145669291334
21
-2.4207296456692915
0
LINE
8
BLACK
6
CONTINUOUS
10
6.1954145669291334
20
-2.4207296456692915
11
6.1968503937007871
21
-2.4079866141732285
0
LINE
8
BLACK
6
CONTINUOUS
10
6.1968503937007871
20
-2.4079866141732285
11
6.1968503937007871
21
-2.401574803149606
0
LINE
8
BLACK
6
CONTINUOUS
10
6.1968503937007871
20
-2.401574803149606
11
6.1968503937007871
21
-1.5354330708661417
0
LINE
8
BLACK
6
CONTINUOUS
10
6.1968503937007871
20
-1.5354330708661417
11
6.1968503937007871
21
-1.5290212598425197
0
LINE
8
BLACK
6
CONTINUOUS
10
6.1968503937007871
20
-1.5290212598425197
11
6.1954145669291334
21
-1.5162782283464566
0
LINE
8
BLACK
6
CONTINUOUS
10
6.1954145669291334
20
-1.5162782283464566
11
6.1925610629921257
21
-1.503776062992126
0
LINE
8
BLACK
6
CONTINUOUS
10
6.1925610629921257
20
-1.503776062992126
11
6.1883256692913386
21
-1.4916720472440945
0
LINE
8
BLACK
6
CONTINUOUS
10
6.1883256692913386
20
-1.4916720472440945
11
6.1827616929133855
21
-1.4801183070866142
0
LINE
8
BLACK
6
CONTINUOUS
10
6.1827616929133855
20
-1.4801183070866142
11
6.1759390944881885
21
-1.4692601968503938
0
LINE
8
BLACK
6
CONTINUOUS
10
6.1759390944881885
20
-1.4692601968503938
11
6.1679436614173229
21
-1.459234251968504
0
LINE
8
BLACK
6
CONTINUOUS
10
6.1679436614173229
20
-1.459234251968504
11
6.158875984251968
21
-1.4501665748031496
0
LINE
8
BLACK
6
CONTINUOUS
10
6.158875984251968
20
-1.4501665748031496
11
6.1488500393700782
21
-1.4421711417322833
0
LINE
8
BLACK
6
CONTINUOUS
10
6.1488500393700782
20
-1.4421711417322833
11
6.1379919291338583
21
-1.4353485433070865
0
LINE
8
BLACK
6
CONTINUOUS
10
6.1379919291338583
20
-1.4353485433070865
11
6.1264381889763779
21
-1.4297845669291338
0
LINE
8
BLACK
6
CONTINUOUS
10
6.1264381889763779
20
-1.4297845669291338
11
6.1143341732283467
21
-1.4255491732283465
0
LINE
8
BLACK
6
CONTINUOUS
10
6.1143341732283467
20
-1.4255491732283465
11
6.101832007874016
21
-1.4226956692913386
0
LINE
8
BLACK
6
CONTINUOUS
10
6.101832007874016
20
-1.4226956692913386
11
6.089088976377953
21
-1.421259842519685
0
LINE
8
BLACK
6
CONTINUOUS
10
6.089088976377953
20
-1.421259842519685
11
6.0826771653543306
21
-1.421259842519685
0
LINE
8
BLACK
6
CONTINUOUS
10
6.0826771653543306
20
-1.421259842519685
11
1.7913385826771653
21
-1.421259842519685
0
LINE
8
BLACK
6
CONTINUOUS
10
3.0557009842519682
20
-1.8453872440944881
11
3.0583711811023622
21
-1.8469288976377953
0
LINE
8
BLACK
6
CONTINUOUS
10
3.0583711811023622
20
-1.8469288976377953
11
3.0605514173228348
21
-1.8491091338582677
0
LINE
8
BLACK
6
CONTINUOUS
10
3.0605514173228348
20
-1.8491091338582677
11
3.0620930708661418
21
-1.8517793307086614
0
LINE
8
BLACK
6
CONTINUOUS
10
3.0620930708661418
20
-1.8517793307086614
11
3.0622492519685038
21
-1.8523622047244095
0
LINE
8
BLACK
6
CONTINUOUS
10
3.0622492519685038
20
-1.8523622047244095
11
3.1845376377952754
21
-1.8523622047244095
0
LINE
8
BLACK
6
CONTINUOUS
10
3.1845376377952754
20
-1.8523622047244095
11
3.1853057086614172
21
-1.8524378346456694
0
LINE
8
BLACK
6
CONTINUOUS
10
3.1853057086614172
20
-1.8524378346456694
11
3.1867249212598425
21
-1.8530257086614172
0
LINE
8
BLACK
6
CONTINUOUS
10
3.1867249212598425
20
-1.8530257086614172
11
3.1873215354330706
21
-1.8535153149606298
0
LINE
8
BLACK
6
CONTINUOUS
10
3.1873215354330706
20
-1.8535153149606298
11
3.5385307086614173
21
-2.204724409448819
0
LINE
8
BLACK
6
CONTINUOUS
10
3.5385307086614173
20
-2.204724409448819
11
3.5472440944881889
21
-2.204724409448819
0
LINE
8
BLACK
6
CONTINUOUS
10
3.5472440944881889
20
-2.204724409448819
11
3.5480121653543306
21
-2.2048000393700788
0
LINE
8
BLACK
6
CONTINUOUS
10
3.5480121653543306
20
-2.2048000393700788
11
3.549431377952756
21
-2.2053879133858265
0
LINE
8
BLACK
6
CONTINUOUS
10
3.549431377952756
20
-2.2053879133858265
11
3.5500279921259841
21
-2.2058775196850395
0
LINE
8
BLACK
6
CONTINUOUS
10
3.5500279921259841
20
-2.2058775196850395
11
3.761473307086614
21
-2.4173228346456694
0
LINE
8
BLACK
6
CONTINUOUS
10
3.761473307086614
20
-2.4173228346456694
11
5.5826169291338585
21
-2.4173228346456694
0
LINE
8
BLACK
6
CONTINUOUS
10
5.5826169291338585
20
-2.4173228346456694
11
5.6870472440944884
21
-2.3128925196850392
0
LINE
8
BLACK
6
CONTINUOUS
10
5.6870472440944884
20
-2.3128925196850392
11
5.6870472440944884
21
-2.1689929921259843
0
LINE
8
BLACK
6
CONTINUOUS
10
5.6870472440944884
20
-2.1689929921259843
11
5.6646736614173223
21
-2.1466194094488187
0
LINE
8
BLACK
6
CONTINUOUS
10
5.6646736614173223
20
-2.1466194094488187
11
5.6583227165354328
21
-2.1508630314960628
0
LINE
8
BLACK
6
CONTINUOUS
10
5.6583227165354328
20
-2.1508630314960628
11
5.6511923228346452
21
-2.1538165354330707
0
LINE
8
BLACK
6
CONTINUOUS
10
5.6511923228346452
20
-2.1538165354330707
11
5.6436227165354333
21
-2.1553222440944881
0
LINE
8
BLACK
6
CONTINUOUS
10
5.6436227165354333
20
-2.1553222440944881
11
5.6359048425196852
21
-2.1553222440944881
0
LINE
8
BLACK
6
CONTINUOUS
10
5.6359048425196852
20
-2.1553222440944881
11
5.6283352362204724
21
-2.1538165354330707
0
LINE
8
BLACK
6
CONTINUOUS
10
5.6283352362204724
20
-2.1538165354330707
11
5.6212048425196848
21
-2.1508630314960628
0
LINE
8
BLACK
6
CONTINUOUS
10
5.6212048425196848
20
-2.1508630314960628
11
5.6147876771653538
21
-2.1465751968503937
0
LINE
8
BLACK
6
CONTINUOUS
10
5.6147876771653538
20
-2.1465751968503937
11
5.6093303149606299
21
-2.1411178346456694
0
LINE
8
BLACK
6
CONTINUOUS
10
5.6093303149606299
20
-2.1411178346456694
11
5.6050424803149603
21
-2.1347006692913384
0
LINE
8
BLACK
6
CONTINUOUS
10
5.6050424803149603
20
-2.1347006692913384
11
5.6020889763779529
21
-2.1275702755905512
0
LINE
8
BLACK
6
CONTINUOUS
10
5.6020889763779529
20
-2.1275702755905512
11
5.6005832677165355
21
-2.1200006692913385
0
LINE
8
BLACK
6
CONTINUOUS
10
5.6005832677165355
20
-2.1200006692913385
11
5.6005832677165355
21
-2.1122827952755907
0
LINE
8
BLACK
6
CONTINUOUS
10
5.6005832677165355
20
-2.1122827952755907
11
5.6020889763779529
21
-2.1047131889763779
0
LINE
8
BLACK
6
CONTINUOUS
10
5.6020889763779529
20
-2.1047131889763779
11
5.6050424803149603
21
-2.0975827952755903
0
LINE
8
BLACK
6
CONTINUOUS
10
5.6050424803149603
20
-2.0975827952755903
11
5.6093303149606299
21
-2.0911656299212598
0
LINE
8
BLACK
6
CONTINUOUS
10
5.6093303149606299
20
-2.0911656299212598
11
5.6147876771653538
21
-2.0857082677165355
0
LINE
8
BLACK
6
CONTINUOUS
10
5.6147876771653538
20
-2.0857082677165355
11
5.6212048425196848
21
-2.0814204330708659
0
LINE
8
BLACK
6
CONTINUOUS
10
5.6212048425196848
20
-2.0814204330708659
11
5.6283352362204724
21
-2.078466929133858
0
LINE
8
BLACK
6
CONTINUOUS
10
5.6283352362204724
20
-2.078466929133858
11
5.6359048425196852
21
-2.076961220472441
0
LINE
8
BLACK
6
CONTINUOUS
10
5.6359048425196852
20
-2.076961220472441
11
5.6436227165354333
21
-2.076961220472441
0
LINE
8
BLACK
6
CONTINUOUS
10
5.6436227165354333
20
-2.076961220472441
11
5.6511923228346452
21
-2.078466929133858
0
LINE
8
BLACK
6
CONTINUOUS
10
5.6511923228346452
20
-2.078466929133858
11
5.6583227165354328
21
-2.0814204330708659
0
LINE
8
BLACK
6
CONTINUOUS
10
5.6583227165354328
20
-2.0814204330708659
11
5.6647398818897639
21
-2.0857082677165355
0
LINE
8
BLACK
6
CONTINUOUS
10
5.6647398818897639
20
-2.0857082677165355
11
5.6701972440944877
21
-2.0911656299212598
0
LINE
8
BLACK
6
CONTINUOUS
10
5.6701972440944877
20
-2.0911656299212598
11
5.6744850787401573
21
-2.0975827952755903
0
LINE
8
BLACK
6
CONTINUOUS
10
5.6744850787401573
20
-2.0975827952755903
11
5.6774385826771656
21
-2.1047131889763779
0
LINE
8
BLACK
6
CONTINUOUS
10
5.6774385826771656
20
-2.1047131889763779
11
5.6789442913385821
21
-2.1122827952755907
0
LINE
8
BLACK
6
CONTINUOUS
10
5.6789442913385821
20
-2.1122827952755907
11
5.6789442913385821
21
-2.1200006692913385
0
LINE
8
BLACK
6
CONTINUOUS
10
5.6789442913385821
20
-2.1200006692913385
11
5.6774385826771656
21
-2.1275702755905512
0
LINE
8
BLACK
6
CONTINUOUS
10
5.6774385826771656
20
-2.1275702755905512
11
5.6744850787401573
21
-2.1347006692913384
0
LINE
8
BLACK
6
CONTINUOUS
10
5.6744850787401573
20
-2.1347006692913384
11
5.6702414566929136
21
-2.1410516141732283
0
LINE
8
BLACK
6
CONTINUOUS
10
5.6702414566929136
20
-2.1410516141732283
11
5.6937681496062993
21
-2.164578307086614
0
LINE
8
BLACK
6
CONTINUOUS
10
5.6937681496062993
20
-2.164578307086614
11
5.6942577559055119
21
-2.1651749212598426
0
LINE
8
BLACK
6
CONTINUOUS
10
5.6942577559055119
20
-2.1651749212598426
11
5.69484562992126
21
-2.1665941338582675
0
LINE
8
BLACK
6
CONTINUOUS
10
5.69484562992126
20
-2.1665941338582675
11
5.6949212598425198
21
-2.1673622047244092
0
LINE
8
BLACK
6
CONTINUOUS
10
5.6949212598425198
20
-2.1673622047244092
11
5.6949212598425198
21
-2.3145233070866142
0
LINE
8
BLACK
6
CONTINUOUS
10
5.6949212598425198
20
-2.3145233070866142
11
5.69484562992126
21
-2.315291377952756
0
LINE
8
BLACK
6
CONTINUOUS
10
5.69484562992126
20
-2.315291377952756
11
5.6942577559055119
21
-2.3167105905511809
0
LINE
8
BLACK
6
CONTINUOUS
10
5.6942577559055119
20
-2.3167105905511809
11
5.6937681496062993
21
-2.3173071653543307
0
LINE
8
BLACK
6
CONTINUOUS
10
5.6937681496062993
20
-2.3173071653543307
11
5.5870316141732284
21
-2.4240437401574804
0
LINE
8
BLACK
6
CONTINUOUS
10
5.5870316141732284
20
-2.4240437401574804
11
5.5864349999999998
21
-2.4245333464566929
0
LINE
8
BLACK
6
CONTINUOUS
10
5.5864349999999998
20
-2.4245333464566929
11
5.5850157874015744
21
-2.4251212204724411
0
LINE
8
BLACK
6
CONTINUOUS
10
5.5850157874015744
20
-2.4251212204724411
11
5.5842477165354332
21
-2.4251968503937009
0
LINE
8
BLACK
6
CONTINUOUS
10
5.5842477165354332
20
-2.4251968503937009
11
3.7598425196850394
21
-2.4251968503937009
0
LINE
8
BLACK
6
CONTINUOUS
10
3.7598425196850394
20
-2.4251968503937009
11
3.7590744488188976
21
-2.4251212204724411
0
LINE
8
BLACK
6
CONTINUOUS
10
3.7590744488188976
20
-2.4251212204724411
11
3.7580708661417321
21
-2.4247055118110237
0
LINE
8
BLACK
6
CONTINUOUS
10
3.7580708661417321
20
-2.4247055118110237
11
3.7576551968503935
21
-2.4245333464566929
0
LINE
8
BLACK
6
CONTINUOUS
10
3.7576551968503935
20
-2.4245333464566929
11
3.7570586220472442
21
-2.4240437401574804
0
LINE
8
BLACK
6
CONTINUOUS
10
3.7570586220472442
20
-2.4240437401574804
11
3.5456133070866143
21
-2.2125984251968505
0
LINE
8
BLACK
6
CONTINUOUS
10
3.5456133070866143
20
-2.2125984251968505
11
3.5368999212598426
21
-2.2125984251968505
0
LINE
8
BLACK
6
CONTINUOUS
10
3.5368999212598426
20
-2.2125984251968505
11
3.5361318503937009
21
-2.2125227952755906
0
LINE
8
BLACK
6
CONTINUOUS
10
3.5361318503937009
20
-2.2125227952755906
11
3.5347126377952756
21
-2.2119349212598425
0
LINE
8
BLACK
6
CONTINUOUS
10
3.5347126377952756
20
-2.2119349212598425
11
3.534116023622047
21
-2.2114453149606299
0
LINE
8
BLACK
6
CONTINUOUS
10
3.534116023622047
20
-2.2114453149606299
11
3.1829068503937008
21
-1.860236220472441
0
LINE
8
BLACK
6
CONTINUOUS
10
3.1829068503937008
20
-1.860236220472441
11
3.0622492519685038
21
-1.860236220472441
0
LINE
8
BLACK
6
CONTINUOUS
10
3.0622492519685038
20
-1.860236220472441
11
3.0620930708661418
21
-1.8608190944881888
0
LINE
8
BLACK
6
CONTINUOUS
10
3.0620930708661418
20
-1.8608190944881888
11
3.0605514173228348
21
-1.8634892913385825
0
LINE
8
BLACK
6
CONTINUOUS
10
3.0605514173228348
20
-1.8634892913385825
11
3.0583711811023622
21
-1.8656695275590551
0
LINE
8
BLACK
6
CONTINUOUS
10
3.0583711811023622
20
-1.8656695275590551
11
3.0557009842519682
21
-1.8672111811023622
0
LINE
8
BLACK
6
CONTINUOUS
10
3.0557009842519682
20
-1.8672111811023622
11
3.0527227559055117
21
-1.8680091732283464
0
LINE
8
BLACK
6
CONTINUOUS
10
3.0527227559055117
20
-1.8680091732283464
11
3.0496394488188976
21
-1.8680091732283464
0
LINE
8
BLACK
6
CONTINUOUS
10
3.0496394488188976
20
-1.8680091732283464
11
3.046661220472441
21
-1.8672111811023622
0
LINE
8
BLACK
6
CONTINUOUS
10
3.046661220472441
20
-1.8672111811023622
11
3.0439910236220471
21
-1.8656695275590551
0
LINE
8
BLACK
6
CONTINUOUS
10
3.0439910236220471
20
-1.8656695275590551
11
3.041810787401575
21
-1.8634892913385825
0
LINE
8
BLACK
6
CONTINUOUS
10
3.041810787401575
20
-1.8634892913385825
11
3.0402691338582675
21
-1.8608190944881888
0
LINE
8
BLACK
6
CONTINUOUS
10
3.0402691338582675
20
-1.8608190944881888
11
3.0394711417322835
21
-1.8578408661417323
0
LINE
8
BLACK
6
CONTINUOUS
10
3.0394711417322835
20
-1.8578408661417323
11
3.0394711417322835
21
-1.854757559055118
0
LINE
8
BLACK
6
CONTINUOUS
10
3.0394711417322835
20
-1.854757559055118
11
3.0402691338582675
21
-1.8517793307086614
0
LINE
8
BLACK
6
CONTINUOUS
10
3.0402691338582675
20
-1.8517793307086614
11
3.041810787401575
21
-1.8491091338582677
0
LINE
8
BLACK
6
CONTINUOUS
10
3.041810787401575
20
-1.8491091338582677
11
3.0439910236220471
21
-1.8469288976377953
0
LINE
8
BLACK
6
CONTINUOUS
10
3.0439910236220471
20
-1.8469288976377953
11
3.046661220472441
21
-1.8453872440944881
0
LINE
8
BLACK
6
CONTINUOUS
10
3.046661220472441
20
-1.8453872440944881
11
3.0496394488188976
21
-1.8445892519685039
0
LINE
8
BLACK
6
CONTINUOUS
10
3.0496394488188976
20
-1.8445892519685039
11
3.0527227559055117
21
-1.8445892519685039
0
LINE
8
BLACK
6
CONTINUOUS
10
3.0527227559055117
20
-1.8445892519685039
11
3.0557009842519682
21
-1.8453872440944881
0
LINE
8
BLACK
6
CONTINUOUS
10
3.0557009842519682
20
-1.6426313385826772
11
3.0583711811023622
21
-1.6441729921259842
0
LINE
8
BLACK
6
CONTINUOUS
10
3.0583711811023622
20
-1.6441729921259842
11
3.0605514173228348
21
-1.6463532283464566
0
LINE
8
BLACK
6
CONTINUOUS
10
3.0605514173228348
20
-1.6463532283464566
11
3.0620930708661418
21
-1.6490234251968503
0
LINE
8
BLACK
6
CONTINUOUS
10
3.0620930708661418
20
-1.6490234251968503
11
3.0622492519685038
21
-1.6496062992125984
0
LINE
8
BLACK
6
CONTINUOUS
10
3.0622492519685038
20
-1.6496062992125984
11
3.2087401574803147
21
-1.6496062992125984
0
LINE
8
BLACK
6
CONTINUOUS
10
3.2087401574803147
20
-1.6496062992125984
11
3.2095082283464564
21
-1.6496819291338582
0
LINE
8
BLACK
6
CONTINUOUS
10
3.2095082283464564
20
-1.6496819291338582
11
3.2109274409448818
21
-1.6502698031496064
0
LINE
8
BLACK
6
CONTINUOUS
10
3.2109274409448818
20
-1.6502698031496064
11
3.2115240551181103
21
-1.6507594094488189
0
LINE
8
BLACK
6
CONTINUOUS
10
3.2115240551181103
20
-1.6507594094488189
11
3.2989535826771652
21
-1.7381889763779528
0
LINE
8
BLACK
6
CONTINUOUS
10
3.2989535826771652
20
-1.7381889763779528
11
4.7190488188976376
21
-1.7381889763779528
0
LINE
8
BLACK
6
CONTINUOUS
10
4.7190488188976376
20
-1.7381889763779528
11
4.7198168897637798
21
-1.7382646062992126
0
LINE
8
BLACK
6
CONTINUOUS
10
4.7198168897637798
20
-1.7382646062992126
11
4.7212361023622043
21
-1.7388524803149605
0
LINE
8
BLACK
6
CONTINUOUS
10
4.7212361023622043
20
-1.7388524803149605
11
4.7218327165354328
21
-1.7393420866141731
0
LINE
8
BLACK
6
CONTINUOUS
10
4.7218327165354328
20
-1.7393420866141731
11
5.0434748818897637
21
-2.0609842519685038
0
LINE
8
BLACK
6
CONTINUOUS
10
5.0434748818897637
20
-2.0609842519685038
11
5.1948425196850394
21
-2.0609842519685038
0
LINE
8
BLACK
6
CONTINUOUS
10
5.1948425196850394
20
-2.0609842519685038
11
5.1956105905511807
21
-2.0610598818897636
0
LINE
8
BLACK
6
CONTINUOUS
10
5.1956105905511807
20
-2.0610598818897636
11
5.1970298031496061
21
-2.0616477559055117
0
LINE
8
BLACK
6
CONTINUOUS
10
5.1970298031496061
20
-2.0616477559055117
11
5.1976264173228346
21
-2.0621373622047243
0
LINE
8
BLACK
6
CONTINUOUS
10
5.1976264173228346
20
-2.0621373622047243
11
5.4669068897637798
21
-2.3314178740157478
0
LINE
8
BLACK
6
CONTINUOUS
10
5.4669068897637798
20
-2.3314178740157478
11
5.4704724409448815
21
-2.3307086614173227
0
LINE
8
BLACK
6
CONTINUOUS
10
5.4704724409448815
20
-2.3307086614173227
11
5.5137795275590546
21
-2.3307086614173227
0
LINE
8
BLACK
6
CONTINUOUS
10
5.5137795275590546
20
-2.3307086614173227
11
5.5175461023622043
21
-2.3314578740157481
0
LINE
8
BLACK
6
CONTINUOUS
10
5.5175461023622043
20
-2.3314578740157481
11
5.5207392519685037
21
-2.3335914566929135
0
LINE
8
BLACK
6
CONTINUOUS
10
5.5207392519685037
20
-2.3335914566929135
11
5.5228728346456695
21
-2.3367846062992124
0
LINE
8
BLACK
6
CONTINUOUS
10
5.5228728346456695
20
-2.3367846062992124
11
5.5236220472440944
21
-2.340551181102362
0
LINE
8
BLACK
6
CONTINUOUS
10
5.5236220472440944
20
-2.340551181102362
11
5.5236220472440944
21
-2.3838582677165352
0
LINE
8
BLACK
6
CONTINUOUS
10
5.5236220472440944
20
-2.3838582677165352
11
5.5228728346456695
21
-2.3876248425196849
0
LINE
8
BLACK
6
CONTINUOUS
10
5.5228728346456695
20
-2.3876248425196849
11
5.5207392519685037
21
-2.3908179921259842
0
LINE
8
BLACK
6
CONTINUOUS
10
5.5207392519685037
20
-2.3908179921259842
11
5.5175461023622043
21
-2.3929515748031496
0
LINE
8
BLACK
6
CONTINUOUS
10
5.5175461023622043
20
-2.3929515748031496
11
5.5137795275590546
21
-2.3937007874015745
0
LINE
8
BLACK
6
CONTINUOUS
10
5.5137795275590546
20
-2.3937007874015745
11
5.4704724409448815
21
-2.3937007874015745
0
LINE
8
BLACK
6
CONTINUOUS
10
5.4704724409448815
20
-2.3937007874015745
11
5.4667058661417318
21
-2.3929515748031496
0
LINE
8
BLACK
6
CONTINUOUS
10
5.4667058661417318
20
-2.3929515748031496
11
5.4635127165354334
21
-2.3908179921259842
0
LINE
8
BLACK
6
CONTINUOUS
10
5.4635127165354334
20
-2.3908179921259842
11
5.4613791338582676
21
-2.3876248425196849
0
LINE
8
BLACK
6
CONTINUOUS
10
5.4613791338582676
20
-2.3876248425196849
11
5.4606299212598426
21
-2.3838582677165352
0
LINE
8
BLACK
6
CONTINUOUS
10
5.4606299212598426
20
-2.3838582677165352
11
5.4606299212598426
21
-2.3661417322834644
0
LINE
8
BLACK
6
CONTINUOUS
10
5.4606299212598426
20
-2.3661417322834644
11
4.9527559055118111
21
-2.3661417322834644
0
LINE
8
BLACK
6
CONTINUOUS
10
4.9527559055118111
20
-2.3661417322834644
11
4.9527559055118111
21
-2.3838582677165352
0
LINE
8
BLACK
6
CONTINUOUS
10
4.9527559055118111
20
-2.3838582677165352
11
4.9520066929133861
21
-2.3876248425196849
0
LINE
8
BLACK
6
CONTINUOUS
10
4.9520066929133861
20
-2.3876248425196849
11
4.9498731102362203
21
-2.3908179921259842
0
LINE
8
BLACK
6
CONTINUOUS
10
4.9498731102362203
20
-2.3908179921259842
11
4.946679960629921
21
-2.3929515748031496
0
LINE
8
BLACK
6
CONTINUOUS
10
4.946679960629921
20
-2.3929515748031496
11
4.9429133858267713
21
-2.3937007874015745
0
LINE
8
BLACK
6
CONTINUOUS
10
4.9429133858267713
20
-2.3937007874015745
11
4.8996062992125982
21
-2.3937007874015745
0
LINE
8
BLACK
6
CONTINUOUS
10
4.8996062992125982
20
-2.3937007874015745
11
4.8958397244094485
21
-2.3929515748031496
0
LINE
8
BLACK
6
CONTINUOUS
10
4.8958397244094485
20
-2.3929515748031496
11
4.8926465748031491
21
-2.3908179921259842
0
LINE
8
BLACK
6
CONTINUOUS
10
4.8926465748031491
20
-2.3908179921259842
11
4.8905129921259842
21
-2.3876248425196849
0
LINE
8
BLACK
6
CONTINUOUS
10
4.8905129921259842
20
-2.3876248425196849
11
4.8897637795275593
21
-2.3838582677165352
0
LINE
8
BLACK
6
CONTINUOUS
10
4.8897637795275593
20
-2.3838582677165352
11
4.8897637795275593
21
-2.340551181102362
0
LINE
8
BLACK
6
CONTINUOUS
10
4.8897637795275593
20
-2.340551181102362
11
4.8905129921259842
21
-2.3367846062992124
0
LINE
8
BLACK
6
CONTINUOUS
10
4.8905129921259842
20
-2.3367846062992124
11
4.8926465748031491
21
-2.3335914566929135
0
LINE
8
BLACK
6
CONTINUOUS
10
4.8926465748031491
20
-2.3335914566929135
11
4.8958397244094485
21
-2.3314578740157481
0
LINE
8
BLACK
6
CONTINUOUS
10
4.8958397244094485
20
-2.3314578740157481
11
4.8996062992125982
21
-2.3307086614173227
0
LINE
8
BLACK
6
CONTINUOUS
10
4.8996062992125982
20
-2.3307086614173227
11
4.9429133858267713
21
-2.3307086614173227
0
LINE
8
BLACK
6
CONTINUOUS
10
4.9429133858267713
20
-2.3307086614173227
11
4.946679960629921
21
-2.3314578740157481
0
LINE
8
BLACK
6
CONTINUOUS
10
4.946679960629921
20
-2.3314578740157481
11
4.9498731102362203
21
-2.3335914566929135
0
LINE
8
BLACK
6
CONTINUOUS
10
4.9498731102362203
20
-2.3335914566929135
11
4.9520066929133861
21
-2.3367846062992124
0
LINE
8
BLACK
6
CONTINUOUS
10
4.9520066929133861
20
-2.3367846062992124
11
4.9527559055118111
21
-2.340551181102362
0
LINE
8
BLACK
6
CONTINUOUS
10
4.9527559055118111
20
-2.340551181102362
11
4.9527559055118111
21
-2.3582677165354329
0
LINE
8
BLACK
6
CONTINUOUS
10
4.9527559055118111
20
-2.3582677165354329
11
5.4606299212598426
21
-2.3582677165354329
0
LINE
8
BLACK
6
CONTINUOUS
10
5.4606299212598426
20
-2.3582677165354329
11
5.4606299212598426
21
-2.340551181102362
0
LINE
8
BLACK
6
CONTINUOUS
10
5.4606299212598426
20
-2.340551181102362
11
5.4613391338582673
21
-2.3369856299212599
0
LINE
8
BLACK
6
CONTINUOUS
10
5.4613391338582673
20
-2.3369856299212599
11
5.1932117322834648
21
-2.0688582677165352
0
LINE
8
BLACK
6
CONTINUOUS
10
5.1932117322834648
20
-2.0688582677165352
11
5.041844094488189
21
-2.0688582677165352
0
LINE
8
BLACK
6
CONTINUOUS
10
5.041844094488189
20
-2.0688582677165352
11
5.0410760236220469
21
-2.0687826377952754
0
LINE
8
BLACK
6
CONTINUOUS
10
5.0410760236220469
20
-2.0687826377952754
11
5.0396568110236215
21
-2.0681947637795277
0
LINE
8
BLACK
6
CONTINUOUS
10
5.0396568110236215
20
-2.0681947637795277
11
5.0390601968503939
21
-2.0677051574803147
0
LINE
8
BLACK
6
CONTINUOUS
10
5.0390601968503939
20
-2.0677051574803147
11
4.717418031496063
21
-1.7460629921259843
0
LINE
8
BLACK
6
CONTINUOUS
10
4.717418031496063
20
-1.7460629921259843
11
3.2973228346456693
21
-1.7460629921259843
0
LINE
8
BLACK
6
CONTINUOUS
10
3.2973228346456693
20
-1.7460629921259843
11
3.2965547637795276
21
-1.7459873622047244
0
LINE
8
BLACK
6
CONTINUOUS
10
3.2965547637795276
20
-1.7459873622047244
11
3.2951355511811022
21
-1.745399527559055
0
LINE
8
BLACK
6
CONTINUOUS
10
3.2951355511811022
20
-1.745399527559055
11
3.2945389763779529
21
-1.7449098818897637
0
LINE
8
BLACK
6
CONTINUOUS
10
3.2945389763779529
20
-1.7449098818897637
11
3.2071093700787401
21
-1.6574803149606299
0
LINE
8
BLACK
6
CONTINUOUS
10
3.2071093700787401
20
-1.6574803149606299
11
3.0622492519685038
21
-1.6574803149606299
0
LINE
8
BLACK
6
CONTINUOUS
10
3.0622492519685038
20
-1.6574803149606299
11
3.0620930708661418
21
-1.6580631889763779
0
LINE
8
BLACK
6
CONTINUOUS
10
3.0620930708661418
20
-1.6580631889763779
11
3.0605514173228348
21
-1.6607333858267717
0
LINE
8
BLACK
6
CONTINUOUS
10
3.0605514173228348
20
-1.6607333858267717
11
3.0583711811023622
21
-1.662913622047244
0
LINE
8
BLACK
6
CONTINUOUS
10
3.0583711811023622
20
-1.662913622047244
11
3.0557009842519682
21
-1.6644552755905511
0
LINE
8
BLACK
6
CONTINUOUS
10
3.0557009842519682
20
-1.6644552755905511
11
3.0527227559055117
21
-1.6652532677165355
0
LINE
8
BLACK
6
CONTINUOUS
10
3.0527227559055117
20
-1.6652532677165355
11
3.0496394488188976
21
-1.6652532677165355
0
LINE
8
BLACK
6
CONTINUOUS
10
3.0496394488188976
20
-1.6652532677165355
11
3.046661220472441
21
-1.6644552755905511
0
LINE
8
BLACK
6
CONTINUOUS
10
3.046661220472441
20
-1.6644552755905511
11
3.0439910236220471
21
-1.662913622047244
0
LINE
8
BLACK
6
CONTINUOUS
10
3.0439910236220471
20
-1.662913622047244
11
3.041810787401575
21
-1.6607333858267717
0
LINE
8
BLACK
6
CONTINUOUS
10
3.041810787401575
20
-1.6607333858267717
11
3.0402691338582675
21
-1.6580631889763779
0
LINE
8
BLACK
6
CONTINUOUS
10
3.0402691338582675
20
-1.6580631889763779
11
3.0394711417322835
21
-1.6550849606299212
0
LINE
8
BLACK
6
CONTINUOUS
10
3.0394711417322835
20
-1.6550849606299212
11
3.0394711417322835
21
-1.6520016535433071
0
LINE
8
BLACK
6
CONTINUOUS
10
3.0394711417322835
20
-1.6520016535433071
11
3.0402691338582675
21
-1.6490234251968503
0
LINE
8
BLACK
6
CONTINUOUS
10
3.0402691338582675
20
-1.6490234251968503
11
3.041810787401575
21
-1.6463532283464566
0
LINE
8
BLACK
6
CONTINUOUS
10
3.041810787401575
20
-1.6463532283464566
11
3.0439910236220471
21
-1.6441729921259842
0
LINE
8
BLACK
6
CONTINUOUS
10
3.0439910236220471
20
-1.6441729921259842
11
3.046661220472441
21
-1.6426313385826772
0
LINE
8
BLACK
6
CONTINUOUS
10
3.046661220472441
20
-1.6426313385826772
11
3.0496394488188976
21
-1.6418333464566928
0
LINE
8
BLACK
6
CONTINUOUS
10
3.0496394488188976
20
-1.6418333464566928
11
3.0527227559055117
21
-1.6418333464566928
0
LINE
8
BLACK
6
CONTINUOUS
10
3.0527227559055117
20
-1.6418333464566928
11
3.0557009842519682
21
-1.6426313385826772
0
LINE
8
BLACK
6
CONTINUOUS
10
1.8858267716535433
20
-2.3555118110236219
11
1.8149606299212597
21
-2.3555118110236219
0
LINE
8
BLACK
6
CONTINUOUS
10
1.8149606299212597
20
-2.3555118110236219
11
1.8149606299212597
21
-2.2846456692913386
0
LINE
8
BLACK
6
CONTINUOUS
10
1.8149606299212597
20
-2.2846456692913386
11
1.8858267716535433
21
-2.2846456692913386
0
LINE
8
BLACK
6
CONTINUOUS
10
1.8858267716535433
20
-2.2846456692913386
11
1.8858267716535433
21
-2.3555118110236219
0
LINE
8
BLACK
6
CONTINUOUS
10
4.930402677165354
20
-2.0320648818897635
11
4.9361069685039372
21
-2.0344276771653544
0
LINE
8
BLACK
6
CONTINUOUS
10
4.9361069685039372
20
-2.0344276771653544
11
4.9412407480314959
21
-2.0378579527559055
0
LINE
8
BLACK
6
CONTINUOUS
10
4.9412407480314959
20
-2.0378579527559055
11
4.9456066141732284
21
-2.0422238188976376
0
LINE
8
BLACK
6
CONTINUOUS
10
4.9456066141732284
20
-2.0422238188976376
11
4.9490368897637795
21
-2.0473575984251968
0
LINE
8
BLACK
6
CONTINUOUS
10
4.9490368897637795
20
-2.0473575984251968
11
4.9513996850393696
21
-2.0530618897637796
0
LINE
8
BLACK
6
CONTINUOUS
10
4.9513996850393696
20
-2.0530618897637796
11
4.9526042519685038
21
-2.0591175590551183
0
LINE
8
BLACK
6
CONTINUOUS
10
4.9526042519685038
20
-2.0591175590551183
11
4.9526042519685038
21
-2.0652918897637793
0
LINE
8
BLACK
6
CONTINUOUS
10
4.9526042519685038
20
-2.0652918897637793
11
4.9513996850393696
21
-2.071347559055118
0
LINE
8
BLACK
6
CONTINUOUS
10
4.9513996850393696
20
-2.071347559055118
11
4.9490368897637795
21
-2.0770518503937008
0
LINE
8
BLACK
6
CONTINUOUS
10
4.9490368897637795
20
-2.0770518503937008
11
4.9456066141732284
21
-2.08218562992126
0
LINE
8
BLACK
6
CONTINUOUS
10
4.9456066141732284
20
-2.08218562992126
11
4.9412407480314959
21
-2.0865514960629921
0
LINE
8
BLACK
6
CONTINUOUS
10
4.9412407480314959
20
-2.0865514960629921
11
4.9361069685039372
21
-2.0899817716535432
0
LINE
8
BLACK
6
CONTINUOUS
10
4.9361069685039372
20
-2.0899817716535432
11
4.930402677165354
21
-2.0923445669291336
0
LINE
8
BLACK
6
CONTINUOUS
10
4.930402677165354
20
-2.0923445669291336
11
4.9251968503937009
21
-2.0933800787401573
0
LINE
8
BLACK
6
CONTINUOUS
10
4.9251968503937009
20
-2.0933800787401573
11
4.9251968503937009
21
-2.1440385039370078
0
LINE
8
BLACK
6
CONTINUOUS
10
4.9251968503937009
20
-2.1440385039370078
11
5.0439877165354332
21
-2.2628293700787401
0
LINE
8
BLACK
6
CONTINUOUS
10
5.0439877165354332
20
-2.2628293700787401
11
5.0503387007874014
21
-2.2585857874015747
0
LINE
8
BLACK
6
CONTINUOUS
10
5.0503387007874014
20
-2.2585857874015747
11
5.057469094488189
21
-2.2556322834645668
0
LINE
8
BLACK
6
CONTINUOUS
10
5.057469094488189
20
-2.2556322834645668
11
5.0650387007874018
21
-2.2541265748031494
0
LINE
8
BLACK
6
CONTINUOUS
10
5.0650387007874018
20
-2.2541265748031494
11
5.0727565748031491
21
-2.2541265748031494
0
LINE
8
BLACK
6
CONTINUOUS
10
5.0727565748031491
20
-2.2541265748031494
11
5.0803261811023619
21
-2.2556322834645668
0
LINE
8
BLACK
6
CONTINUOUS
10
5.0803261811023619
20
-2.2556322834645668
11
5.0874565748031495
21
-2.2585857874015747
0
LINE
8
BLACK
6
CONTINUOUS
10
5.0874565748031495
20
-2.2585857874015747
11
5.0938737401574805
21
-2.2628736220472438
0
LINE
8
BLACK
6
CONTINUOUS
10
5.0938737401574805
20
-2.2628736220472438
11
5.0993311023622043
21
-2.2683309842519686
0
LINE
8
BLACK
6
CONTINUOUS
10
5.0993311023622043
20
-2.2683309842519686
11
5.1036189370078739
21
-2.2747481496062991
0
LINE
8
BLACK
6
CONTINUOUS
10
5.1036189370078739
20
-2.2747481496062991
11
5.1065724409448814
21
-2.2818785433070867
0
LINE
8
BLACK
6
CONTINUOUS
10
5.1065724409448814
20
-2.2818785433070867
11
5.1080781496062988
21
-2.2894481496062991
0
LINE
8
BLACK
6
CONTINUOUS
10
5.1080781496062988
20
-2.2894481496062991
11
5.1080781496062988
21
-2.2971660236220472
0
LINE
8
BLACK
6
CONTINUOUS
10
5.1080781496062988
20
-2.2971660236220472
11
5.1065724409448814
21
-2.3047356299212596
0
LINE
8
BLACK
6
CONTINUOUS
10
5.1065724409448814
20
-2.3047356299212596
11
5.1036189370078739
21
-2.3118660236220472
0
LINE
8
BLACK
6
CONTINUOUS
10
5.1036189370078739
20
-2.3118660236220472
11
5.0993311023622043
21
-2.3182831889763778
0
LINE
8
BLACK
6
CONTINUOUS
10
5.0993311023622043
20
-2.3182831889763778
11
5.0938737401574805
21
-2.3237405511811025
0
LINE
8
BLACK
6
CONTINUOUS
10
5.0938737401574805
20
-2.3237405511811025
11
5.0874565748031495
21
-2.3280283858267716
0
LINE
8
BLACK
6
CONTINUOUS
10
5.0874565748031495
20
-2.3280283858267716
11
5.0803261811023619
21
-2.3309818897637795
0
LINE
8
BLACK
6
CONTINUOUS
10
5.0803261811023619
20
-2.3309818897637795
11
5.0727565748031491
21
-2.3324875984251969
0
LINE
8
BLACK
6
CONTINUOUS
10
5.0727565748031491
20
-2.3324875984251969
11
5.0650387007874018
21
-2.3324875984251969
0
LINE
8
BLACK
6
CONTINUOUS
10
5.0650387007874018
20
-2.3324875984251969
11
5.057469094488189
21
-2.3309818897637795
0
LINE
8
BLACK
6
CONTINUOUS
10
5.057469094488189
20
-2.3309818897637795
11
5.0503387007874014
21
-2.3280283858267716
0
LINE
8
BLACK
6
CONTINUOUS
10
5.0503387007874014
20
-2.3280283858267716
11
5.0439215354330704
21
-2.3237405511811025
0
LINE
8
BLACK
6
CONTINUOUS
10
5.0439215354330704
20
-2.3237405511811025
11
5.0384641732283466
21
-2.3182831889763778
0
LINE
8
BLACK
6
CONTINUOUS
10
5.0384641732283466
20
-2.3182831889763778
11
5.034176338582677
21
-2.3118660236220472
0
LINE
8
BLACK
6
CONTINUOUS
10
5.034176338582677
20
-2.3118660236220472
11
5.0312228346456696
21
-2.3047356299212596
0
LINE
8
BLACK
6
CONTINUOUS
10
5.0312228346456696
20
-2.3047356299212596
11
5.0297171259842521
21
-2.2971660236220472
0
LINE
8
BLACK
6
CONTINUOUS
10
5.0297171259842521
20
-2.2971660236220472
11
5.0297171259842521
21
-2.2894481496062991
0
LINE
8
BLACK
6
CONTINUOUS
10
5.0297171259842521
20
-2.2894481496062991
11
5.0312228346456696
21
-2.2818785433070867
0
LINE
8
BLACK
6
CONTINUOUS
10
5.0312228346456696
20
-2.2818785433070867
11
5.034176338582677
21
-2.2747481496062991
0
LINE
8
BLACK
6
CONTINUOUS
10
5.034176338582677
20
-2.2747481496062991
11
5.0384199212598428
21
-2.2683971653543304
0
LINE
8
BLACK
6
CONTINUOUS
10
5.0384199212598428
20
-2.2683971653543304
11
4.91847594488189
21
-2.148453188976378
0
LINE
8
BLACK
6
CONTINUOUS
10
4.91847594488189
20
-2.148453188976378
11
4.9179863385826774
21
-2.1478565748031495
0
LINE
8
BLACK
6
CONTINUOUS
10
4.9179863385826774
20
-2.1478565748031495
11
4.9173984645669293
21
-2.1464373622047241
0
LINE
8
BLACK
6
CONTINUOUS
10
4.9173984645669293
20
-2.1464373622047241
11
4.9173228346456694
21
-2.1456692913385824
0
LINE
8
BLACK
6
CONTINUOUS
10
4.9173228346456694
20
-2.1456692913385824
11
4.9173228346456694
21
-2.0933800787401573
0
LINE
8
BLACK
6
CONTINUOUS
10
4.9173228346456694
20
-2.0933800787401573
11
4.9121170078740155
21
-2.0923445669291336
0
LINE
8
BLACK
6
CONTINUOUS
10
4.9121170078740155
20
-2.0923445669291336
11
4.9064127165354332
21
-2.0899817716535432
0
LINE
8
BLACK
6
CONTINUOUS
10
4.9064127165354332
20
-2.0899817716535432
11
4.9012789370078735
21
-2.0865514960629921
0
LINE
8
BLACK
6
CONTINUOUS
10
4.9012789370078735
20
-2.0865514960629921
11
4.8969130708661419
21
-2.08218562992126
0
LINE
8
BLACK
6
CONTINUOUS
10
4.8969130708661419
20
-2.08218562992126
11
4.8934827952755908
21
-2.0770518503937008
0
LINE
8
BLACK
6
CONTINUOUS
10
4.8934827952755908
20
-2.0770518503937008
11
4.8911199999999999
21
-2.071347559055118
0
LINE
8
BLACK
6
CONTINUOUS
10
4.8911199999999999
20
-2.071347559055118
11
4.8899154330708656
21
-2.0652918897637793
0
LINE
8
BLACK
6
CONTINUOUS
10
4.8899154330708656
20
-2.0652918897637793
11
4.8899154330708656
21
-2.0591175590551183
0
LINE
8
BLACK
6
CONTINUOUS
10
4.8899154330708656
20
-2.0591175590551183
11
4.8911199999999999
21
-2.0530618897637796
0
LINE
8
BLACK
6
CONTINUOUS
10
4.8911199999999999
20
-2.0530618897637796
11
4.8934827952755908
21
-2.0473575984251968
0
LINE
8
BLACK
6
CONTINUOUS
10
4.8934827952755908
20
-2.0473575984251968
11
4.8969130708661419
21
-2.0422238188976376
0
LINE
8
BLACK
6
CONTINUOUS
10
4.8969130708661419
20
-2.0422238188976376
11
4.9012789370078735
21
-2.0378579527559055
0
LINE
8
BLACK
6
CONTINUOUS
10
4.9012789370078735
20
-2.0378579527559055
11
4.9064127165354332
21
-2.0344276771653544
0
LINE
8
BLACK
6
CONTINUOUS
10
4.9064127165354332
20
-2.0344276771653544
11
4.9121170078740155
21
-2.0320648818897635
0
LINE
8
BLACK
6
CONTINUOUS
10
4.9121170078740155
20
-2.0320648818897635
11
4.9181726771653542
21
-2.0308603149606297
0
LINE
8
BLACK
6
CONTINUOUS
10
4.9181726771653542
20
-2.0308603149606297
11
4.9243470078740152
21
-2.0308603149606297
0
LINE
8
BLACK
6
CONTINUOUS
10
4.9243470078740152
20
-2.0308603149606297
11
4.930402677165354
21
-2.0320648818897635
0
LINE
8
BLACK
6
CONTINUOUS
10
5.3362316929133859
20
-2.2556322834645668
11
5.3433620866141727
21
-2.2585857874015747
0
LINE
8
BLACK
6
CONTINUOUS
10
5.3433620866141727
20
-2.2585857874015747
11
5.3497792519685037
21
-2.2628736220472438
0
LINE
8
BLACK
6
CONTINUOUS
10
5.3497792519685037
20
-2.2628736220472438
11
5.3552366141732284
21
-2.2683309842519686
0
LINE
8
BLACK
6
CONTINUOUS
10
5.3552366141732284
20
-2.2683309842519686
11
5.3595244488188971
21
-2.2747481496062991
0
LINE
8
BLACK
6
CONTINUOUS
10
5.3595244488188971
20
-2.2747481496062991
11
5.3624779527559054
21
-2.2818785433070867
0
LINE
8
BLACK
6
CONTINUOUS
10
5.3624779527559054
20
-2.2818785433070867
11
5.3639836614173229
21
-2.2894481496062991
0
LINE
8
BLACK
6
CONTINUOUS
10
5.3639836614173229
20
-2.2894481496062991
11
5.3639836614173229
21
-2.2971660236220472
0
LINE
8
BLACK
6
CONTINUOUS
10
5.3639836614173229
20
-2.2971660236220472
11
5.3624779527559054
21
-2.3047356299212596
0
LINE
8
BLACK
6
CONTINUOUS
10
5.3624779527559054
20
-2.3047356299212596
11
5.3595244488188971
21
-2.3118660236220472
0
LINE
8
BLACK
6
CONTINUOUS
10
5.3595244488188971
20
-2.3118660236220472
11
5.3552366141732284
21
-2.3182831889763778
0
LINE
8
BLACK
6
CONTINUOUS
10
5.3552366141732284
20
-2.3182831889763778
11
5.3497792519685037
21
-2.3237405511811025
0
LINE
8
BLACK
6
CONTINUOUS
10
5.3497792519685037
20
-2.3237405511811025
11
5.3433620866141727
21
-2.3280283858267716
0
LINE
8
BLACK
6
CONTINUOUS
10
5.3433620866141727
20
-2.3280283858267716
11
5.3362316929133859
21
-2.3309818897637795
0
LINE
8
BLACK
6
CONTINUOUS
10
5.3362316929133859
20
-2.3309818897637795
11
5.3286620866141732
21
-2.3324875984251969
0
LINE
8
BLACK
6
CONTINUOUS
10
5.3286620866141732
20
-2.3324875984251969
11
5.320944212598425
21
-2.3324875984251969
0
LINE
8
BLACK
6
CONTINUOUS
10
5.320944212598425
20
-2.3324875984251969
11
5.3133746062992122
21
-2.3309818897637795
0
LINE
8
BLACK
6
CONTINUOUS
10
5.3133746062992122
20
-2.3309818897637795
11
5.3062442125984255
21
-2.3280283858267716
0
LINE
8
BLACK
6
CONTINUOUS
10
5.3062442125984255
20
-2.3280283858267716
11
5.2998270472440945
21
-2.3237405511811025
0
LINE
8
BLACK
6
CONTINUOUS
10
5.2998270472440945
20
-2.3237405511811025
11
5.2943696850393698
21
-2.3182831889763778
0
LINE
8
BLACK
6
CONTINUOUS
10
5.2943696850393698
20
-2.3182831889763778
11
5.290081850393701
21
-2.3118660236220472
0
LINE
8
BLACK
6
CONTINUOUS
10
5.290081850393701
20
-2.3118660236220472
11
5.2871283464566927
21
-2.3047356299212596
0
LINE
8
BLACK
6
CONTINUOUS
10
5.2871283464566927
20
-2.3047356299212596
11
5.2856226377952753
21
-2.2971660236220472
0
LINE
8
BLACK
6
CONTINUOUS
10
5.2856226377952753
20
-2.2971660236220472
11
5.2856226377952753
21
-2.2894481496062991
0
LINE
8
BLACK
6
CONTINUOUS
10
5.2856226377952753
20
-2.2894481496062991
11
5.2871283464566927
21
-2.2818785433070867
0
LINE
8
BLACK
6
CONTINUOUS
10
5.2871283464566927
20
-2.2818785433070867
11
5.290081850393701
21
-2.2747481496062991
0
LINE
8
BLACK
6
CONTINUOUS
10
5.290081850393701
20
-2.2747481496062991
11
5.2943696850393698
21
-2.2683309842519686
0
LINE
8
BLACK
6
CONTINUOUS
10
5.2943696850393698
20
-2.2683309842519686
11
5.2998270472440945
21
-2.2628736220472438
0
LINE
8
BLACK
6
CONTINUOUS
10
5.2998270472440945
20
-2.2628736220472438
11
5.3062442125984255
21
-2.2585857874015747
0
LINE
8
BLACK
6
CONTINUOUS
10
5.3062442125984255
20
-2.2585857874015747
11
5.3133746062992122
21
-2.2556322834645668
0
LINE
8
BLACK
6
CONTINUOUS
10
5.3133746062992122
20
-2.2556322834645668
11
5.320944212598425
21
-2.2541265748031494
0
LINE
8
BLACK
6
CONTINUOUS
10
5.320944212598425
20
-2.2541265748031494
11
5.3286620866141732
21
-2.2541265748031494
0
LINE
8
BLACK
6
CONTINUOUS
10
5.3286620866141732
20
-2.2541265748031494
11
5.3362316929133859
21
-2.2556322834645668
0
LINE
8
BLACK
6
CONTINUOUS
10
5.5012688188976373
20
-2.0320648818897635
11
5.5069731102362205
21
-2.0344276771653544
0
LINE
8
BLACK
6
CONTINUOUS
10
5.5069731102362205
20
-2.0344276771653544
11
5.5121068897637793
21
-2.0378579527559055
0
LINE
8
BLACK
6
CONTINUOUS
10
5.5121068897637793
20
-2.0378579527559055
11
5.5164727559055118
21
-2.0422238188976376
0
LINE
8
BLACK
6
CONTINUOUS
10
5.5164727559055118
20
-2.0422238188976376
11
5.5199030314960629
21
-2.0473575984251968
0
LINE
8
BLACK
6
CONTINUOUS
10
5.5199030314960629
20
-2.0473575984251968
11
5.5222658267716538
21
-2.0530618897637796
0
LINE
8
BLACK
6
CONTINUOUS
10
5.5222658267716538
20
-2.0530618897637796
11
5.5234703937007872
21
-2.0591175590551183
0
LINE
8
BLACK
6
CONTINUOUS
10
5.5234703937007872
20
-2.0591175590551183
11
5.5234703937007872
21
-2.0652918897637793
0
LINE
8
BLACK
6
CONTINUOUS
10
5.5234703937007872
20
-2.0652918897637793
11
5.5222658267716538
21
-2.071347559055118
0
LINE
8
BLACK
6
CONTINUOUS
10
5.5222658267716538
20
-2.071347559055118
11
5.5199030314960629
21
-2.0770518503937008
0
LINE
8
BLACK
6
CONTINUOUS
10
5.5199030314960629
20
-2.0770518503937008
11
5.5164727559055118
21
-2.08218562992126
0
LINE
8
BLACK
6
CONTINUOUS
10
5.5164727559055118
20
-2.08218562992126
11
5.5121068897637793
21
-2.0865514960629921
0
LINE
8
BLACK
6
CONTINUOUS
10
5.5121068897637793
20
-2.0865514960629921
11
5.5069731102362205
21
-2.0899817716535432
0
LINE
8
BLACK
6
CONTINUOUS
10
5.5069731102362205
20
-2.0899817716535432
11
5.5012688188976373
21
-2.0923445669291336
0
LINE
8
BLACK
6
CONTINUOUS
10
5.5012688188976373
20
-2.0923445669291336
11
5.4960629921259843
21
-2.0933800787401573
0
LINE
8
BLACK
6
CONTINUOUS
10
5.4960629921259843
20
-2.0933800787401573
11
5.4960629921259843
21
-2.1440385039370078
0
LINE
8
BLACK
6
CONTINUOUS
10
5.4960629921259843
20
-2.1440385039370078
11
5.6148538582677165
21
-2.2628293700787401
0
LINE
8
BLACK
6
CONTINUOUS
10
5.6148538582677165
20
-2.2628293700787401
11
5.6212048425196848
21
-2.2585857874015747
0
LINE
8
BLACK
6
CONTINUOUS
10
5.6212048425196848
20
-2.2585857874015747
11
5.6283352362204724
21
-2.2556322834645668
0
LINE
8
BLACK
6
CONTINUOUS
10
5.6283352362204724
20
-2.2556322834645668
11
5.6359048425196852
21
-2.2541265748031494
0
LINE
8
BLACK
6
CONTINUOUS
10
5.6359048425196852
20
-2.2541265748031494
11
5.6436227165354333
21
-2.2541265748031494
0
LINE
8
BLACK
6
CONTINUOUS
10
5.6436227165354333
20
-2.2541265748031494
11
5.6511923228346452
21
-2.2556322834645668
0
LINE
8
BLACK
6
CONTINUOUS
10
5.6511923228346452
20
-2.2556322834645668
11
5.6583227165354328
21
-2.2585857874015747
0
LINE
8
BLACK
6
CONTINUOUS
10
5.6583227165354328
20
-2.2585857874015747
11
5.6647398818897639
21
-2.2628736220472438
0
LINE
8
BLACK
6
CONTINUOUS
10
5.6647398818897639
20
-2.2628736220472438
11
5.6701972440944877
21
-2.2683309842519686
0
LINE
8
BLACK
6
CONTINUOUS
10
5.6701972440944877
20
-2.2683309842519686
11
5.6744850787401573
21
-2.2747481496062991
0
LINE
8
BLACK
6
CONTINUOUS
10
5.6744850787401573
20
-2.2747481496062991
11
5.6774385826771656
21
-2.2818785433070867
0
LINE
8
BLACK
6
CONTINUOUS
10
5.6774385826771656
20
-2.2818785433070867
11
5.6789442913385821
21
-2.2894481496062991
0
LINE
8
BLACK
6
CONTINUOUS
10
5.6789442913385821
20
-2.2894481496062991
11
5.6789442913385821
21
-2.2971660236220472
0
LINE
8
BLACK
6
CONTINUOUS
10
5.6789442913385821
20
-2.2971660236220472
11
5.6774385826771656
21
-2.3047356299212596
0
LINE
8
BLACK
6
CONTINUOUS
10
5.6774385826771656
20
-2.3047356299212596
11
5.6744850787401573
21
-2.3118660236220472
0
LINE
8
BLACK
6
CONTINUOUS
10
5.6744850787401573
20
-2.3118660236220472
11
5.6701972440944877
21
-2.3182831889763778
0
LINE
8
BLACK
6
CONTINUOUS
10
5.6701972440944877
20
-2.3182831889763778
11
5.6647398818897639
21
-2.3237405511811025
0
LINE
8
BLACK
6
CONTINUOUS
10
5.6647398818897639
20
-2.3237405511811025
11
5.6583227165354328
21
-2.3280283858267716
0
LINE
8
BLACK
6
CONTINUOUS
10
5.6583227165354328
20
-2.3280283858267716
11
5.6511923228346452
21
-2.3309818897637795
0
LINE
8
BLACK
6
CONTINUOUS
10
5.6511923228346452
20
-2.3309818897637795
11
5.6436227165354333
21
-2.3324875984251969
0
LINE
8
BLACK
6
CONTINUOUS
10
5.6436227165354333
20
-2.3324875984251969
11
5.6359048425196852
21
-2.3324875984251969
0
LINE
8
BLACK
6
CONTINUOUS
10
5.6359048425196852
20
-2.3324875984251969
11
5.6283352362204724
21
-2.3309818897637795
0
LINE
8
BLACK
6
CONTINUOUS
10
5.6283352362204724
20
-2.3309818897637795
11
5.6212048425196848
21
-2.3280283858267716
0
LINE
8
BLACK
6
CONTINUOUS
10
5.6212048425196848
20
-2.3280283858267716
11
5.6147876771653538
21
-2.3237405511811025
0
LINE
8
BLACK
6
CONTINUOUS
10
5.6147876771653538
20
-2.3237405511811025
11
5.6093303149606299
21
-2.3182831889763778
0
LINE
8
BLACK
6
CONTINUOUS
10
5.6093303149606299
20
-2.3182831889763778
11
5.6050424803149603
21
-2.3118660236220472
0
LINE
8
BLACK
6
CONTINUOUS
10
5.6050424803149603
20
-2.3118660236220472
11
5.6020889763779529
21
-2.3047356299212596
0
LINE
8
BLACK
6
CONTINUOUS
10
5.6020889763779529
20
-2.3047356299212596
11
5.6005832677165355
21
-2.2971660236220472
0
LINE
8
BLACK
6
CONTINUOUS
10
5.6005832677165355
20
-2.2971660236220472
11
5.6005832677165355
21
-2.2894481496062991
0
LINE
8
BLACK
6
CONTINUOUS
10
5.6005832677165355
20
-2.2894481496062991
11
5.6020889763779529
21
-2.2818785433070867
0
LINE
8
BLACK
6
CONTINUOUS
10
5.6020889763779529
20
-2.2818785433070867
11
5.6050424803149603
21
-2.2747481496062991
0
LINE
8
BLACK
6
CONTINUOUS
10
5.6050424803149603
20
-2.2747481496062991
11
5.6092860629921262
21
-2.2683971653543304
0
LINE
8
BLACK
6
CONTINUOUS
10
5.6092860629921262
20
-2.2683971653543304
11
5.4893420866141733
21
-2.148453188976378
0
LINE
8
BLACK
6
CONTINUOUS
10
5.4893420866141733
20
-2.148453188976378
11
5.4888524803149608
21
-2.1478565748031495
0
LINE
8
BLACK
6
CONTINUOUS
10
5.4888524803149608
20
-2.1478565748031495
11
5.4882646062992126
21
-2.1464373622047241
0
LINE
8
BLACK
6
CONTINUOUS
10
5.4882646062992126
20
-2.1464373622047241
11
5.4881889763779528
21
-2.1456692913385824
0
LINE
8
BLACK
6
CONTINUOUS
10
5.4881889763779528
20
-2.1456692913385824
11
5.4881889763779528
21
-2.0933800787401573
0
LINE
8
BLACK
6
CONTINUOUS
10
5.4881889763779528
20
-2.0933800787401573
11
5.4829831496062988
21
-2.0923445669291336
0
LINE
8
BLACK
6
CONTINUOUS
10
5.4829831496062988
20
-2.0923445669291336
11
5.4772788582677165
21
-2.0899817716535432
0
LINE
8
BLACK
6
CONTINUOUS
10
5.4772788582677165
20
-2.0899817716535432
11
5.4721450787401578
21
-2.0865514960629921
0
LINE
8
BLACK
6
CONTINUOUS
10
5.4721450787401578
20
-2.0865514960629921
11
5.4677792125984253
21
-2.08218562992126
0
LINE
8
BLACK
6
CONTINUOUS
10
5.4677792125984253
20
-2.08218562992126
11
5.4643489370078742
21
-2.0770518503937008
0
LINE
8
BLACK
6
CONTINUOUS
10
5.4643489370078742
20
-2.0770518503937008
11
5.4619861417322833
21
-2.071347559055118
0
LINE
8
BLACK
6
CONTINUOUS
10
5.4619861417322833
20
-2.071347559055118
11
5.4607815748031499
21
-2.0652918897637793
0
LINE
8
BLACK
6
CONTINUOUS
10
5.4607815748031499
20
-2.0652918897637793
11
5.4607815748031499
21
-2.0591175590551183
0
LINE
8
BLACK
6
CONTINUOUS
10
5.4607815748031499
20
-2.0591175590551183
11
5.4619861417322833
21
-2.0530618897637796
0
LINE
8
BLACK
6
CONTINUOUS
10
5.4619861417322833
20
-2.0530618897637796
11
5.4643489370078742
21
-2.0473575984251968
0
LINE
8
BLACK
6
CONTINUOUS
10
5.4643489370078742
20
-2.0473575984251968
11
5.4677792125984253
21
-2.0422238188976376
0
LINE
8
BLACK
6
CONTINUOUS
10
5.4677792125984253
20
-2.0422238188976376
11
5.4721450787401578
21
-2.0378579527559055
0
LINE
8
BLACK
6
CONTINUOUS
10
5.4721450787401578
20
-2.0378579527559055
11
5.4772788582677165
21
-2.0344276771653544
0
LINE
8
BLACK
6
CONTINUOUS
10
5.4772788582677165
20
-2.0344276771653544
11
5.4829831496062988
21
-2.0320648818897635
0
LINE
8
BLACK
6
CONTINUOUS
10
5.4829831496062988
20
-2.0320648818897635
11
5.4890388188976376
21
-2.0308603149606297
0
LINE
8
BLACK
6
CONTINUOUS
10
5.4890388188976376
20
-2.0308603149606297
11
5.4952131496062995
21
-2.0308603149606297
0
LINE
8
BLACK
6
CONTINUOUS
10
5.4952131496062995
20
-2.0308603149606297
11
5.5012688188976373
21
-2.0320648818897635
0
LINE
8
BLACK
6
CONTINUOUS
10
5.9070978346456693
20
-2.2556322834645668
11
5.9142282283464569
21
-2.2585857874015747
0
LINE
8
BLACK
6
CONTINUOUS
10
5.9142282283464569
20
-2.2585857874015747
11
5.920645393700787
21
-2.2628736220472438
0
LINE
8
BLACK
6
CONTINUOUS
10
5.920645393700787
20
-2.2628736220472438
11
5.9261027559055117
21
-2.2683309842519686
0
LINE
8
BLACK
6
CONTINUOUS
10
5.9261027559055117
20
-2.2683309842519686
11
5.9303905905511813
21
-2.2747481496062991
0
LINE
8
BLACK
6
CONTINUOUS
10
5.9303905905511813
20
-2.2747481496062991
11
5.9333440944881888
21
-2.2818785433070867
0
LINE
8
BLACK
6
CONTINUOUS
10
5.9333440944881888
20
-2.2818785433070867
11
5.9348498031496062
21
-2.2894481496062991
0
LINE
8
BLACK
6
CONTINUOUS
10
5.9348498031496062
20
-2.2894481496062991
11
5.9348498031496062
21
-2.2971660236220472
0
LINE
8
BLACK
6
CONTINUOUS
10
5.9348498031496062
20
-2.2971660236220472
11
5.9333440944881888
21
-2.3047356299212596
0
LINE
8
BLACK
6
CONTINUOUS
10
5.9333440944881888
20
-2.3047356299212596
11
5.9303905905511813
21
-2.3118660236220472
0
LINE
8
BLACK
6
CONTINUOUS
10
5.9303905905511813
20
-2.3118660236220472
11
5.9261027559055117
21
-2.3182831889763778
0
LINE
8
BLACK
6
CONTINUOUS
10
5.9261027559055117
20
-2.3182831889763778
11
5.920645393700787
21
-2.3237405511811025
0
LINE
8
BLACK
6
CONTINUOUS
10
5.920645393700787
20
-2.3237405511811025
11
5.9142282283464569
21
-2.3280283858267716
0
LINE
8
BLACK
6
CONTINUOUS
10
5.9142282283464569
20
-2.3280283858267716
11
5.9070978346456693
21
-2.3309818897637795
0
LINE
8
BLACK
6
CONTINUOUS
10
5.9070978346456693
20
-2.3309818897637795
11
5.8995282283464565
21
-2.3324875984251969
0
LINE
8
BLACK
6
CONTINUOUS
10
5.8995282283464565
20
-2.3324875984251969
11
5.8918103543307083
21
-2.3324875984251969
0
LINE
8
BLACK
6
CONTINUOUS
10
5.8918103543307083
20
-2.3324875984251969
11
5.8842407480314955
21
-2.3309818897637795
0
LINE
8
BLACK
6
CONTINUOUS
10
5.8842407480314955
20
-2.3309818897637795
11
5.8771103543307088
21
-2.3280283858267716
0
LINE
8
BLACK
6
CONTINUOUS
10
5.8771103543307088
20
-2.3280283858267716
11
5.8706931889763778
21
-2.3237405511811025
0
LINE
8
BLACK
6
CONTINUOUS
10
5.8706931889763778
20
-2.3237405511811025
11
5.8652358267716531
21
-2.3182831889763778
0
LINE
8
BLACK
6
CONTINUOUS
10
5.8652358267716531
20
-2.3182831889763778
11
5.8609479921259844
21
-2.3118660236220472
0
LINE
8
BLACK
6
CONTINUOUS
10
5.8609479921259844
20
-2.3118660236220472
11
5.8579944881889761
21
-2.3047356299212596
0
LINE
8
BLACK
6
CONTINUOUS
10
5.8579944881889761
20
-2.3047356299212596
11
5.8564887795275586
21
-2.2971660236220472
0
LINE
8
BLACK
6
CONTINUOUS
10
5.8564887795275586
20
-2.2971660236220472
11
5.8564887795275586
21
-2.2894481496062991
0
LINE
8
BLACK
6
CONTINUOUS
10
5.8564887795275586
20
-2.2894481496062991
11
5.8579944881889761
21
-2.2818785433070867
0
LINE
8
BLACK
6
CONTINUOUS
10
5.8579944881889761
20
-2.2818785433070867
11
5.8609479921259844
21
-2.2747481496062991
0
LINE
8
BLACK
6
CONTINUOUS
10
5.8609479921259844
20
-2.2747481496062991
11
5.8652358267716531
21
-2.2683309842519686
0
LINE
8
BLACK
6
CONTINUOUS
10
5.8652358267716531
20
-2.2683309842519686
11
5.8706931889763778
21
-2.2628736220472438
0
LINE
8
BLACK
6
CONTINUOUS
10
5.8706931889763778
20
-2.2628736220472438
11
5.8771103543307088
21
-2.2585857874015747
0
LINE
8
BLACK
6
CONTINUOUS
10
5.8771103543307088
20
-2.2585857874015747
11
5.8842407480314955
21
-2.2556322834645668
0
LINE
8
BLACK
6
CONTINUOUS
10
5.8842407480314955
20
-2.2556322834645668
11
5.8918103543307083
21
-2.2541265748031494
0
LINE
8
BLACK
6
CONTINUOUS
10
5.8918103543307083
20
-2.2541265748031494
11
5.8995282283464565
21
-2.2541265748031494
0
LINE
8
BLACK
6
CONTINUOUS
10
5.8995282283464565
20
-2.2541265748031494
11
5.9070978346456693
21
-2.2556322834645668
0
LINE
8
BLACK
6
CONTINUOUS
10
2.1501891732283465
20
-1.8591667716535432
11
2.15285937007874
21
-1.8607084251968504
0
LINE
8
BLACK
6
CONTINUOUS
10
2.15285937007874
20
-1.8607084251968504
11
2.1550396062992125
21
-1.8628886614173228
0
LINE
8
BLACK
6
CONTINUOUS
10
2.1550396062992125
20
-1.8628886614173228
11
2.1565812598425196
21
-1.8655588582677165
0
LINE
8
BLACK
6
CONTINUOUS
10
2.1565812598425196
20
-1.8655588582677165
11
2.157379251968504
21
-1.8685370866141733
0
LINE
8
BLACK
6
CONTINUOUS
10
2.157379251968504
20
-1.8685370866141733
11
2.157379251968504
21
-1.8716203937007874
0
LINE
8
BLACK
6
CONTINUOUS
10
2.157379251968504
20
-1.8716203937007874
11
2.1565812598425196
21
-1.8745986220472441
0
LINE
8
BLACK
6
CONTINUOUS
10
2.1565812598425196
20
-1.8745986220472441
11
2.1550396062992125
21
-1.8772688188976379
0
LINE
8
BLACK
6
CONTINUOUS
10
2.1550396062992125
20
-1.8772688188976379
11
2.15285937007874
21
-1.8794490551181102
0
LINE
8
BLACK
6
CONTINUOUS
10
2.15285937007874
20
-1.8794490551181102
11
2.1501891732283465
21
-1.8809907086614173
0
LINE
8
BLACK
6
CONTINUOUS
10
2.1501891732283465
20
-1.8809907086614173
11
2.1496062992125982
21
-1.8811468503937008
0
LINE
8
BLACK
6
CONTINUOUS
10
2.1496062992125982
20
-1.8811468503937008
11
2.1496062992125982
21
-1.9248031496062992
0
LINE
8
BLACK
6
CONTINUOUS
10
2.1496062992125982
20
-1.9248031496062992
11
2.1495306692913387
21
-1.9255712204724409
0
LINE
8
BLACK
6
CONTINUOUS
10
2.1495306692913387
20
-1.9255712204724409
11
2.1489427952755906
21
-1.926990433070866
0
LINE
8
BLACK
6
CONTINUOUS
10
2.1489427952755906
20
-1.926990433070866
11
2.148453188976378
21
-1.9275870078740156
0
LINE
8
BLACK
6
CONTINUOUS
10
2.148453188976378
20
-1.9275870078740156
11
1.8780466141732284
21
-2.1979935826771655
0
LINE
8
BLACK
6
CONTINUOUS
10
1.8780466141732284
20
-2.1979935826771655
11
1.881642874015748
21
-2.2033757086614174
0
LINE
8
BLACK
6
CONTINUOUS
10
1.881642874015748
20
-2.2033757086614174
11
1.8843010236220472
21
-2.2097930708661417
0
LINE
8
BLACK
6
CONTINUOUS
10
1.8843010236220472
20
-2.2097930708661417
11
1.8856561417322835
21
-2.2166057086614175
0
LINE
8
BLACK
6
CONTINUOUS
10
1.8856561417322835
20
-2.2166057086614175
11
1.8856561417322835
21
-2.2235517716535433
0
LINE
8
BLACK
6
CONTINUOUS
10
1.8856561417322835
20
-2.2235517716535433
11
1.8843010236220472
21
-2.2303644094488186
0
LINE
8
BLACK
6
CONTINUOUS
10
1.8843010236220472
20
-2.2303644094488186
11
1.881642874015748
21
-2.2367817716535434
0
LINE
8
BLACK
6
CONTINUOUS
10
1.881642874015748
20
-2.2367817716535434
11
1.8777838188976377
21
-2.2425572440944883
0
LINE
8
BLACK
6
CONTINUOUS
10
1.8777838188976377
20
-2.2425572440944883
11
1.8728722047244093
21
-2.2474688582677165
0
LINE
8
BLACK
6
CONTINUOUS
10
1.8728722047244093
20
-2.2474688582677165
11
1.8670967322834646
21
-2.2513279133858268
0
LINE
8
BLACK
6
CONTINUOUS
10
1.8670967322834646
20
-2.2513279133858268
11
1.8606793700787401
21
-2.253986062992126
0
LINE
8
BLACK
6
CONTINUOUS
10
1.8606793700787401
20
-2.253986062992126
11
1.8538667322834645
21
-2.255341181102362
0
LINE
8
BLACK
6
CONTINUOUS
10
1.8538667322834645
20
-2.255341181102362
11
1.8469206692913385
21
-2.255341181102362
0
LINE
8
BLACK
6
CONTINUOUS
10
1.8469206692913385
20
-2.255341181102362
11
1.8401080314960629
21
-2.253986062992126
0
LINE
8
BLACK
6
CONTINUOUS
10
1.8401080314960629
20
-2.253986062992126
11
1.8336906692913386
21
-2.2513279133858268
0
LINE
8
BLACK
6
CONTINUOUS
10
1.8336906692913386
20
-2.2513279133858268
11
1.8279151968503937
21
-2.2474688582677165
0
LINE
8
BLACK
6
CONTINUOUS
10
1.8279151968503937
20
-2.2474688582677165
11
1.8230035826771653
21
-2.2425572440944883
0
LINE
8
BLACK
6
CONTINUOUS
10
1.8230035826771653
20
-2.2425572440944883
11
1.819144527559055
21
-2.2367817716535434
0
LINE
8
BLACK
6
CONTINUOUS
10
1.819144527559055
20
-2.2367817716535434
11
1.8164863779527558
21
-2.2303644094488186
0
LINE
8
BLACK
6
CONTINUOUS
10
1.8164863779527558
20
-2.2303644094488186
11
1.8151312598425196
21
-2.2235517716535433
0
LINE
8
BLACK
6
CONTINUOUS
10
1.8151312598425196
20
-2.2235517716535433
11
1.8151312598425196
21
-2.2166057086614175
0
LINE
8
BLACK
6
CONTINUOUS
10
1.8151312598425196
20
-2.2166057086614175
11
1.8164863779527558
21
-2.2097930708661417
0
LINE
8
BLACK
6
CONTINUOUS
10
1.8164863779527558
20
-2.2097930708661417
11
1.819144527559055
21
-2.2033757086614174
0
LINE
8
BLACK
6
CONTINUOUS
10
1.819144527559055
20
-2.2033757086614174
11
1.8230035826771653
21
-2.1976002362204725
0
LINE
8
BLACK
6
CONTINUOUS
10
1.8230035826771653
20
-2.1976002362204725
11
1.8279151968503937
21
-2.1926886220472439
0
LINE
8
BLACK
6
CONTINUOUS
10
1.8279151968503937
20
-2.1926886220472439
11
1.8336906692913386
21
-2.188829566929134
0
LINE
8
BLACK
6
CONTINUOUS
10
1.8336906692913386
20
-2.188829566929134
11
1.8401080314960629
21
-2.1861714173228344
0
LINE
8
BLACK
6
CONTINUOUS
10
1.8401080314960629
20
-2.1861714173228344
11
1.8469206692913385
21
-2.1848162992125983
0
LINE
8
BLACK
6
CONTINUOUS
10
1.8469206692913385
20
-2.1848162992125983
11
1.8538667322834645
21
-2.1848162992125983
0
LINE
8
BLACK
6
CONTINUOUS
10
1.8538667322834645
20
-2.1848162992125983
11
1.8606793700787401
21
-2.1861714173228344
0
LINE
8
BLACK
6
CONTINUOUS
10
1.8606793700787401
20
-2.1861714173228344
11
1.8670967322834646
21
-2.188829566929134
0
LINE
8
BLACK
6
CONTINUOUS
10
1.8670967322834646
20
-2.188829566929134
11
1.8724788188976378
21
-2.1924257874015747
0
LINE
8
BLACK
6
CONTINUOUS
10
1.8724788188976378
20
-2.1924257874015747
11
2.1417322834645667
21
-1.9231723622047243
0
LINE
8
BLACK
6
CONTINUOUS
10
2.1417322834645667
20
-1.9231723622047243
11
2.1417322834645667
21
-1.8811468503937008
0
LINE
8
BLACK
6
CONTINUOUS
10
2.1417322834645667
20
-1.8811468503937008
11
2.1411494094488188
21
-1.8809907086614173
0
LINE
8
BLACK
6
CONTINUOUS
10
2.1411494094488188
20
-1.8809907086614173
11
2.1384792125984253
21
-1.8794490551181102
0
LINE
8
BLACK
6
CONTINUOUS
10
2.1384792125984253
20
-1.8794490551181102
11
2.1362989763779527
21
-1.8772688188976379
0
LINE
8
BLACK
6
CONTINUOUS
10
2.1362989763779527
20
-1.8772688188976379
11
2.1347573228346457
21
-1.8745986220472441
0
LINE
8
BLACK
6
CONTINUOUS
10
2.1347573228346457
20
-1.8745986220472441
11
2.1339593307086613
21
-1.8716203937007874
0
LINE
8
BLACK
6
CONTINUOUS
10
2.1339593307086613
20
-1.8716203937007874
11
2.1339593307086613
21
-1.8685370866141733
0
LINE
8
BLACK
6
CONTINUOUS
10
2.1339593307086613
20
-1.8685370866141733
11
2.1347573228346457
21
-1.8655588582677165
0
LINE
8
BLACK
6
CONTINUOUS
10
2.1347573228346457
20
-1.8655588582677165
11
2.1362989763779527
21
-1.8628886614173228
0
LINE
8
BLACK
6
CONTINUOUS
10
2.1362989763779527
20
-1.8628886614173228
11
2.1384792125984253
21
-1.8607084251968504
0
LINE
8
BLACK
6
CONTINUOUS
10
2.1384792125984253
20
-1.8607084251968504
11
2.1411494094488188
21
-1.8591667716535432
0
LINE
8
BLACK
6
CONTINUOUS
10
2.1411494094488188
20
-1.8591667716535432
11
2.1441276377952754
21
-1.858368779527559
0
LINE
8
BLACK
6
CONTINUOUS
10
2.1441276377952754
20
-1.858368779527559
11
2.1472109448818899
21
-1.858368779527559
0
LINE
8
BLACK
6
CONTINUOUS
10
2.1472109448818899
20
-1.858368779527559
11
2.1501891732283465
21
-1.8591667716535432
0
LINE
8
BLACK
6
CONTINUOUS
10
2.7013702755905511
20
-1.8197966929133857
11
2.704040472440945
21
-1.8213383464566928
0
LINE
8
BLACK
6
CONTINUOUS
10
2.704040472440945
20
-1.8213383464566928
11
2.7062207086614172
21
-1.8235185826771654
0
LINE
8
BLACK
6
CONTINUOUS
10
2.7062207086614172
20
-1.8235185826771654
11
2.7077623622047242
21
-1.8261887795275591
0
LINE
8
BLACK
6
CONTINUOUS
10
2.7077623622047242
20
-1.8261887795275591
11
2.7079185433070867
21
-1.826771653543307
0
LINE
8
BLACK
6
CONTINUOUS
10
2.7079185433070867
20
-1.826771653543307
11
3.181218188976378
21
-1.826771653543307
0
LINE
8
BLACK
6
CONTINUOUS
10
3.181218188976378
20
-1.826771653543307
11
3.1819862598425197
21
-1.8268472834645668
0
LINE
8
BLACK
6
CONTINUOUS
10
3.1819862598425197
20
-1.8268472834645668
11
3.1834054724409446
21
-1.8274351574803149
0
LINE
8
BLACK
6
CONTINUOUS
10
3.1834054724409446
20
-1.8274351574803149
11
3.1840020866141732
21
-1.8279247637795275
0
LINE
8
BLACK
6
CONTINUOUS
10
3.1840020866141732
20
-1.8279247637795275
11
3.5450537795275592
21
-2.188976377952756
0
LINE
8
BLACK
6
CONTINUOUS
10
3.5450537795275592
20
-2.188976377952756
11
4.4481723622047245
21
-2.188976377952756
0
LINE
8
BLACK
6
CONTINUOUS
10
4.4481723622047245
20
-2.188976377952756
11
4.6944001181102362
21
-1.9427485826771653
0
LINE
8
BLACK
6
CONTINUOUS
10
4.6944001181102362
20
-1.9427485826771653
11
4.6917587401574803
21
-1.9381736220472441
0
LINE
8
BLACK
6
CONTINUOUS
10
4.6917587401574803
20
-1.9381736220472441
11
4.6901627165354327
21
-1.9322171653543307
0
LINE
8
BLACK
6
CONTINUOUS
10
4.6901627165354327
20
-1.9322171653543307
11
4.6901627165354327
21
-1.9260505511811024
0
LINE
8
BLACK
6
CONTINUOUS
10
4.6901627165354327
20
-1.9260505511811024
11
4.6917587401574803
21
-1.920094094488189
0
LINE
8
BLACK
6
CONTINUOUS
10
4.6917587401574803
20
-1.920094094488189
11
4.6948420472440944
21
-1.9147536614173228
0
LINE
8
BLACK
6
CONTINUOUS
10
4.6948420472440944
20
-1.9147536614173228
11
4.6992024803149608
21
-1.9103932283464566
0
LINE
8
BLACK
6
CONTINUOUS
10
4.6992024803149608
20
-1.9103932283464566
11
4.7045429133858265
21
-1.9073099212598426
0
LINE
8
BLACK
6
CONTINUOUS
10
4.7045429133858265
20
-1.9073099212598426
11
4.7104993700787396
21
-1.9057138976377952
0
LINE
8
BLACK
6
CONTINUOUS
10
4.7104993700787396
20
-1.9057138976377952
11
4.7135826771653546
21
-1.905511811023622
0
LINE
8
BLACK
6
CONTINUOUS
10
4.7135826771653546
20
-1.905511811023622
11
4.7352362204724407
21
-1.905511811023622
0
LINE
8
BLACK
6
CONTINUOUS
10
4.7352362204724407
20
-1.905511811023622
11
4.7383195275590548
21
-1.9057138976377952
0
LINE
8
BLACK
6
CONTINUOUS
10
4.7383195275590548
20
-1.9057138976377952
11
4.7442759842519688
21
-1.9073099212598426
0
LINE
8
BLACK
6
CONTINUOUS
10
4.7442759842519688
20
-1.9073099212598426
11
4.7496164173228346
21
-1.9103932283464566
0
LINE
8
BLACK
6
CONTINUOUS
10
4.7496164173228346
20
-1.9103932283464566
11
4.753976850393701
21
-1.9147536614173228
0
LINE
8
BLACK
6
CONTINUOUS
10
4.753976850393701
20
-1.9147536614173228
11
4.7570601574803151
21
-1.920094094488189
0
LINE
8
BLACK
6
CONTINUOUS
10
4.7570601574803151
20
-1.920094094488189
11
4.7586561811023618
21
-1.9260505511811024
0
LINE
8
BLACK
6
CONTINUOUS
10
4.7586561811023618
20
-1.9260505511811024
11
4.7586561811023618
21
-1.9322171653543307
0
LINE
8
BLACK
6
CONTINUOUS
10
4.7586561811023618
20
-1.9322171653543307
11
4.7570601574803151
21
-1.9381736220472441
0
LINE
8
BLACK
6
CONTINUOUS
10
4.7570601574803151
20
-1.9381736220472441
11
4.753976850393701
21
-1.9435140551181103
0
LINE
8
BLACK
6
CONTINUOUS
10
4.753976850393701
20
-1.9435140551181103
11
4.7496164173228346
21
-1.9478744881889762
0
LINE
8
BLACK
6
CONTINUOUS
10
4.7496164173228346
20
-1.9478744881889762
11
4.7442759842519688
21
-1.9509577952755905
0
LINE
8
BLACK
6
CONTINUOUS
10
4.7442759842519688
20
-1.9509577952755905
11
4.7383195275590548
21
-1.9525538188976377
0
LINE
8
BLACK
6
CONTINUOUS
10
4.7383195275590548
20
-1.9525538188976377
11
4.7352362204724407
21
-1.9527559055118109
0
LINE
8
BLACK
6
CONTINUOUS
10
4.7352362204724407
20
-1.9527559055118109
11
4.7135826771653546
21
-1.9527559055118109
0
LINE
8
BLACK
6
CONTINUOUS
10
4.7135826771653546
20
-1.9527559055118109
11
4.7104993700787396
21
-1.9525538188976377
0
LINE
8
BLACK
6
CONTINUOUS
10
4.7104993700787396
20
-1.9525538188976377
11
4.7045429133858265
21
-1.9509577952755905
0
LINE
8
BLACK
6
CONTINUOUS
10
4.7045429133858265
20
-1.9509577952755905
11
4.6999679133858265
21
-1.9483163779527559
0
LINE
8
BLACK
6
CONTINUOUS
10
4.6999679133858265
20
-1.9483163779527559
11
4.4525870472440943
21
-2.1956972834645669
0
LINE
8
BLACK
6
CONTINUOUS
10
4.4525870472440943
20
-2.1956972834645669
11
4.4519904330708657
21
-2.1961868897637795
0
LINE
8
BLACK
6
CONTINUOUS
10
4.4519904330708657
20
-2.1961868897637795
11
4.4505712204724412
21
-2.1967747637795276
0
LINE
8
BLACK
6
CONTINUOUS
10
4.4505712204724412
20
-2.1967747637795276
11
4.4498031496062991
21
-2.1968503937007875
0
LINE
8
BLACK
6
CONTINUOUS
10
4.4498031496062991
20
-2.1968503937007875
11
3.5434229921259841
21
-2.1968503937007875
0
LINE
8
BLACK
6
CONTINUOUS
10
3.5434229921259841
20
-2.1968503937007875
11
3.5426549212598424
21
-2.1967747637795276
0
LINE
8
BLACK
6
CONTINUOUS
10
3.5426549212598424
20
-2.1967747637795276
11
3.5416513385826769
21
-2.1963590551181102
0
LINE
8
BLACK
6
CONTINUOUS
10
3.5416513385826769
20
-2.1963590551181102
11
3.5412356692913387
21
-2.1961868897637795
0
LINE
8
BLACK
6
CONTINUOUS
10
3.5412356692913387
20
-2.1961868897637795
11
3.5406390944881889
21
-2.1956972834645669
0
LINE
8
BLACK
6
CONTINUOUS
10
3.5406390944881889
20
-2.1956972834645669
11
3.1795874015748029
21
-1.8346456692913384
0
LINE
8
BLACK
6
CONTINUOUS
10
3.1795874015748029
20
-1.8346456692913384
11
2.7079185433070867
21
-1.8346456692913384
0
LINE
8
BLACK
6
CONTINUOUS
10
2.7079185433070867
20
-1.8346456692913384
11
2.7077623622047242
21
-1.8352285433070865
0
LINE
8
BLACK
6
CONTINUOUS
10
2.7077623622047242
20
-1.8352285433070865
11
2.7062207086614172
21
-1.8378987401574802
0
LINE
8
BLACK
6
CONTINUOUS
10
2.7062207086614172
20
-1.8378987401574802
11
2.704040472440945
21
-1.8400789763779528
0
LINE
8
BLACK
6
CONTINUOUS
10
2.704040472440945
20
-1.8400789763779528
11
2.7013702755905511
21
-1.8416206299212599
0
LINE
8
BLACK
6
CONTINUOUS
10
2.7013702755905511
20
-1.8416206299212599
11
2.6983920472440945
21
-1.842418622047244
0
LINE
8
BLACK
6
CONTINUOUS
10
2.6983920472440945
20
-1.842418622047244
11
2.6953087401574805
21
-1.842418622047244
0
LINE
8
BLACK
6
CONTINUOUS
10
2.6953087401574805
20
-1.842418622047244
11
2.6923305118110235
21
-1.8416206299212599
0
LINE
8
BLACK
6
CONTINUOUS
10
2.6923305118110235
20
-1.8416206299212599
11
2.68966031496063
21
-1.8400789763779528
0
LINE
8
BLACK
6
CONTINUOUS
10
2.68966031496063
20
-1.8400789763779528
11
2.6874800787401574
21
-1.8378987401574802
0
LINE
8
BLACK
6
CONTINUOUS
10
2.6874800787401574
20
-1.8378987401574802
11
2.6859384251968503
21
-1.8352285433070865
0
LINE
8
BLACK
6
CONTINUOUS
10
2.6859384251968503
20
-1.8352285433070865
11
2.6851404330708659
21
-1.83225031496063
0
LINE
8
BLACK
6
CONTINUOUS
10
2.6851404330708659
20
-1.83225031496063
11
2.6851404330708659
21
-1.8291670078740156
0
LINE
8
BLACK
6
CONTINUOUS
10
2.6851404330708659
20
-1.8291670078740156
11
2.6859384251968503
21
-1.8261887795275591
0
LINE
8
BLACK
6
CONTINUOUS
10
2.6859384251968503
20
-1.8261887795275591
11
2.6874800787401574
21
-1.8235185826771654
0
LINE
8
BLACK
6
CONTINUOUS
10
2.6874800787401574
20
-1.8235185826771654
11
2.68966031496063
21
-1.8213383464566928
0
LINE
8
BLACK
6
CONTINUOUS
10
2.68966031496063
20
-1.8213383464566928
11
2.6923305118110235
21
-1.8197966929133857
0
LINE
8
BLACK
6
CONTINUOUS
10
2.6923305118110235
20
-1.8197966929133857
11
2.6953087401574805
21
-1.8189987007874016
0
LINE
8
BLACK
6
CONTINUOUS
10
2.6953087401574805
20
-1.8189987007874016
11
2.6983920472440945
21
-1.8189987007874016
0
LINE
8
BLACK
6
CONTINUOUS
10
2.6983920472440945
20
-1.8189987007874016
11
2.7013702755905511
21
-1.8197966929133857
0
LINE
8
BLACK
6
CONTINUOUS
10
2.7013702755905511
20
-1.7410565354330709
11
2.704040472440945
21
-1.742598188976378
0
LINE
8
BLACK
6
CONTINUOUS
10
2.704040472440945
20
-1.742598188976378
11
2.7062207086614172
21
-1.7447784251968503
0
LINE
8
BLACK
6
CONTINUOUS
10
2.7062207086614172
20
-1.7447784251968503
11
2.7077623622047242
21
-1.747448622047244
0
LINE
8
BLACK
6
CONTINUOUS
10
2.7077623622047242
20
-1.747448622047244
11
2.7079185433070867
21
-1.7480314960629921
0
LINE
8
BLACK
6
CONTINUOUS
10
2.7079185433070867
20
-1.7480314960629921
11
3.1247491338582676
21
-1.7480314960629921
0
LINE
8
BLACK
6
CONTINUOUS
10
3.1247491338582676
20
-1.7480314960629921
11
3.1255172047244093
21
-1.748107125984252
0
LINE
8
BLACK
6
CONTINUOUS
10
3.1255172047244093
20
-1.748107125984252
11
3.1269364173228347
21
-1.7486949999999999
0
LINE
8
BLACK
6
CONTINUOUS
10
3.1269364173228347
20
-1.7486949999999999
11
3.1275330314960628
21
-1.7491846062992125
0
LINE
8
BLACK
6
CONTINUOUS
10
3.1275330314960628
20
-1.7491846062992125
11
3.5515768110236219
21
-2.173228346456693
0
LINE
8
BLACK
6
CONTINUOUS
10
3.5515768110236219
20
-2.173228346456693
11
4.2935289763779529
21
-2.173228346456693
0
LINE
8
BLACK
6
CONTINUOUS
10
4.2935289763779529
20
-2.173228346456693
11
4.6615126377952754
21
-1.80524468503937
0
LINE
8
BLACK
6
CONTINUOUS
10
4.6615126377952754
20
-1.80524468503937
11
4.6621092519685039
21
-1.8047550787401574
0
LINE
8
BLACK
6
CONTINUOUS
10
4.6621092519685039
20
-1.8047550787401574
11
4.6635284645669293
21
-1.8041672047244095
0
LINE
8
BLACK
6
CONTINUOUS
10
4.6635284645669293
20
-1.8041672047244095
11
4.6650646062992127
21
-1.8041672047244095
0
LINE
8
BLACK
6
CONTINUOUS
10
4.6650646062992127
20
-1.8041672047244095
11
4.6664838188976381
21
-1.8047550787401574
0
LINE
8
BLACK
6
CONTINUOUS
10
4.6664838188976381
20
-1.8047550787401574
11
4.6670804330708657
21
-1.80524468503937
0
LINE
8
BLACK
6
CONTINUOUS
10
4.6670804330708657
20
-1.80524468503937
11
4.7734925590551178
21
-1.9116568503937008
0
LINE
8
BLACK
6
CONTINUOUS
10
4.7734925590551178
20
-1.9116568503937008
11
4.7739822047244092
21
-1.9122534251968504
0
LINE
8
BLACK
6
CONTINUOUS
10
4.7739822047244092
20
-1.9122534251968504
11
4.7745700393700785
21
-1.9136726377952755
0
LINE
8
BLACK
6
CONTINUOUS
10
4.7745700393700785
20
-1.9136726377952755
11
4.7746456692913384
21
-1.9144407086614172
0
LINE
8
BLACK
6
CONTINUOUS
10
4.7746456692913384
20
-1.9144407086614172
11
4.7746456692913384
21
-1.9615748031496063
0
LINE
8
BLACK
6
CONTINUOUS
10
4.7746456692913384
20
-1.9615748031496063
11
4.7745700393700785
21
-1.962342874015748
0
LINE
8
BLACK
6
CONTINUOUS
10
4.7745700393700785
20
-1.962342874015748
11
4.7739821653543304
21
-1.9637620866141732
0
LINE
8
BLACK
6
CONTINUOUS
10
4.7739821653543304
20
-1.9637620866141732
11
4.7734925590551178
21
-1.9643587007874015
0
LINE
8
BLACK
6
CONTINUOUS
10
4.7734925590551178
20
-1.9643587007874015
11
4.7528229133858266
21
-1.9850283070866142
0
LINE
8
BLACK
6
CONTINUOUS
10
4.7528229133858266
20
-1.9850283070866142
11
4.7559754724409444
21
-1.9871347637795276
0
LINE
8
BLACK
6
CONTINUOUS
10
4.7559754724409444
20
-1.9871347637795276
11
4.7581090551181102
21
-1.9903279133858267
0
LINE
8
BLACK
6
CONTINUOUS
10
4.7581090551181102
20
-1.9903279133858267
11
4.7588582677165352
21
-1.9940944881889764
0
LINE
8
BLACK
6
CONTINUOUS
10
4.7588582677165352
20
-1.9940944881889764
11
4.7588582677165352
21
-2.0216535433070866
0
LINE
8
BLACK
6
CONTINUOUS
10
4.7588582677165352
20
-2.0216535433070866
11
4.7581090551181102
21
-2.0254201181102363
0
LINE
8
BLACK
6
CONTINUOUS
10
4.7581090551181102
20
-2.0254201181102363
11
4.7559754724409444
21
-2.0286132677165356
0
LINE
8
BLACK
6
CONTINUOUS
10
4.7559754724409444
20
-2.0286132677165356
11
4.752782322834646
21
-2.030746850393701
0
LINE
8
BLACK
6
CONTINUOUS
10
4.752782322834646
20
-2.030746850393701
11
4.7490157480314963
21
-2.0314960629921259
0
LINE
8
BLACK
6
CONTINUOUS
10
4.7490157480314963
20
-2.0314960629921259
11
4.6998031496062991
21
-2.0314960629921259
0
LINE
8
BLACK
6
CONTINUOUS
10
4.6998031496062991
20
-2.0314960629921259
11
4.6960365748031494
21
-2.030746850393701
0
LINE
8
BLACK
6
CONTINUOUS
10
4.6960365748031494
20
-2.030746850393701
11
4.69284342519685
21
-2.0286132677165356
0
LINE
8
BLACK
6
CONTINUOUS
10
4.69284342519685
20
-2.0286132677165356
11
4.6907098425196851
21
-2.0254201181102363
0
LINE
8
BLACK
6
CONTINUOUS
10
4.6907098425196851
20
-2.0254201181102363
11
4.6899606299212602
21
-2.0216535433070866
0
LINE
8
BLACK
6
CONTINUOUS
10
4.6899606299212602
20
-2.0216535433070866
11
4.6899606299212602
21
-1.9940944881889764
0
LINE
8
BLACK
6
CONTINUOUS
10
4.6899606299212602
20
-1.9940944881889764
11
4.6907098425196851
21
-1.9903279133858267
0
LINE
8
BLACK
6
CONTINUOUS
10
4.6907098425196851
20
-1.9903279133858267
11
4.69284342519685
21
-1.9871347637795276
0
LINE
8
BLACK
6
CONTINUOUS
10
4.69284342519685
20
-1.9871347637795276
11
4.6960365748031494
21
-1.9850011811023622
0
LINE
8
BLACK
6
CONTINUOUS
10
4.6960365748031494
20
-1.9850011811023622
11
4.6998031496062991
21
-1.984251968503937
0
LINE
8
BLACK
6
CONTINUOUS
10
4.6998031496062991
20
-1.984251968503937
11
4.7424637007874013
21
-1.984251968503937
0
LINE
8
BLACK
6
CONTINUOUS
10
4.7424637007874013
20
-1.984251968503937
11
4.7667716535433069
21
-1.9599440157480315
0
LINE
8
BLACK
6
CONTINUOUS
10
4.7667716535433069
20
-1.9599440157480315
11
4.7667716535433069
21
-1.9160714566929133
0
LINE
8
BLACK
6
CONTINUOUS
10
4.7667716535433069
20
-1.9160714566929133
11
4.6642965354330705
21
-1.8135963385826772
0
LINE
8
BLACK
6
CONTINUOUS
10
4.6642965354330705
20
-1.8135963385826772
11
4.2979436614173228
21
-2.179949251968504
0
LINE
8
BLACK
6
CONTINUOUS
10
4.2979436614173228
20
-2.179949251968504
11
4.2973470472440942
21
-2.1804388582677166
0
LINE
8
BLACK
6
CONTINUOUS
10
4.2973470472440942
20
-2.1804388582677166
11
4.2959278346456689
21
-2.1810267322834647
0
LINE
8
BLACK
6
CONTINUOUS
10
4.2959278346456689
20
-2.1810267322834647
11
4.2951597637795276
21
-2.1811023622047245
0
LINE
8
BLACK
6
CONTINUOUS
10
4.2951597637795276
20
-2.1811023622047245
11
3.5499460236220473
21
-2.1811023622047245
0
LINE
8
BLACK
6
CONTINUOUS
10
3.5499460236220473
20
-2.1811023622047245
11
3.5491779527559055
21
-2.1810267322834647
0
LINE
8
BLACK
6
CONTINUOUS
10
3.5491779527559055
20
-2.1810267322834647
11
3.54817437007874
21
-2.1806110236220473
0
LINE
8
BLACK
6
CONTINUOUS
10
3.54817437007874
20
-2.1806110236220473
11
3.5477587007874014
21
-2.1804388582677166
0
LINE
8
BLACK
6
CONTINUOUS
10
3.5477587007874014
20
-2.1804388582677166
11
3.5471621259842521
21
-2.179949251968504
0
LINE
8
BLACK
6
CONTINUOUS
10
3.5471621259842521
20
-2.179949251968504
11
3.123118346456693
21
-1.7559055118110236
0
LINE
8
BLACK
6
CONTINUOUS
10
3.123118346456693
20
-1.7559055118110236
11
2.7079185433070867
21
-1.7559055118110236
0
LINE
8
BLACK
6
CONTINUOUS
10
2.7079185433070867
20
-1.7559055118110236
11
2.7077623622047242
21
-1.7564883858267717
0
LINE
8
BLACK
6
CONTINUOUS
10
2.7077623622047242
20
-1.7564883858267717
11
2.7062207086614172
21
-1.7591585826771654
0
LINE
8
BLACK
6
CONTINUOUS
10
2.7062207086614172
20
-1.7591585826771654
11
2.704040472440945
21
-1.7613388188976378
0
LINE
8
BLACK
6
CONTINUOUS
10
2.704040472440945
20
-1.7613388188976378
11
2.7013702755905511
21
-1.7628804724409448
0
LINE
8
BLACK
6
CONTINUOUS
10
2.7013702755905511
20
-1.7628804724409448
11
2.6983920472440945
21
-1.763678464566929
0
LINE
8
BLACK
6
CONTINUOUS
10
2.6983920472440945
20
-1.763678464566929
11
2.6953087401574805
21
-1.763678464566929
0
LINE
8
BLACK
6
CONTINUOUS
10
2.6953087401574805
20
-1.763678464566929
11
2.6923305118110235
21
-1.7628804724409448
0
LINE
8
BLACK
6
CONTINUOUS
10
2.6923305118110235
20
-1.7628804724409448
11
2.68966031496063
21
-1.7613388188976378
0
LINE
8
BLACK
6
CONTINUOUS
10
2.68966031496063
20
-1.7613388188976378
11
2.6874800787401574
21
-1.7591585826771654
0
LINE
8
BLACK
6
CONTINUOUS
10
2.6874800787401574
20
-1.7591585826771654
11
2.6859384251968503
21
-1.7564883858267717
0
LINE
8
BLACK
6
CONTINUOUS
10
2.6859384251968503
20
-1.7564883858267717
11
2.6851404330708659
21
-1.7535101574803149
0
LINE
8
BLACK
6
CONTINUOUS
10
2.6851404330708659
20
-1.7535101574803149
11
2.6851404330708659
21
-1.7504268503937008
0
LINE
8
BLACK
6
CONTINUOUS
10
2.6851404330708659
20
-1.7504268503937008
11
2.6859384251968503
21
-1.747448622047244
0
LINE
8
BLACK
6
CONTINUOUS
10
2.6859384251968503
20
-1.747448622047244
11
2.6874800787401574
21
-1.7447784251968503
0
LINE
8
BLACK
6
CONTINUOUS
10
2.6874800787401574
20
-1.7447784251968503
11
2.68966031496063
21
-1.742598188976378
0
LINE
8
BLACK
6
CONTINUOUS
10
2.68966031496063
20
-1.742598188976378
11
2.6923305118110235
21
-1.7410565354330709
0
LINE
8
BLACK
6
CONTINUOUS
10
2.6923305118110235
20
-1.7410565354330709
11
2.6953087401574805
21
-1.7402585433070865
0
LINE
8
BLACK
6
CONTINUOUS
10
2.6953087401574805
20
-1.7402585433070865
11
2.6983920472440945
21
-1.7402585433070865
0
LINE
8
BLACK
6
CONTINUOUS
10
2.6983920472440945
20
-1.7402585433070865
11
2.7013702755905511
21
-1.7410565354330709
0
LINE
8
BLACK
6
CONTINUOUS
10
3.0557009842519682
20
-1.7154659842519684
11
3.0583711811023622
21
-1.7170076377952757
0
LINE
8
BLACK
6
CONTINUOUS
10
3.0583711811023622
20
-1.7170076377952757
11
3.0605514173228348
21
-1.719187874015748
0
LINE
8
BLACK
6
CONTINUOUS
10
3.0605514173228348
20
-1.719187874015748
11
3.0620930708661418
21
-1.7218580708661417
0
LINE
8
BLACK
6
CONTINUOUS
10
3.0620930708661418
20
-1.7218580708661417
11
3.0628910629921258
21
-1.7248362992125983
0
LINE
8
BLACK
6
CONTINUOUS
10
3.0628910629921258
20
-1.7248362992125983
11
3.0628910629921258
21
-1.7279196062992126
0
LINE
8
BLACK
6
CONTINUOUS
10
3.0628910629921258
20
-1.7279196062992126
11
3.0627766929133857
21
-1.7283464566929134
0
LINE
8
BLACK
6
CONTINUOUS
10
3.0627766929133857
20
-1.7283464566929134
11
3.1273351968503937
21
-1.7283464566929134
0
LINE
8
BLACK
6
CONTINUOUS
10
3.1273351968503937
20
-1.7283464566929134
11
3.1281032677165355
21
-1.7284220866141733
0
LINE
8
BLACK
6
CONTINUOUS
10
3.1281032677165355
20
-1.7284220866141733
11
3.1295224803149604
21
-1.7290099606299212
0
LINE
8
BLACK
6
CONTINUOUS
10
3.1295224803149604
20
-1.7290099606299212
11
3.1301190944881889
21
-1.7294995669291338
0
LINE
8
BLACK
6
CONTINUOUS
10
3.1301190944881889
20
-1.7294995669291338
11
3.558099842519685
21
-2.1574803149606301
0
LINE
8
BLACK
6
CONTINUOUS
10
3.558099842519685
20
-2.1574803149606301
11
4.2647348031496062
21
-2.1574803149606301
0
LINE
8
BLACK
6
CONTINUOUS
10
4.2647348031496062
20
-2.1574803149606301
11
4.657957952755905
21
-1.7642572047244094
0
LINE
8
BLACK
6
CONTINUOUS
10
4.657957952755905
20
-1.7642572047244094
11
4.6585545275590547
21
-1.7637675590551181
0
LINE
8
BLACK
6
CONTINUOUS
10
4.6585545275590547
20
-1.7637675590551181
11
4.6589701968503938
21
-1.7635953543307086
0
LINE
8
BLACK
6
CONTINUOUS
10
4.6589701968503938
20
-1.7635953543307086
11
4.6599737795275589
21
-1.7631796850393699
0
LINE
8
BLACK
6
CONTINUOUS
10
4.6599737795275589
20
-1.7631796850393699
11
4.660741850393701
21
-1.7631040551181103
0
LINE
8
BLACK
6
CONTINUOUS
10
4.660741850393701
20
-1.7631040551181103
11
4.7197969685039372
21
-1.7631040551181103
0
LINE
8
BLACK
6
CONTINUOUS
10
4.7197969685039372
20
-1.7631040551181103
11
4.7205650393700784
21
-1.7631796850393699
0
LINE
8
BLACK
6
CONTINUOUS
10
4.7205650393700784
20
-1.7631796850393699
11
4.7219842519685038
21
-1.7637675590551181
0
LINE
8
BLACK
6
CONTINUOUS
10
4.7219842519685038
20
-1.7637675590551181
11
4.7225808661417323
21
-1.7642571653543306
0
LINE
8
BLACK
6
CONTINUOUS
10
4.7225808661417323
20
-1.7642571653543306
11
5.0439876771653545
21
-2.0856640157480313
0
LINE
8
BLACK
6
CONTINUOUS
10
5.0439876771653545
20
-2.0856640157480313
11
5.0503387007874014
21
-2.0814204330708659
0
LINE
8
BLACK
6
CONTINUOUS
10
5.0503387007874014
20
-2.0814204330708659
11
5.057469094488189
21
-2.078466929133858
0
LINE
8
BLACK
6
CONTINUOUS
10
5.057469094488189
20
-2.078466929133858
11
5.0650387007874018
21
-2.076961220472441
0
LINE
8
BLACK
6
CONTINUOUS
10
5.0650387007874018
20
-2.076961220472441
11
5.0727565748031491
21
-2.076961220472441
0
LINE
8
BLACK
6
CONTINUOUS
10
5.0727565748031491
20
-2.076961220472441
11
5.0803261811023619
21
-2.078466929133858
0
LINE
8
BLACK
6
CONTINUOUS
10
5.0803261811023619
20
-2.078466929133858
11
5.0874565748031495
21
-2.0814204330708659
0
LINE
8
BLACK
6
CONTINUOUS
10
5.0874565748031495
20
-2.0814204330708659
11
5.0938737401574805
21
-2.0857082677165355
0
LINE
8
BLACK
6
CONTINUOUS
10
5.0938737401574805
20
-2.0857082677165355
11
5.0993311023622043
21
-2.0911656299212598
0
LINE
8
BLACK
6
CONTINUOUS
10
5.0993311023622043
20
-2.0911656299212598
11
5.1036189370078739
21
-2.0975827952755903
0
LINE
8
BLACK
6
CONTINUOUS
10
5.1036189370078739
20
-2.0975827952755903
11
5.1065724409448814
21
-2.1047131889763779
0
LINE
8
BLACK
6
CONTINUOUS
10
5.1065724409448814
20
-2.1047131889763779
11
5.1080781496062988
21
-2.1122827952755907
0
LINE
8
BLACK
6
CONTINUOUS
10
5.1080781496062988
20
-2.1122827952755907
11
5.1080781496062988
21
-2.1200006692913385
0
LINE
8
BLACK
6
CONTINUOUS
10
5.1080781496062988
20
-2.1200006692913385
11
5.1065724409448814
21
-2.1275702755905512
0
LINE
8
BLACK
6
CONTINUOUS
10
5.1065724409448814
20
-2.1275702755905512
11
5.1036189370078739
21
-2.1347006692913384
0
LINE
8
BLACK
6
CONTINUOUS
10
5.1036189370078739
20
-2.1347006692913384
11
5.0993311023622043
21
-2.1411178346456694
0
LINE
8
BLACK
6
CONTINUOUS
10
5.0993311023622043
20
-2.1411178346456694
11
5.0938737401574805
21
-2.1465751968503937
0
LINE
8
BLACK
6
CONTINUOUS
10
5.0938737401574805
20
-2.1465751968503937
11
5.0874565748031495
21
-2.1508630314960628
0
LINE
8
BLACK
6
CONTINUOUS
10
5.0874565748031495
20
-2.1508630314960628
11
5.0803261811023619
21
-2.1538165354330707
0
LINE
8
BLACK
6
CONTINUOUS
10
5.0803261811023619
20
-2.1538165354330707
11
5.0727565748031491
21
-2.1553222440944881
0
LINE
8
BLACK
6
CONTINUOUS
10
5.0727565748031491
20
-2.1553222440944881
11
5.0650387007874018
21
-2.1553222440944881
0
LINE
8
BLACK
6
CONTINUOUS
10
5.0650387007874018
20
-2.1553222440944881
11
5.057469094488189
21
-2.1538165354330707
0
LINE
8
BLACK
6
CONTINUOUS
10
5.057469094488189
20
-2.1538165354330707
11
5.0503387007874014
21
-2.1508630314960628
0
LINE
8
BLACK
6
CONTINUOUS
10
5.0503387007874014
20
-2.1508630314960628
11
5.0439215354330704
21
-2.1465751968503937
0
LINE
8
BLACK
6
CONTINUOUS
10
5.0439215354330704
20
-2.1465751968503937
11
5.0384641732283466
21
-2.1411178346456694
0
LINE
8
BLACK
6
CONTINUOUS
10
5.0384641732283466
20
-2.1411178346456694
11
5.034176338582677
21
-2.1347006692913384
0
LINE
8
BLACK
6
CONTINUOUS
10
5.034176338582677
20
-2.1347006692913384
11
5.0312228346456696
21
-2.1275702755905512
0
LINE
8
BLACK
6
CONTINUOUS
10
5.0312228346456696
20
-2.1275702755905512
11
5.0297171259842521
21
-2.1200006692913385
0
LINE
8
BLACK
6
CONTINUOUS
10
5.0297171259842521
20
-2.1200006692913385
11
5.0297171259842521
21
-2.1122827952755907
0
LINE
8
BLACK
6
CONTINUOUS
10
5.0297171259842521
20
-2.1122827952755907
11
5.0312228346456696
21
-2.1047131889763779
0
LINE
8
BLACK
6
CONTINUOUS
10
5.0312228346456696
20
-2.1047131889763779
11
5.034176338582677
21
-2.0975827952755903
0
LINE
8
BLACK
6
CONTINUOUS
10
5.034176338582677
20
-2.0975827952755903
11
5.0384199212598428
21
-2.0912317716535433
0
LINE
8
BLACK
6
CONTINUOUS
10
5.0384199212598428
20
-2.0912317716535433
11
4.7181661811023625
21
-1.7709780708661418
0
LINE
8
BLACK
6
CONTINUOUS
10
4.7181661811023625
20
-1.7709780708661418
11
4.6623725984251969
21
-1.7709780708661418
0
LINE
8
BLACK
6
CONTINUOUS
10
4.6623725984251969
20
-1.7709780708661418
11
4.269149488188976
21
-2.164201220472441
0
LINE
8
BLACK
6
CONTINUOUS
10
4.269149488188976
20
-2.164201220472441
11
4.2685528740157483
21
-2.1646908267716536
0
LINE
8
BLACK
6
CONTINUOUS
10
4.2685528740157483
20
-2.1646908267716536
11
4.267133661417323
21
-2.1652787007874017
0
LINE
8
BLACK
6
CONTINUOUS
10
4.267133661417323
20
-2.1652787007874017
11
4.2663655905511808
21
-2.1653543307086616
0
LINE
8
BLACK
6
CONTINUOUS
10
4.2663655905511808
20
-2.1653543307086616
11
3.55646905511811
21
-2.1653543307086616
0
LINE
8
BLACK
6
CONTINUOUS
10
3.55646905511811
20
-2.1653543307086616
11
3.5557009842519682
21
-2.1652787007874017
0
LINE
8
BLACK
6
CONTINUOUS
10
3.5557009842519682
20
-2.1652787007874017
11
3.5542817716535433
21
-2.1646908267716536
0
LINE
8
BLACK
6
CONTINUOUS
10
3.5542817716535433
20
-2.1646908267716536
11
3.5536851574803148
21
-2.164201220472441
0
LINE
8
BLACK
6
CONTINUOUS
10
3.5536851574803148
20
-2.164201220472441
11
3.1257044094488187
21
-1.7362204724409449
0
LINE
8
BLACK
6
CONTINUOUS
10
3.1257044094488187
20
-1.7362204724409449
11
3.0575533070866143
21
-1.7362204724409449
0
LINE
8
BLACK
6
CONTINUOUS
10
3.0575533070866143
20
-1.7362204724409449
11
3.0557009842519682
21
-1.7372899212598425
0
LINE
8
BLACK
6
CONTINUOUS
10
3.0557009842519682
20
-1.7372899212598425
11
3.0527227559055117
21
-1.7380879133858267
0
LINE
8
BLACK
6
CONTINUOUS
10
3.0527227559055117
20
-1.7380879133858267
11
3.0496394488188976
21
-1.7380879133858267
0
LINE
8
BLACK
6
CONTINUOUS
10
3.0496394488188976
20
-1.7380879133858267
11
3.046661220472441
21
-1.7372899212598425
0
LINE
8
BLACK
6
CONTINUOUS
10
3.046661220472441
20
-1.7372899212598425
11
3.0439910236220471
21
-1.7357482677165355
0
LINE
8
BLACK
6
CONTINUOUS
10
3.0439910236220471
20
-1.7357482677165355
11
3.041810787401575
21
-1.7335680314960629
0
LINE
8
BLACK
6
CONTINUOUS
10
3.041810787401575
20
-1.7335680314960629
11
3.0402691338582675
21
-1.7308978346456692
0
LINE
8
BLACK
6
CONTINUOUS
10
3.0402691338582675
20
-1.7308978346456692
11
3.0394711417322835
21
-1.7279196062992126
0
LINE
8
BLACK
6
CONTINUOUS
10
3.0394711417322835
20
-1.7279196062992126
11
3.0394711417322835
21
-1.7248362992125983
0
LINE
8
BLACK
6
CONTINUOUS
10
3.0394711417322835
20
-1.7248362992125983
11
3.0402691338582675
21
-1.7218580708661417
0
LINE
8
BLACK
6
CONTINUOUS
10
3.0402691338582675
20
-1.7218580708661417
11
3.041810787401575
21
-1.719187874015748
0
LINE
8
BLACK
6
CONTINUOUS
10
3.041810787401575
20
-1.719187874015748
11
3.0439910236220471
21
-1.7170076377952757
0
LINE
8
BLACK
6
CONTINUOUS
10
3.0439910236220471
20
-1.7170076377952757
11
3.046661220472441
21
-1.7154659842519684
0
LINE
8
BLACK
6
CONTINUOUS
10
3.046661220472441
20
-1.7154659842519684
11
3.0496394488188976
21
-1.7146679921259842
0
LINE
8
BLACK
6
CONTINUOUS
10
3.0496394488188976
20
-1.7146679921259842
11
3.0527227559055117
21
-1.7146679921259842
0
LINE
8
BLACK
6
CONTINUOUS
10
3.0527227559055117
20
-1.7146679921259842
11
3.0557009842519682
21
-1.7154659842519684
0
LINE
8
BLACK
6
CONTINUOUS
10
1.8606793700787401
20
-2.0861714173228347
11
1.8670967322834646
21
-2.0888295669291339
0
LINE
8
BLACK
6
CONTINUOUS
10
1.8670967322834646
20
-2.0888295669291339
11
1.8728722047244093
21
-2.0926886220472443
0
LINE
8
BLACK
6
CONTINUOUS
10
1.8728722047244093
20
-2.0926886220472443
11
1.8777838188976377
21
-2.0976002362204724
0
LINE
8
BLACK
6
CONTINUOUS
10
1.8777838188976377
20
-2.0976002362204724
11
1.881642874015748
21
-2.1033757086614173
0
LINE
8
BLACK
6
CONTINUOUS
10
1.881642874015748
20
-2.1033757086614173
11
1.8843010236220472
21
-2.1097930708661417
0
LINE
8
BLACK
6
CONTINUOUS
10
1.8843010236220472
20
-2.1097930708661417
11
1.8856561417322835
21
-2.1166057086614174
0
LINE
8
BLACK
6
CONTINUOUS
10
1.8856561417322835
20
-2.1166057086614174
11
1.8856561417322835
21
-2.1235517716535433
0
LINE
8
BLACK
6
CONTINUOUS
10
1.8856561417322835
20
-2.1235517716535433
11
1.8843010236220472
21
-2.130364409448819
0
LINE
8
BLACK
6
CONTINUOUS
10
1.8843010236220472
20
-2.130364409448819
11
1.881642874015748
21
-2.1367817716535433
0
LINE
8
BLACK
6
CONTINUOUS
10
1.881642874015748
20
-2.1367817716535433
11
1.8777838188976377
21
-2.1425572440944882
0
LINE
8
BLACK
6
CONTINUOUS
10
1.8777838188976377
20
-2.1425572440944882
11
1.8728722047244093
21
-2.1474688582677164
0
LINE
8
BLACK
6
CONTINUOUS
10
1.8728722047244093
20
-2.1474688582677164
11
1.8670967322834646
21
-2.1513279133858267
0
LINE
8
BLACK
6
CONTINUOUS
10
1.8670967322834646
20
-2.1513279133858267
11
1.8606793700787401
21
-2.1539860629921259
0
LINE
8
BLACK
6
CONTINUOUS
10
1.8606793700787401
20
-2.1539860629921259
11
1.8538667322834645
21
-2.1553411811023619
0
LINE
8
BLACK
6
CONTINUOUS
10
1.8538667322834645
20
-2.1553411811023619
11
1.8469206692913385
21
-2.1553411811023619
0
LINE
8
BLACK
6
CONTINUOUS
10
1.8469206692913385
20
-2.1553411811023619
11
1.8401080314960629
21
-2.1539860629921259
0
LINE
8
BLACK
6
CONTINUOUS
10
1.8401080314960629
20
-2.1539860629921259
11
1.8336906692913386
21
-2.1513279133858267
0
LINE
8
BLACK
6
CONTINUOUS
10
1.8336906692913386
20
-2.1513279133858267
11
1.8279151968503937
21
-2.1474688582677164
0
LINE
8
BLACK
6
CONTINUOUS
10
1.8279151968503937
20
-2.1474688582677164
11
1.8230035826771653
21
-2.1425572440944882
0
LINE
8
BLACK
6
CONTINUOUS
10
1.8230035826771653
20
-2.1425572440944882
11
1.819144527559055
21
-2.1367817716535433
0
LINE
8
BLACK
6
CONTINUOUS
10
1.819144527559055
20
-2.1367817716535433
11
1.8164863779527558
21
-2.130364409448819
0
LINE
8
BLACK
6
CONTINUOUS
10
1.8164863779527558
20
-2.130364409448819
11
1.8151312598425196
21
-2.1235517716535433
0
LINE
8
BLACK
6
CONTINUOUS
10
1.8151312598425196
20
-2.1235517716535433
11
1.8151312598425196
21
-2.1166057086614174
0
LINE
8
BLACK
6
CONTINUOUS
10
1.8151312598425196
20
-2.1166057086614174
11
1.8164863779527558
21
-2.1097930708661417
0
LINE
8
BLACK
6
CONTINUOUS
10
1.8164863779527558
20
-2.1097930708661417
11
1.819144527559055
21
-2.1033757086614173
0
LINE
8
BLACK
6
CONTINUOUS
10
1.819144527559055
20
-2.1033757086614173
11
1.8230035826771653
21
-2.0976002362204724
0
LINE
8
BLACK
6
CONTINUOUS
10
1.8230035826771653
20
-2.0976002362204724
11
1.8279151968503937
21
-2.0926886220472443
0
LINE
8
BLACK
6
CONTINUOUS
10
1.8279151968503937
20
-2.0926886220472443
11
1.8336906692913386
21
-2.0888295669291339
0
LINE
8
BLACK
6
CONTINUOUS
10
1.8336906692913386
20
-2.0888295669291339
11
1.8401080314960629
21
-2.0861714173228347
0
LINE
8
BLACK
6
CONTINUOUS
10
1.8401080314960629
20
-2.0861714173228347
11
1.8469206692913385
21
-2.0848162992125983
0
LINE
8
BLACK
6
CONTINUOUS
10
1.8469206692913385
20
-2.0848162992125983
11
1.8538667322834645
21
-2.0848162992125983
0
LINE
8
BLACK
6
CONTINUOUS
10
1.8538667322834645
20
-2.0848162992125983
11
1.8606793700787401
21
-2.0861714173228347
0
LINE
8
BLACK
6
CONTINUOUS
10
5.3362316929133859
20
-2.078466929133858
11
5.3433620866141727
21
-2.0814204330708659
0
LINE
8
BLACK
6
CONTINUOUS
10
5.3433620866141727
20
-2.0814204330708659
11
5.3497792519685037
21
-2.0857082677165355
0
LINE
8
BLACK
6
CONTINUOUS
10
5.3497792519685037
20
-2.0857082677165355
11
5.3552366141732284
21
-2.0911656299212598
0
LINE
8
BLACK
6
CONTINUOUS
10
5.3552366141732284
20
-2.0911656299212598
11
5.3595244488188971
21
-2.0975827952755903
0
LINE
8
BLACK
6
CONTINUOUS
10
5.3595244488188971
20
-2.0975827952755903
11
5.3624779527559054
21
-2.1047131889763779
0
LINE
8
BLACK
6
CONTINUOUS
10
5.3624779527559054
20
-2.1047131889763779
11
5.3639836614173229
21
-2.1122827952755907
0
LINE
8
BLACK
6
CONTINUOUS
10
5.3639836614173229
20
-2.1122827952755907
11
5.3639836614173229
21
-2.1200006692913385
0
LINE
8
BLACK
6
CONTINUOUS
10
5.3639836614173229
20
-2.1200006692913385
11
5.3624779527559054
21
-2.1275702755905512
0
LINE
8
BLACK
6
CONTINUOUS
10
5.3624779527559054
20
-2.1275702755905512
11
5.3595244488188971
21
-2.1347006692913384
0
LINE
8
BLACK
6
CONTINUOUS
10
5.3595244488188971
20
-2.1347006692913384
11
5.3552366141732284
21
-2.1411178346456694
0
LINE
8
BLACK
6
CONTINUOUS
10
5.3552366141732284
20
-2.1411178346456694
11
5.3497792519685037
21
-2.1465751968503937
0
LINE
8
BLACK
6
CONTINUOUS
10
5.3497792519685037
20
-2.1465751968503937
11
5.3433620866141727
21
-2.1508630314960628
0
LINE
8
BLACK
6
CONTINUOUS
10
5.3433620866141727
20
-2.1508630314960628
11
5.3362316929133859
21
-2.1538165354330707
0
LINE
8
BLACK
6
CONTINUOUS
10
5.3362316929133859
20
-2.1538165354330707
11
5.3286620866141732
21
-2.1553222440944881
0
LINE
8
BLACK
6
CONTINUOUS
10
5.3286620866141732
20
-2.1553222440944881
11
5.320944212598425
21
-2.1553222440944881
0
LINE
8
BLACK
6
CONTINUOUS
10
5.320944212598425
20
-2.1553222440944881
11
5.3133746062992122
21
-2.1538165354330707
0
LINE
8
BLACK
6
CONTINUOUS
10
5.3133746062992122
20
-2.1538165354330707
11
5.3062442125984255
21
-2.1508630314960628
0
LINE
8
BLACK
6
CONTINUOUS
10
5.3062442125984255
20
-2.1508630314960628
11
5.2998270472440945
21
-2.1465751968503937
0
LINE
8
BLACK
6
CONTINUOUS
10
5.2998270472440945
20
-2.1465751968503937
11
5.2943696850393698
21
-2.1411178346456694
0
LINE
8
BLACK
6
CONTINUOUS
10
5.2943696850393698
20
-2.1411178346456694
11
5.290081850393701
21
-2.1347006692913384
0
LINE
8
BLACK
6
CONTINUOUS
10
5.290081850393701
20
-2.1347006692913384
11
5.2871283464566927
21
-2.1275702755905512
0
LINE
8
BLACK
6
CONTINUOUS
10
5.2871283464566927
20
-2.1275702755905512
11
5.2856226377952753
21
-2.1200006692913385
0
LINE
8
BLACK
6
CONTINUOUS
10
5.2856226377952753
20
-2.1200006692913385
11
5.2856226377952753
21
-2.1122827952755907
0
LINE
8
BLACK
6
CONTINUOUS
10
5.2856226377952753
20
-2.1122827952755907
11
5.2871283464566927
21
-2.1047131889763779
0
LINE
8
BLACK
6
CONTINUOUS
10
5.2871283464566927
20
-2.1047131889763779
11
5.290081850393701
21
-2.0975827952755903
0
LINE
8
BLACK
6
CONTINUOUS
10
5.290081850393701
20
-2.0975827952755903
11
5.2943696850393698
21
-2.0911656299212598
0
LINE
8
BLACK
6
CONTINUOUS
10
5.2943696850393698
20
-2.0911656299212598
11
5.2998270472440945
21
-2.0857082677165355
0
LINE
8
BLACK
6
CONTINUOUS
10
5.2998270472440945
20
-2.0857082677165355
11
5.3062442125984255
21
-2.0814204330708659
0
LINE
8
BLACK
6
CONTINUOUS
10
5.3062442125984255
20
-2.0814204330708659
11
5.3133746062992122
21
-2.078466929133858
0
LINE
8
BLACK
6
CONTINUOUS
10
5.3133746062992122
20
-2.078466929133858
11
5.320944212598425
21
-2.076961220472441
0
LINE
8
BLACK
6
CONTINUOUS
10
5.320944212598425
20
-2.076961220472441
11
5.3286620866141732
21
-2.076961220472441
0
LINE
8
BLACK
6
CONTINUOUS
10
5.3286620866141732
20
-2.076961220472441
11
5.3362316929133859
21
-2.078466929133858
0
LINE
8
BLACK
6
CONTINUOUS
10
5.9070978346456693
20
-2.078466929133858
11
5.9142282283464569
21
-2.0814204330708659
0
LINE
8
BLACK
6
CONTINUOUS
10
5.9142282283464569
20
-2.0814204330708659
11
5.920645393700787
21
-2.0857082677165355
0
LINE
8
BLACK
6
CONTINUOUS
10
5.920645393700787
20
-2.0857082677165355
11
5.9261027559055117
21
-2.0911656299212598
0
LINE
8
BLACK
6
CONTINUOUS
10
5.9261027559055117
20
-2.0911656299212598
11
5.9303905905511813
21
-2.0975827952755903
0
LINE
8
BLACK
6
CONTINUOUS
10
5.9303905905511813
20
-2.0975827952755903
11
5.9333440944881888
21
-2.1047131889763779
0
LINE
8
BLACK
6
CONTINUOUS
10
5.9333440944881888
20
-2.1047131889763779
11
5.9348498031496062
21
-2.1122827952755907
0
LINE
8
BLACK
6
CONTINUOUS
10
5.9348498031496062
20
-2.1122827952755907
11
5.9348498031496062
21
-2.1200006692913385
0
LINE
8
BLACK
6
CONTINUOUS
10
5.9348498031496062
20
-2.1200006692913385
11
5.9333440944881888
21
-2.1275702755905512
0
LINE
8
BLACK
6
CONTINUOUS
10
5.9333440944881888
20
-2.1275702755905512
11
5.9303905905511813
21
-2.1347006692913384
0
LINE
8
BLACK
6
CONTINUOUS
10
5.9303905905511813
20
-2.1347006692913384
11
5.9261027559055117
21
-2.1411178346456694
0
LINE
8
BLACK
6
CONTINUOUS
10
5.9261027559055117
20
-2.1411178346456694
11
5.920645393700787
21
-2.1465751968503937
0
LINE
8
BLACK
6
CONTINUOUS
10
5.920645393700787
20
-2.1465751968503937
11
5.9142282283464569
21
-2.1508630314960628
0
LINE
8
BLACK
6
CONTINUOUS
10
5.9142282283464569
20
-2.1508630314960628
11
5.9070978346456693
21
-2.1538165354330707
0
LINE
8
BLACK
6
CONTINUOUS
10
5.9070978346456693
20
-2.1538165354330707
11
5.8995282283464565
21
-2.1553222440944881
0
LINE
8
BLACK
6
CONTINUOUS
10
5.8995282283464565
20
-2.1553222440944881
11
5.8918103543307083
21
-2.1553222440944881
0
LINE
8
BLACK
6
CONTINUOUS
10
5.8918103543307083
20
-2.1553222440944881
11
5.8842407480314955
21
-2.1538165354330707
0
LINE
8
BLACK
6
CONTINUOUS
10
5.8842407480314955
20
-2.1538165354330707
11
5.8771103543307088
21
-2.1508630314960628
0
LINE
8
BLACK
6
CONTINUOUS
10
5.8771103543307088
20
-2.1508630314960628
11
5.8706931889763778
21
-2.1465751968503937
0
LINE
8
BLACK
6
CONTINUOUS
10
5.8706931889763778
20
-2.1465751968503937
11
5.8652358267716531
21
-2.1411178346456694
0
LINE
8
BLACK
6
CONTINUOUS
10
5.8652358267716531
20
-2.1411178346456694
11
5.8609479921259844
21
-2.1347006692913384
0
LINE
8
BLACK
6
CONTINUOUS
10
5.8609479921259844
20
-2.1347006692913384
11
5.8579944881889761
21
-2.1275702755905512
0
LINE
8
BLACK
6
CONTINUOUS
10
5.8579944881889761
20
-2.1275702755905512
11
5.8564887795275586
21
-2.1200006692913385
0
LINE
8
BLACK
6
CONTINUOUS
10
5.8564887795275586
20
-2.1200006692913385
11
5.8564887795275586
21
-2.1122827952755907
0
LINE
8
BLACK
6
CONTINUOUS
10
5.8564887795275586
20
-2.1122827952755907
11
5.8579944881889761
21
-2.1047131889763779
0
LINE
8
BLACK
6
CONTINUOUS
10
5.8579944881889761
20
-2.1047131889763779
11
5.8609479921259844
21
-2.0975827952755903
0
LINE
8
BLACK
6
CONTINUOUS
10
5.8609479921259844
20
-2.0975827952755903
11
5.8652358267716531
21
-2.0911656299212598
0
LINE
8
BLACK
6
CONTINUOUS
10
5.8652358267716531
20
-2.0911656299212598
11
5.8706931889763778
21
-2.0857082677165355
0
LINE
8
BLACK
6
CONTINUOUS
10
5.8706931889763778
20
-2.0857082677165355
11
5.8771103543307088
21
-2.0814204330708659
0
LINE
8
BLACK
6
CONTINUOUS
10
5.8771103543307088
20
-2.0814204330708659
11
5.8842407480314955
21
-2.078466929133858
0
LINE
8
BLACK
6
CONTINUOUS
10
5.8842407480314955
20
-2.078466929133858
11
5.8918103543307083
21
-2.076961220472441
0
LINE
8
BLACK
6
CONTINUOUS
10
5.8918103543307083
20
-2.076961220472441
11
5.8995282283464565
21
-2.076961220472441
0
LINE
8
BLACK
6
CONTINUOUS
10
5.8995282283464565
20
-2.076961220472441
11
5.9070978346456693
21
-2.078466929133858
0
LINE
8
BLACK
6
CONTINUOUS
10
1.8606793700787401
20
-1.9861714173228346
11
1.8670967322834646
21
-1.9888295669291338
0
LINE
8
BLACK
6
CONTINUOUS
10
1.8670967322834646
20
-1.9888295669291338
11
1.8728722047244093
21
-1.992688622047244
0
LINE
8
BLACK
6
CONTINUOUS
10
1.8728722047244093
20
-1.992688622047244
11
1.8777838188976377
21
-1.9976002362204723
0
LINE
8
BLACK
6
CONTINUOUS
10
1.8777838188976377
20
-1.9976002362204723
11
1.881642874015748
21
-2.0033757086614172
0
LINE
8
BLACK
6
CONTINUOUS
10
1.881642874015748
20
-2.0033757086614172
11
1.8843010236220472
21
-2.0097930708661416
0
LINE
8
BLACK
6
CONTINUOUS
10
1.8843010236220472
20
-2.0097930708661416
11
1.8856561417322835
21
-2.0166057086614173
0
LINE
8
BLACK
6
CONTINUOUS
10
1.8856561417322835
20
-2.0166057086614173
11
1.8856561417322835
21
-2.0235517716535432
0
LINE
8
BLACK
6
CONTINUOUS
10
1.8856561417322835
20
-2.0235517716535432
11
1.8843010236220472
21
-2.0303644094488189
0
LINE
8
BLACK
6
CONTINUOUS
10
1.8843010236220472
20
-2.0303644094488189
11
1.881642874015748
21
-2.0367817716535432
0
LINE
8
BLACK
6
CONTINUOUS
10
1.881642874015748
20
-2.0367817716535432
11
1.8777838188976377
21
-2.0425572440944881
0
LINE
8
BLACK
6
CONTINUOUS
10
1.8777838188976377
20
-2.0425572440944881
11
1.8728722047244093
21
-2.0474688582677163
0
LINE
8
BLACK
6
CONTINUOUS
10
1.8728722047244093
20
-2.0474688582677163
11
1.8670967322834646
21
-2.0513279133858267
0
LINE
8
BLACK
6
CONTINUOUS
10
1.8670967322834646
20
-2.0513279133858267
11
1.8606793700787401
21
-2.0539860629921258
0
LINE
8
BLACK
6
CONTINUOUS
10
1.8606793700787401
20
-2.0539860629921258
11
1.8538667322834645
21
-2.0553411811023623
0
LINE
8
BLACK
6
CONTINUOUS
10
1.8538667322834645
20
-2.0553411811023623
11
1.8469206692913385
21
-2.0553411811023623
0
LINE
8
BLACK
6
CONTINUOUS
10
1.8469206692913385
20
-2.0553411811023623
11
1.8401080314960629
21
-2.0539860629921258
0
LINE
8
BLACK
6
CONTINUOUS
10
1.8401080314960629
20
-2.0539860629921258
11
1.8336906692913386
21
-2.0513279133858267
0
LINE
8
BLACK
6
CONTINUOUS
10
1.8336906692913386
20
-2.0513279133858267
11
1.8279151968503937
21
-2.0474688582677163
0
LINE
8
BLACK
6
CONTINUOUS
10
1.8279151968503937
20
-2.0474688582677163
11
1.8230035826771653
21
-2.0425572440944881
0
LINE
8
BLACK
6
CONTINUOUS
10
1.8230035826771653
20
-2.0425572440944881
11
1.819144527559055
21
-2.0367817716535432
0
LINE
8
BLACK
6
CONTINUOUS
10
1.819144527559055
20
-2.0367817716535432
11
1.8164863779527558
21
-2.0303644094488189
0
LINE
8
BLACK
6
CONTINUOUS
10
1.8164863779527558
20
-2.0303644094488189
11
1.8151312598425196
21
-2.0235517716535432
0
LINE
8
BLACK
6
CONTINUOUS
10
1.8151312598425196
20
-2.0235517716535432
11
1.8151312598425196
21
-2.0166057086614173
0
LINE
8
BLACK
6
CONTINUOUS
10
1.8151312598425196
20
-2.0166057086614173
11
1.8164863779527558
21
-2.0097930708661416
0
LINE
8
BLACK
6
CONTINUOUS
10
1.8164863779527558
20
-2.0097930708661416
11
1.819144527559055
21
-2.0033757086614172
0
LINE
8
BLACK
6
CONTINUOUS
10
1.819144527559055
20
-2.0033757086614172
11
1.8230035826771653
21
-1.9976002362204723
0
LINE
8
BLACK
6
CONTINUOUS
10
1.8230035826771653
20
-1.9976002362204723
11
1.8279151968503937
21
-1.992688622047244
0
LINE
8
BLACK
6
CONTINUOUS
10
1.8279151968503937
20
-1.992688622047244
11
1.8336906692913386
21
-1.9888295669291338
0
LINE
8
BLACK
6
CONTINUOUS
10
1.8336906692913386
20
-1.9888295669291338
11
1.8401080314960629
21
-1.9861714173228346
0
LINE
8
BLACK
6
CONTINUOUS
10
1.8401080314960629
20
-1.9861714173228346
11
1.8469206692913385
21
-1.9848162992125984
0
LINE
8
BLACK
6
CONTINUOUS
10
1.8469206692913385
20
-1.9848162992125984
11
1.8538667322834645
21
-1.9848162992125984
0
LINE
8
BLACK
6
CONTINUOUS
10
1.8538667322834645
20
-1.9848162992125984
11
1.8606793700787401
21
-1.9861714173228346
0
LINE
8
BLACK
6
CONTINUOUS
10
1.8606793700787401
20
-1.8861714173228346
11
1.8670967322834646
21
-1.8888295669291337
0
LINE
8
BLACK
6
CONTINUOUS
10
1.8670967322834646
20
-1.8888295669291337
11
1.8728722047244093
21
-1.8926886220472441
0
LINE
8
BLACK
6
CONTINUOUS
10
1.8728722047244093
20
-1.8926886220472441
11
1.8777838188976377
21
-1.8976002362204725
0
LINE
8
BLACK
6
CONTINUOUS
10
1.8777838188976377
20
-1.8976002362204725
11
1.881642874015748
21
-1.9033757086614174
0
LINE
8
BLACK
6
CONTINUOUS
10
1.881642874015748
20
-1.9033757086614174
11
1.8843010236220472
21
-1.9097930708661417
0
LINE
8
BLACK
6
CONTINUOUS
10
1.8843010236220472
20
-1.9097930708661417
11
1.8856561417322835
21
-1.9166057086614172
0
LINE
8
BLACK
6
CONTINUOUS
10
1.8856561417322835
20
-1.9166057086614172
11
1.8856561417322835
21
-1.9235517716535433
0
LINE
8
BLACK
6
CONTINUOUS
10
1.8856561417322835
20
-1.9235517716535433
11
1.8843010236220472
21
-1.9303644094488188
0
LINE
8
BLACK
6
CONTINUOUS
10
1.8843010236220472
20
-1.9303644094488188
11
1.881642874015748
21
-1.9367817716535434
0
LINE
8
BLACK
6
CONTINUOUS
10
1.881642874015748
20
-1.9367817716535434
11
1.8777838188976377
21
-1.942557244094488
0
LINE
8
BLACK
6
CONTINUOUS
10
1.8777838188976377
20
-1.942557244094488
11
1.8728722047244093
21
-1.9474688582677164
0
LINE
8
BLACK
6
CONTINUOUS
10
1.8728722047244093
20
-1.9474688582677164
11
1.8670967322834646
21
-1.9513279133858268
0
LINE
8
BLACK
6
CONTINUOUS
10
1.8670967322834646
20
-1.9513279133858268
11
1.8606793700787401
21
-1.953986062992126
0
LINE
8
BLACK
6
CONTINUOUS
10
1.8606793700787401
20
-1.953986062992126
11
1.8538667322834645
21
-1.9553411811023622
0
LINE
8
BLACK
6
CONTINUOUS
10
1.8538667322834645
20
-1.9553411811023622
11
1.8469206692913385
21
-1.9553411811023622
0
LINE
8
BLACK
6
CONTINUOUS
10
1.8469206692913385
20
-1.9553411811023622
11
1.8401080314960629
21
-1.953986062992126
0
LINE
8
BLACK
6
CONTINUOUS
10
1.8401080314960629
20
-1.953986062992126
11
1.8336906692913386
21
-1.9513279133858268
0
LINE
8
BLACK
6
CONTINUOUS
10
1.8336906692913386
20
-1.9513279133858268
11
1.8279151968503937
21
-1.9474688582677164
0
LINE
8
BLACK
6
CONTINUOUS
10
1.8279151968503937
20
-1.9474688582677164
11
1.8230035826771653
21
-1.942557244094488
0
LINE
8
BLACK
6
CONTINUOUS
10
1.8230035826771653
20
-1.942557244094488
11
1.819144527559055
21
-1.9367817716535434
0
LINE
8
BLACK
6
CONTINUOUS
10
1.819144527559055
20
-1.9367817716535434
11
1.8164863779527558
21
-1.9303644094488188
0
LINE
8
BLACK
6
CONTINUOUS
10
1.8164863779527558
20
-1.9303644094488188
11
1.8151312598425196
21
-1.9235517716535433
0
LINE
8
BLACK
6
CONTINUOUS
10
1.8151312598425196
20
-1.9235517716535433
11
1.8151312598425196
21
-1.9166057086614172
0
LINE
8
BLACK
6
CONTINUOUS
10
1.8151312598425196
20
-1.9166057086614172
11
1.8164863779527558
21
-1.9097930708661417
0
LINE
8
BLACK
6
CONTINUOUS
10
1.8164863779527558
20
-1.9097930708661417
11
1.819144527559055
21
-1.9033757086614174
0
LINE
8
BLACK
6
CONTINUOUS
10
1.819144527559055
20
-1.9033757086614174
11
1.8230035826771653
21
-1.8976002362204725
0
LINE
8
BLACK
6
CONTINUOUS
10
1.8230035826771653
20
-1.8976002362204725
11
1.8279151968503937
21
-1.8926886220472441
0
LINE
8
BLACK
6
CONTINUOUS
10
1.8279151968503937
20
-1.8926886220472441
11
1.8336906692913386
21
-1.8888295669291337
0
LINE
8
BLACK
6
CONTINUOUS
10
1.8336906692913386
20
-1.8888295669291337
11
1.8401080314960629
21
-1.8861714173228346
0
LINE
8
BLACK
6
CONTINUOUS
10
1.8401080314960629
20
-1.8861714173228346
11
1.8469206692913385
21
-1.8848162992125983
0
LINE
8
BLACK
6
CONTINUOUS
10
1.8469206692913385
20
-1.8848162992125983
11
1.8538667322834645
21
-1.8848162992125983
0
LINE
8
BLACK
6
CONTINUOUS
10
1.8538667322834645
20
-1.8848162992125983
11
1.8606793700787401
21
-1.8861714173228346
0
LINE
8
BLACK
6
CONTINUOUS
10
3.0557009842519682
20
-1.5245211023622047
11
3.0583711811023622
21
-1.5260627559055118
0
LINE
8
BLACK
6
CONTINUOUS
10
3.0583711811023622
20
-1.5260627559055118
11
3.0605514173228348
21
-1.5282429921259841
0
LINE
8
BLACK
6
CONTINUOUS
10
3.0605514173228348
20
-1.5282429921259841
11
3.0620930708661418
21
-1.5309131889763778
0
LINE
8
BLACK
6
CONTINUOUS
10
3.0620930708661418
20
-1.5309131889763778
11
3.0622492519685038
21
-1.5314960629921259
0
LINE
8
BLACK
6
CONTINUOUS
10
3.0622492519685038
20
-1.5314960629921259
11
4.5866141732283463
21
-1.5314960629921259
0
LINE
8
BLACK
6
CONTINUOUS
10
4.5866141732283463
20
-1.5314960629921259
11
4.5873822440944885
21
-1.5315716929133858
0
LINE
8
BLACK
6
CONTINUOUS
10
4.5873822440944885
20
-1.5315716929133858
11
4.588801456692913
21
-1.5321595669291339
0
LINE
8
BLACK
6
CONTINUOUS
10
4.588801456692913
20
-1.5321595669291339
11
4.5893980708661415
21
-1.5326491732283465
0
LINE
8
BLACK
6
CONTINUOUS
10
4.5893980708661415
20
-1.5326491732283465
11
4.8960407480314956
21
-1.8392918897637796
0
LINE
8
BLACK
6
CONTINUOUS
10
4.8960407480314956
20
-1.8392918897637796
11
4.8996062992125982
21
-1.8385826771653544
0
LINE
8
BLACK
6
CONTINUOUS
10
4.8996062992125982
20
-1.8385826771653544
11
4.9429133858267713
21
-1.8385826771653544
0
LINE
8
BLACK
6
CONTINUOUS
10
4.9429133858267713
20
-1.8385826771653544
11
4.946679960629921
21
-1.8393318897637796
0
LINE
8
BLACK
6
CONTINUOUS
10
4.946679960629921
20
-1.8393318897637796
11
4.9498731102362203
21
-1.8414654724409449
0
LINE
8
BLACK
6
CONTINUOUS
10
4.9498731102362203
20
-1.8414654724409449
11
4.9520066929133861
21
-1.8446586220472441
0
LINE
8
BLACK
6
CONTINUOUS
10
4.9520066929133861
20
-1.8446586220472441
11
4.9527559055118111
21
-1.8484251968503937
0
LINE
8
BLACK
6
CONTINUOUS
10
4.9527559055118111
20
-1.8484251968503937
11
4.9527559055118111
21
-1.8661417322834646
0
LINE
8
BLACK
6
CONTINUOUS
10
4.9527559055118111
20
-1.8661417322834646
11
5.4606299212598426
21
-1.8661417322834646
0
LINE
8
BLACK
6
CONTINUOUS
10
5.4606299212598426
20
-1.8661417322834646
11
5.4606299212598426
21
-1.8484251968503937
0
LINE
8
BLACK
6
CONTINUOUS
10
5.4606299212598426
20
-1.8484251968503937
11
5.4613791338582676
21
-1.8446586220472441
0
LINE
8
BLACK
6
CONTINUOUS
10
5.4613791338582676
20
-1.8446586220472441
11
5.4635127165354334
21
-1.8414654724409449
0
LINE
8
BLACK
6
CONTINUOUS
10
5.4635127165354334
20
-1.8414654724409449
11
5.4667058661417318
21
-1.8393318897637796
0
LINE
8
BLACK
6
CONTINUOUS
10
5.4667058661417318
20
-1.8393318897637796
11
5.4704724409448815
21
-1.8385826771653544
0
LINE
8
BLACK
6
CONTINUOUS
10
5.4704724409448815
20
-1.8385826771653544
11
5.5137795275590546
21
-1.8385826771653544
0
LINE
8
BLACK
6
CONTINUOUS
10
5.5137795275590546
20
-1.8385826771653544
11
5.5175461023622043
21
-1.8393318897637796
0
LINE
8
BLACK
6
CONTINUOUS
10
5.5175461023622043
20
-1.8393318897637796
11
5.5207392519685037
21
-1.8414654724409449
0
LINE
8
BLACK
6
CONTINUOUS
10
5.5207392519685037
20
-1.8414654724409449
11
5.5228728346456695
21
-1.8446586220472441
0
LINE
8
BLACK
6
CONTINUOUS
10
5.5228728346456695
20
-1.8446586220472441
11
5.5236220472440944
21
-1.8484251968503937
0
LINE
8
BLACK
6
CONTINUOUS
10
5.5236220472440944
20
-1.8484251968503937
11
5.5236220472440944
21
-1.8917322834645669
0
LINE
8
BLACK
6
CONTINUOUS
10
5.5236220472440944
20
-1.8917322834645669
11
5.5228728346456695
21
-1.8954988582677166
0
LINE
8
BLACK
6
CONTINUOUS
10
5.5228728346456695
20
-1.8954988582677166
11
5.5207392519685037
21
-1.8986920078740157
0
LINE
8
BLACK
6
CONTINUOUS
10
5.5207392519685037
20
-1.8986920078740157
11
5.5175461023622043
21
-1.9008255905511811
0
LINE
8
BLACK
6
CONTINUOUS
10
5.5175461023622043
20
-1.9008255905511811
11
5.5137795275590546
21
-1.9015748031496063
0
LINE
8
BLACK
6
CONTINUOUS
10
5.5137795275590546
20
-1.9015748031496063
11
5.4704724409448815
21
-1.9015748031496063
0
LINE
8
BLACK
6
CONTINUOUS
10
5.4704724409448815
20
-1.9015748031496063
11
5.4667058661417318
21
-1.9008255905511811
0
LINE
8
BLACK
6
CONTINUOUS
10
5.4667058661417318
20
-1.9008255905511811
11
5.4635127165354334
21
-1.8986920078740157
0
LINE
8
BLACK
6
CONTINUOUS
10
5.4635127165354334
20
-1.8986920078740157
11
5.4613791338582676
21
-1.8954988582677166
0
LINE
8
BLACK
6
CONTINUOUS
10
5.4613791338582676
20
-1.8954988582677166
11
5.4606299212598426
21
-1.8917322834645669
0
LINE
8
BLACK
6
CONTINUOUS
10
5.4606299212598426
20
-1.8917322834645669
11
5.4606299212598426
21
-1.8740157480314961
0
LINE
8
BLACK
6
CONTINUOUS
10
5.4606299212598426
20
-1.8740157480314961
11
4.9527559055118111
21
-1.8740157480314961
0
LINE
8
BLACK
6
CONTINUOUS
10
4.9527559055118111
20
-1.8740157480314961
11
4.9527559055118111
21
-1.8917322834645669
0
LINE
8
BLACK
6
CONTINUOUS
10
4.9527559055118111
20
-1.8917322834645669
11
4.9520066929133861
21
-1.8954988582677166
0
LINE
8
BLACK
6
CONTINUOUS
10
4.9520066929133861
20
-1.8954988582677166
11
4.9498731102362203
21
-1.8986920078740157
0
LINE
8
BLACK
6
CONTINUOUS
10
4.9498731102362203
20
-1.8986920078740157
11
4.946679960629921
21
-1.9008255905511811
0
LINE
8
BLACK
6
CONTINUOUS
10
4.946679960629921
20
-1.9008255905511811
11
4.9429133858267713
21
-1.9015748031496063
0
LINE
8
BLACK
6
CONTINUOUS
10
4.9429133858267713
20
-1.9015748031496063
11
4.8996062992125982
21
-1.9015748031496063
0
LINE
8
BLACK
6
CONTINUOUS
10
4.8996062992125982
20
-1.9015748031496063
11
4.8958397244094485
21
-1.9008255905511811
0
LINE
8
BLACK
6
CONTINUOUS
10
4.8958397244094485
20
-1.9008255905511811
11
4.8926465748031491
21
-1.8986920078740157
0
LINE
8
BLACK
6
CONTINUOUS
10
4.8926465748031491
20
-1.8986920078740157
11
4.8905129921259842
21
-1.8954988582677166
0
LINE
8
BLACK
6
CONTINUOUS
10
4.8905129921259842
20
-1.8954988582677166
11
4.8897637795275593
21
-1.8917322834645669
0
LINE
8
BLACK
6
CONTINUOUS
10
4.8897637795275593
20
-1.8917322834645669
11
4.8897637795275593
21
-1.8484251968503937
0
LINE
8
BLACK
6
CONTINUOUS
10
4.8897637795275593
20
-1.8484251968503937
11
4.890472992125984
21
-1.8448596456692914
0
LINE
8
BLACK
6
CONTINUOUS
10
4.890472992125984
20
-1.8448596456692914
11
4.5849833858267717
21
-1.5393700787401574
0
LINE
8
BLACK
6
CONTINUOUS
10
4.5849833858267717
20
-1.5393700787401574
11
3.0622492519685038
21
-1.5393700787401574
0
LINE
8
BLACK
6
CONTINUOUS
10
3.0622492519685038
20
-1.5393700787401574
11
3.0620930708661418
21
-1.5399529527559055
0
LINE
8
BLACK
6
CONTINUOUS
10
3.0620930708661418
20
-1.5399529527559055
11
3.0605514173228348
21
-1.5426231496062992
0
LINE
8
BLACK
6
CONTINUOUS
10
3.0605514173228348
20
-1.5426231496062992
11
3.0583711811023622
21
-1.5448033858267716
0
LINE
8
BLACK
6
CONTINUOUS
10
3.0583711811023622
20
-1.5448033858267716
11
3.0557009842519682
21
-1.5463450393700786
0
LINE
8
BLACK
6
CONTINUOUS
10
3.0557009842519682
20
-1.5463450393700786
11
3.0527227559055117
21
-1.547143031496063
0
LINE
8
BLACK
6
CONTINUOUS
10
3.0527227559055117
20
-1.547143031496063
11
3.0496394488188976
21
-1.547143031496063
0
LINE
8
BLACK
6
CONTINUOUS
10
3.0496394488188976
20
-1.547143031496063
11
3.046661220472441
21
-1.5463450393700786
0
LINE
8
BLACK
6
CONTINUOUS
10
3.046661220472441
20
-1.5463450393700786
11
3.0439910236220471
21
-1.5448033858267716
0
LINE
8
BLACK
6
CONTINUOUS
10
3.0439910236220471
20
-1.5448033858267716
11
3.041810787401575
21
-1.5426231496062992
0
LINE
8
BLACK
6
CONTINUOUS
10
3.041810787401575
20
-1.5426231496062992
11
3.0402691338582675
21
-1.5399529527559055
0
LINE
8
BLACK
6
CONTINUOUS
10
3.0402691338582675
20
-1.5399529527559055
11
3.0394711417322835
21
-1.5369747244094487
0
LINE
8
BLACK
6
CONTINUOUS
10
3.0394711417322835
20
-1.5369747244094487
11
3.0394711417322835
21
-1.5338914173228346
0
LINE
8
BLACK
6
CONTINUOUS
10
3.0394711417322835
20
-1.5338914173228346
11
3.0402691338582675
21
-1.5309131889763778
0
LINE
8
BLACK
6
CONTINUOUS
10
3.0402691338582675
20
-1.5309131889763778
11
3.041810787401575
21
-1.5282429921259841
0
LINE
8
BLACK
6
CONTINUOUS
10
3.041810787401575
20
-1.5282429921259841
11
3.0439910236220471
21
-1.5260627559055118
0
LINE
8
BLACK
6
CONTINUOUS
10
3.0439910236220471
20
-1.5260627559055118
11
3.046661220472441
21
-1.5245211023622047
0
LINE
8
BLACK
6
CONTINUOUS
10
3.046661220472441
20
-1.5245211023622047
11
3.0496394488188976
21
-1.5237231102362205
0
LINE
8
BLACK
6
CONTINUOUS
10
3.0496394488188976
20
-1.5237231102362205
11
3.0527227559055117
21
-1.5237231102362205
0
LINE
8
BLACK
6
CONTINUOUS
10
3.0527227559055117
20
-1.5237231102362205
11
3.0557009842519682
21
-1.5245211023622047
0
LINE
8
BLACK
6
CONTINUOUS
10
1.8606793700787401
20
-1.7861714173228347
11
1.8670967322834646
21
-1.7888295669291339
0
LINE
8
BLACK
6
CONTINUOUS
10
1.8670967322834646
20
-1.7888295669291339
11
1.8728722047244093
21
-1.792688622047244
0
LINE
8
BLACK
6
CONTINUOUS
10
1.8728722047244093
20
-1.792688622047244
11
1.8777838188976377
21
-1.7976002362204724
0
LINE
8
BLACK
6
CONTINUOUS
10
1.8777838188976377
20
-1.7976002362204724
11
1.881642874015748
21
-1.8033757086614173
0
LINE
8
BLACK
6
CONTINUOUS
10
1.881642874015748
20
-1.8033757086614173
11
1.8843010236220472
21
-1.8097930708661416
0
LINE
8
BLACK
6
CONTINUOUS
10
1.8843010236220472
20
-1.8097930708661416
11
1.8856561417322835
21
-1.8166057086614174
0
LINE
8
BLACK
6
CONTINUOUS
10
1.8856561417322835
20
-1.8166057086614174
11
1.8856561417322835
21
-1.8235517716535432
0
LINE
8
BLACK
6
CONTINUOUS
10
1.8856561417322835
20
-1.8235517716535432
11
1.8843010236220472
21
-1.830364409448819
0
LINE
8
BLACK
6
CONTINUOUS
10
1.8843010236220472
20
-1.830364409448819
11
1.881642874015748
21
-1.8367817716535433
0
LINE
8
BLACK
6
CONTINUOUS
10
1.881642874015748
20
-1.8367817716535433
11
1.8777838188976377
21
-1.8425572440944882
0
LINE
8
BLACK
6
CONTINUOUS
10
1.8777838188976377
20
-1.8425572440944882
11
1.8728722047244093
21
-1.8474688582677166
0
LINE
8
BLACK
6
CONTINUOUS
10
1.8728722047244093
20
-1.8474688582677166
11
1.8670967322834646
21
-1.8513279133858267
0
LINE
8
BLACK
6
CONTINUOUS
10
1.8670967322834646
20
-1.8513279133858267
11
1.8606793700787401
21
-1.8539860629921259
0
LINE
8
BLACK
6
CONTINUOUS
10
1.8606793700787401
20
-1.8539860629921259
11
1.8538667322834645
21
-1.8553411811023621
0
LINE
8
BLACK
6
CONTINUOUS
10
1.8538667322834645
20
-1.8553411811023621
11
1.8469206692913385
21
-1.8553411811023621
0
LINE
8
BLACK
6
CONTINUOUS
10
1.8469206692913385
20
-1.8553411811023621
11
1.8401080314960629
21
-1.8539860629921259
0
LINE
8
BLACK
6
CONTINUOUS
10
1.8401080314960629
20
-1.8539860629921259
11
1.8336906692913386
21
-1.8513279133858267
0
LINE
8
BLACK
6
CONTINUOUS
10
1.8336906692913386
20
-1.8513279133858267
11
1.8279151968503937
21
-1.8474688582677166
0
LINE
8
BLACK
6
CONTINUOUS
10
1.8279151968503937
20
-1.8474688582677166
11
1.8230035826771653
21
-1.8425572440944882
0
LINE
8
BLACK
6
CONTINUOUS
10
1.8230035826771653
20
-1.8425572440944882
11
1.819144527559055
21
-1.8367817716535433
0
LINE
8
BLACK
6
CONTINUOUS
10
1.819144527559055
20
-1.8367817716535433
11
1.8164863779527558
21
-1.830364409448819
0
LINE
8
BLACK
6
CONTINUOUS
10
1.8164863779527558
20
-1.830364409448819
11
1.8151312598425196
21
-1.8235517716535432
0
LINE
8
BLACK
6
CONTINUOUS
10
1.8151312598425196
20
-1.8235517716535432
11
1.8151312598425196
21
-1.8166057086614174
0
LINE
8
BLACK
6
CONTINUOUS
10
1.8151312598425196
20
-1.8166057086614174
11
1.8164863779527558
21
-1.8097930708661416
0
LINE
8
BLACK
6
CONTINUOUS
10
1.8164863779527558
20
-1.8097930708661416
11
1.819144527559055
21
-1.8033757086614173
0
LINE
8
BLACK
6
CONTINUOUS
10
1.819144527559055
20
-1.8033757086614173
11
1.8230035826771653
21
-1.7976002362204724
0
LINE
8
BLACK
6
CONTINUOUS
10
1.8230035826771653
20
-1.7976002362204724
11
1.8279151968503937
21
-1.792688622047244
0
LINE
8
BLACK
6
CONTINUOUS
10
1.8279151968503937
20
-1.792688622047244
11
1.8336906692913386
21
-1.7888295669291339
0
LINE
8
BLACK
6
CONTINUOUS
10
1.8336906692913386
20
-1.7888295669291339
11
1.8401080314960629
21
-1.7861714173228347
0
LINE
8
BLACK
6
CONTINUOUS
10
1.8401080314960629
20
-1.7861714173228347
11
1.8469206692913385
21
-1.7848162992125984
0
LINE
8
BLACK
6
CONTINUOUS
10
1.8469206692913385
20
-1.7848162992125984
11
1.8538667322834645
21
-1.7848162992125984
0
LINE
8
BLACK
6
CONTINUOUS
10
1.8538667322834645
20
-1.7848162992125984
11
1.8606793700787401
21
-1.7861714173228347
0
LINE
8
BLACK
6
CONTINUOUS
10
4.930402677165354
20
-1.5399388976377952
11
4.9361069685039372
21
-1.5423016929133857
0
LINE
8
BLACK
6
CONTINUOUS
10
4.9361069685039372
20
-1.5423016929133857
11
4.9412407480314959
21
-1.545731968503937
0
LINE
8
BLACK
6
CONTINUOUS
10
4.9412407480314959
20
-1.545731968503937
11
4.9456066141732284
21
-1.5500978346456693
0
LINE
8
BLACK
6
CONTINUOUS
10
4.9456066141732284
20
-1.5500978346456693
11
4.9490368897637795
21
-1.5552316141732283
0
LINE
8
BLACK
6
CONTINUOUS
10
4.9490368897637795
20
-1.5552316141732283
11
4.9513996850393696
21
-1.5609359055118111
0
LINE
8
BLACK
6
CONTINUOUS
10
4.9513996850393696
20
-1.5609359055118111
11
4.9526042519685038
21
-1.5669915748031495
0
LINE
8
BLACK
6
CONTINUOUS
10
4.9526042519685038
20
-1.5669915748031495
11
4.9526042519685038
21
-1.573165905511811
0
LINE
8
BLACK
6
CONTINUOUS
10
4.9526042519685038
20
-1.573165905511811
11
4.9513996850393696
21
-1.5792215748031495
0
LINE
8
BLACK
6
CONTINUOUS
10
4.9513996850393696
20
-1.5792215748031495
11
4.9490368897637795
21
-1.5849258661417323
0
LINE
8
BLACK
6
CONTINUOUS
10
4.9490368897637795
20
-1.5849258661417323
11
4.9456066141732284
21
-1.5900596456692913
0
LINE
8
BLACK
6
CONTINUOUS
10
4.9456066141732284
20
-1.5900596456692913
11
4.9412407480314959
21
-1.5944255118110235
0
LINE
8
BLACK
6
CONTINUOUS
10
4.9412407480314959
20
-1.5944255118110235
11
4.9361069685039372
21
-1.5978557874015749
0
LINE
8
BLACK
6
CONTINUOUS
10
4.9361069685039372
20
-1.5978557874015749
11
4.930402677165354
21
-1.6002185826771653
0
LINE
8
BLACK
6
CONTINUOUS
10
4.930402677165354
20
-1.6002185826771653
11
4.9251968503937009
21
-1.601254094488189
0
LINE
8
BLACK
6
CONTINUOUS
10
4.9251968503937009
20
-1.601254094488189
11
4.9251968503937009
21
-1.6519125196850393
0
LINE
8
BLACK
6
CONTINUOUS
10
4.9251968503937009
20
-1.6519125196850393
11
5.0439877165354332
21
-1.7707033858267716
0
LINE
8
BLACK
6
CONTINUOUS
10
5.0439877165354332
20
-1.7707033858267716
11
5.0503387007874014
21
-1.7664598031496062
0
LINE
8
BLACK
6
CONTINUOUS
10
5.0503387007874014
20
-1.7664598031496062
11
5.057469094488189
21
-1.7635062992125985
0
LINE
8
BLACK
6
CONTINUOUS
10
5.057469094488189
20
-1.7635062992125985
11
5.0650387007874018
21
-1.7620005905511811
0
LINE
8
BLACK
6
CONTINUOUS
10
5.0650387007874018
20
-1.7620005905511811
11
5.0727565748031491
21
-1.7620005905511811
0
LINE
8
BLACK
6
CONTINUOUS
10
5.0727565748031491
20
-1.7620005905511811
11
5.0803261811023619
21
-1.7635062992125985
0
LINE
8
BLACK
6
CONTINUOUS
10
5.0803261811023619
20
-1.7635062992125985
11
5.0874565748031495
21
-1.7664598031496062
0
LINE
8
BLACK
6
CONTINUOUS
10
5.0874565748031495
20
-1.7664598031496062
11
5.0938737401574805
21
-1.7707476377952756
0
LINE
8
BLACK
6
CONTINUOUS
10
5.0938737401574805
20
-1.7707476377952756
11
5.0993311023622043
21
-1.776205
0
LINE
8
BLACK
6
CONTINUOUS
10
5.0993311023622043
20
-1.776205
11
5.1036189370078739
21
-1.7826221653543306
0
LINE
8
BLACK
6
CONTINUOUS
10
5.1036189370078739
20
-1.7826221653543306
11
5.1065724409448814
21
-1.789752559055118
0
LINE
8
BLACK
6
CONTINUOUS
10
5.1065724409448814
20
-1.789752559055118
11
5.1080781496062988
21
-1.7973221653543308
0
LINE
8
BLACK
6
CONTINUOUS
10
5.1080781496062988
20
-1.7973221653543308
11
5.1080781496062988
21
-1.8050400393700787
0
LINE
8
BLACK
6
CONTINUOUS
10
5.1080781496062988
20
-1.8050400393700787
11
5.1065724409448814
21
-1.8126096456692913
0
LINE
8
BLACK
6
CONTINUOUS
10
5.1065724409448814
20
-1.8126096456692913
11
5.1036189370078739
21
-1.8197400393700787
0
LINE
8
BLACK
6
CONTINUOUS
10
5.1036189370078739
20
-1.8197400393700787
11
5.0993311023622043
21
-1.8261572047244095
0
LINE
8
BLACK
6
CONTINUOUS
10
5.0993311023622043
20
-1.8261572047244095
11
5.0938737401574805
21
-1.8316145669291337
0
LINE
8
BLACK
6
CONTINUOUS
10
5.0938737401574805
20
-1.8316145669291337
11
5.0874565748031495
21
-1.8359024015748031
0
LINE
8
BLACK
6
CONTINUOUS
10
5.0874565748031495
20
-1.8359024015748031
11
5.0803261811023619
21
-1.838855905511811
0
LINE
8
BLACK
6
CONTINUOUS
10
5.0803261811023619
20
-1.838855905511811
11
5.0727565748031491
21
-1.8403616141732284
0
LINE
8
BLACK
6
CONTINUOUS
10
5.0727565748031491
20
-1.8403616141732284
11
5.0650387007874018
21
-1.8403616141732284
0
LINE
8
BLACK
6
CONTINUOUS
10
5.0650387007874018
20
-1.8403616141732284
11
5.057469094488189
21
-1.838855905511811
0
LINE
8
BLACK
6
CONTINUOUS
10
5.057469094488189
20
-1.838855905511811
11
5.0503387007874014
21
-1.8359024015748031
0
LINE
8
BLACK
6
CONTINUOUS
10
5.0503387007874014
20
-1.8359024015748031
11
5.0439215354330704
21
-1.8316145669291337
0
LINE
8
BLACK
6
CONTINUOUS
10
5.0439215354330704
20
-1.8316145669291337
11
5.0384641732283466
21
-1.8261572047244095
0
LINE
8
BLACK
6
CONTINUOUS
10
5.0384641732283466
20
-1.8261572047244095
11
5.034176338582677
21
-1.8197400393700787
0
LINE
8
BLACK
6
CONTINUOUS
10
5.034176338582677
20
-1.8197400393700787
11
5.0312228346456696
21
-1.8126096456692913
0
LINE
8
BLACK
6
CONTINUOUS
10
5.0312228346456696
20
-1.8126096456692913
11
5.0297171259842521
21
-1.8050400393700787
0
LINE
8
BLACK
6
CONTINUOUS
10
5.0297171259842521
20
-1.8050400393700787
11
5.0297171259842521
21
-1.7973221653543308
0
LINE
8
BLACK
6
CONTINUOUS
10
5.0297171259842521
20
-1.7973221653543308
11
5.0312228346456696
21
-1.789752559055118
0
LINE
8
BLACK
6
CONTINUOUS
10
5.0312228346456696
20
-1.789752559055118
11
5.034176338582677
21
-1.7826221653543306
0
LINE
8
BLACK
6
CONTINUOUS
10
5.034176338582677
20
-1.7826221653543306
11
5.0384199212598428
21
-1.7762711811023622
0
LINE
8
BLACK
6
CONTINUOUS
10
5.0384199212598428
20
-1.7762711811023622
11
4.91847594488189
21
-1.6563272047244093
0
LINE
8
BLACK
6
CONTINUOUS
10
4.91847594488189
20
-1.6563272047244093
11
4.9179863385826774
21
-1.655730590551181
0
LINE
8
BLACK
6
CONTINUOUS
10
4.9179863385826774
20
-1.655730590551181
11
4.9173984645669293
21
-1.6543113779527558
0
LINE
8
BLACK
6
CONTINUOUS
10
4.9173984645669293
20
-1.6543113779527558
11
4.9173228346456694
21
-1.6535433070866141
0
LINE
8
BLACK
6
CONTINUOUS
10
4.9173228346456694
20
-1.6535433070866141
11
4.9173228346456694
21
-1.601254094488189
0
LINE
8
BLACK
6
CONTINUOUS
10
4.9173228346456694
20
-1.601254094488189
11
4.9121170078740155
21
-1.6002185826771653
0
LINE
8
BLACK
6
CONTINUOUS
10
4.9121170078740155
20
-1.6002185826771653
11
4.9064127165354332
21
-1.5978557874015749
0
LINE
8
BLACK
6
CONTINUOUS
10
4.9064127165354332
20
-1.5978557874015749
11
4.9012789370078735
21
-1.5944255118110235
0
LINE
8
BLACK
6
CONTINUOUS
10
4.9012789370078735
20
-1.5944255118110235
11
4.8969130708661419
21
-1.5900596456692913
0
LINE
8
BLACK
6
CONTINUOUS
10
4.8969130708661419
20
-1.5900596456692913
11
4.8934827952755908
21
-1.5849258661417323
0
LINE
8
BLACK
6
CONTINUOUS
10
4.8934827952755908
20
-1.5849258661417323
11
4.8911199999999999
21
-1.5792215748031495
0
LINE
8
BLACK
6
CONTINUOUS
10
4.8911199999999999
20
-1.5792215748031495
11
4.8899154330708656
21
-1.573165905511811
0
LINE
8
BLACK
6
CONTINUOUS
10
4.8899154330708656
20
-1.573165905511811
11
4.8899154330708656
21
-1.5669915748031495
0
LINE
8
BLACK
6
CONTINUOUS
10
4.8899154330708656
20
-1.5669915748031495
11
4.8911199999999999
21
-1.5609359055118111
0
LINE
8
BLACK
6
CONTINUOUS
10
4.8911199999999999
20
-1.5609359055118111
11
4.8934827952755908
21
-1.5552316141732283
0
LINE
8
BLACK
6
CONTINUOUS
10
4.8934827952755908
20
-1.5552316141732283
11
4.8969130708661419
21
-1.5500978346456693
0
LINE
8
BLACK
6
CONTINUOUS
10
4.8969130708661419
20
-1.5500978346456693
11
4.9012789370078735
21
-1.545731968503937
0
LINE
8
BLACK
6
CONTINUOUS
10
4.9012789370078735
20
-1.545731968503937
11
4.9064127165354332
21
-1.5423016929133857
0
LINE
8
BLACK
6
CONTINUOUS
10
4.9064127165354332
20
-1.5423016929133857
11
4.9121170078740155
21
-1.5399388976377952
0
LINE
8
BLACK
6
CONTINUOUS
10
4.9121170078740155
20
-1.5399388976377952
11
4.9181726771653542
21
-1.5387343307086614
0
LINE
8
BLACK
6
CONTINUOUS
10
4.9181726771653542
20
-1.5387343307086614
11
4.9243470078740152
21
-1.5387343307086614
0
LINE
8
BLACK
6
CONTINUOUS
10
4.9243470078740152
20
-1.5387343307086614
11
4.930402677165354
21
-1.5399388976377952
0
LINE
8
BLACK
6
CONTINUOUS
10
5.3362316929133859
20
-1.7635062992125985
11
5.3433620866141727
21
-1.7664598031496062
0
LINE
8
BLACK
6
CONTINUOUS
10
5.3433620866141727
20
-1.7664598031496062
11
5.3497792519685037
21
-1.7707476377952756
0
LINE
8
BLACK
6
CONTINUOUS
10
5.3497792519685037
20
-1.7707476377952756
11
5.3552366141732284
21
-1.776205
0
LINE
8
BLACK
6
CONTINUOUS
10
5.3552366141732284
20
-1.776205
11
5.3595244488188971
21
-1.7826221653543306
0
LINE
8
BLACK
6
CONTINUOUS
10
5.3595244488188971
20
-1.7826221653543306
11
5.3624779527559054
21
-1.789752559055118
0
LINE
8
BLACK
6
CONTINUOUS
10
5.3624779527559054
20
-1.789752559055118
11
5.3639836614173229
21
-1.7973221653543308
0
LINE
8
BLACK
6
CONTINUOUS
10
5.3639836614173229
20
-1.7973221653543308
11
5.3639836614173229
21
-1.8050400393700787
0
LINE
8
BLACK
6
CONTINUOUS
10
5.3639836614173229
20
-1.8050400393700787
11
5.3624779527559054
21
-1.8126096456692913
0
LINE
8
BLACK
6
CONTINUOUS
10
5.3624779527559054
20
-1.8126096456692913
11
5.3595244488188971
21
-1.8197400393700787
0
LINE
8
BLACK
6
CONTINUOUS
10
5.3595244488188971
20
-1.8197400393700787
11
5.3552366141732284
21
-1.8261572047244095
0
LINE
8
BLACK
6
CONTINUOUS
10
5.3552366141732284
20
-1.8261572047244095
11
5.3497792519685037
21
-1.8316145669291337
0
LINE
8
BLACK
6
CONTINUOUS
10
5.3497792519685037
20
-1.8316145669291337
11
5.3433620866141727
21
-1.8359024015748031
0
LINE
8
BLACK
6
CONTINUOUS
10
5.3433620866141727
20
-1.8359024015748031
11
5.3362316929133859
21
-1.838855905511811
0
LINE
8
BLACK
6
CONTINUOUS
10
5.3362316929133859
20
-1.838855905511811
11
5.3286620866141732
21
-1.8403616141732284
0
LINE
8
BLACK
6
CONTINUOUS
10
5.3286620866141732
20
-1.8403616141732284
11
5.320944212598425
21
-1.8403616141732284
0
LINE
8
BLACK
6
CONTINUOUS
10
5.320944212598425
20
-1.8403616141732284
11
5.3133746062992122
21
-1.838855905511811
0
LINE
8
BLACK
6
CONTINUOUS
10
5.3133746062992122
20
-1.838855905511811
11
5.3062442125984255
21
-1.8359024015748031
0
LINE
8
BLACK
6
CONTINUOUS
10
5.3062442125984255
20
-1.8359024015748031
11
5.2998270472440945
21
-1.8316145669291337
0
LINE
8
BLACK
6
CONTINUOUS
10
5.2998270472440945
20
-1.8316145669291337
11
5.2943696850393698
21
-1.8261572047244095
0
LINE
8
BLACK
6
CONTINUOUS
10
5.2943696850393698
20
-1.8261572047244095
11
5.290081850393701
21
-1.8197400393700787
0
LINE
8
BLACK
6
CONTINUOUS
10
5.290081850393701
20
-1.8197400393700787
11
5.2871283464566927
21
-1.8126096456692913
0
LINE
8
BLACK
6
CONTINUOUS
10
5.2871283464566927
20
-1.8126096456692913
11
5.2856226377952753
21
-1.8050400393700787
0
LINE
8
BLACK
6
CONTINUOUS
10
5.2856226377952753
20
-1.8050400393700787
11
5.2856226377952753
21
-1.7973221653543308
0
LINE
8
BLACK
6
CONTINUOUS
10
5.2856226377952753
20
-1.7973221653543308
11
5.2871283464566927
21
-1.789752559055118
0
LINE
8
BLACK
6
CONTINUOUS
10
5.2871283464566927
20
-1.789752559055118
11
5.290081850393701
21
-1.7826221653543306
0
LINE
8
BLACK
6
CONTINUOUS
10
5.290081850393701
20
-1.7826221653543306
11
5.2943696850393698
21
-1.776205
0
LINE
8
BLACK
6
CONTINUOUS
10
5.2943696850393698
20
-1.776205
11
5.2998270472440945
21
-1.7707476377952756
0
LINE
8
BLACK
6
CONTINUOUS
10
5.2998270472440945
20
-1.7707476377952756
11
5.3062442125984255
21
-1.7664598031496062
0
LINE
8
BLACK
6
CONTINUOUS
10
5.3062442125984255
20
-1.7664598031496062
11
5.3133746062992122
21
-1.7635062992125985
0
LINE
8
BLACK
6
CONTINUOUS
10
5.3133746062992122
20
-1.7635062992125985
11
5.320944212598425
21
-1.7620005905511811
0
LINE
8
BLACK
6
CONTINUOUS
10
5.320944212598425
20
-1.7620005905511811
11
5.3286620866141732
21
-1.7620005905511811
0
LINE
8
BLACK
6
CONTINUOUS
10
5.3286620866141732
20
-1.7620005905511811
11
5.3362316929133859
21
-1.7635062992125985
0
LINE
8
BLACK
6
CONTINUOUS
10
5.5012688188976373
20
-1.5399388976377952
11
5.5069731102362205
21
-1.5423016929133857
0
LINE
8
BLACK
6
CONTINUOUS
10
5.5069731102362205
20
-1.5423016929133857
11
5.5121068897637793
21
-1.545731968503937
0
LINE
8
BLACK
6
CONTINUOUS
10
5.5121068897637793
20
-1.545731968503937
11
5.5164727559055118
21
-1.5500978346456693
0
LINE
8
BLACK
6
CONTINUOUS
10
5.5164727559055118
20
-1.5500978346456693
11
5.5199030314960629
21
-1.5552316141732283
0
LINE
8
BLACK
6
CONTINUOUS
10
5.5199030314960629
20
-1.5552316141732283
11
5.5222658267716538
21
-1.5609359055118111
0
LINE
8
BLACK
6
CONTINUOUS
10
5.5222658267716538
20
-1.5609359055118111
11
5.5234703937007872
21
-1.5669915748031495
0
LINE
8
BLACK
6
CONTINUOUS
10
5.5234703937007872
20
-1.5669915748031495
11
5.5234703937007872
21
-1.573165905511811
0
LINE
8
BLACK
6
CONTINUOUS
10
5.5234703937007872
20
-1.573165905511811
11
5.5222658267716538
21
-1.5792215748031495
0
LINE
8
BLACK
6
CONTINUOUS
10
5.5222658267716538
20
-1.5792215748031495
11
5.5199030314960629
21
-1.5849258661417323
0
LINE
8
BLACK
6
CONTINUOUS
10
5.5199030314960629
20
-1.5849258661417323
11
5.5164727559055118
21
-1.5900596456692913
0
LINE
8
BLACK
6
CONTINUOUS
10
5.5164727559055118
20
-1.5900596456692913
11
5.5121068897637793
21
-1.5944255118110235
0
LINE
8
BLACK
6
CONTINUOUS
10
5.5121068897637793
20
-1.5944255118110235
11
5.5069731102362205
21
-1.5978557874015749
0
LINE
8
BLACK
6
CONTINUOUS
10
5.5069731102362205
20
-1.5978557874015749
11
5.5012688188976373
21
-1.6002185826771653
0
LINE
8
BLACK
6
CONTINUOUS
10
5.5012688188976373
20
-1.6002185826771653
11
5.4960629921259843
21
-1.601254094488189
0
LINE
8
BLACK
6
CONTINUOUS
10
5.4960629921259843
20
-1.601254094488189
11
5.4960629921259843
21
-1.6519125196850393
0
LINE
8
BLACK
6
CONTINUOUS
10
5.4960629921259843
20
-1.6519125196850393
11
5.6148538582677165
21
-1.7707033858267716
0
LINE
8
BLACK
6
CONTINUOUS
10
5.6148538582677165
20
-1.7707033858267716
11
5.6212048425196848
21
-1.7664598031496062
0
LINE
8
BLACK
6
CONTINUOUS
10
5.6212048425196848
20
-1.7664598031496062
11
5.6283352362204724
21
-1.7635062992125985
0
LINE
8
BLACK
6
CONTINUOUS
10
5.6283352362204724
20
-1.7635062992125985
11
5.6359048425196852
21
-1.7620005905511811
0
LINE
8
BLACK
6
CONTINUOUS
10
5.6359048425196852
20
-1.7620005905511811
11
5.6436227165354333
21
-1.7620005905511811
0
LINE
8
BLACK
6
CONTINUOUS
10
5.6436227165354333
20
-1.7620005905511811
11
5.6511923228346452
21
-1.7635062992125985
0
LINE
8
BLACK
6
CONTINUOUS
10
5.6511923228346452
20
-1.7635062992125985
11
5.6583227165354328
21
-1.7664598031496062
0
LINE
8
BLACK
6
CONTINUOUS
10
5.6583227165354328
20
-1.7664598031496062
11
5.6647398818897639
21
-1.7707476377952756
0
LINE
8
BLACK
6
CONTINUOUS
10
5.6647398818897639
20
-1.7707476377952756
11
5.6701972440944877
21
-1.776205
0
LINE
8
BLACK
6
CONTINUOUS
10
5.6701972440944877
20
-1.776205
11
5.6744850787401573
21
-1.7826221653543306
0
LINE
8
BLACK
6
CONTINUOUS
10
5.6744850787401573
20
-1.7826221653543306
11
5.6774385826771656
21
-1.789752559055118
0
LINE
8
BLACK
6
CONTINUOUS
10
5.6774385826771656
20
-1.789752559055118
11
5.6789442913385821
21
-1.7973221653543308
0
LINE
8
BLACK
6
CONTINUOUS
10
5.6789442913385821
20
-1.7973221653543308
11
5.6789442913385821
21
-1.8050400393700787
0
LINE
8
BLACK
6
CONTINUOUS
10
5.6789442913385821
20
-1.8050400393700787
11
5.6774385826771656
21
-1.8126096456692913
0
LINE
8
BLACK
6
CONTINUOUS
10
5.6774385826771656
20
-1.8126096456692913
11
5.6744850787401573
21
-1.8197400393700787
0
LINE
8
BLACK
6
CONTINUOUS
10
5.6744850787401573
20
-1.8197400393700787
11
5.6701972440944877
21
-1.8261572047244095
0
LINE
8
BLACK
6
CONTINUOUS
10
5.6701972440944877
20
-1.8261572047244095
11
5.6647398818897639
21
-1.8316145669291337
0
LINE
8
BLACK
6
CONTINUOUS
10
5.6647398818897639
20
-1.8316145669291337
11
5.6583227165354328
21
-1.8359024015748031
0
LINE
8
BLACK
6
CONTINUOUS
10
5.6583227165354328
20
-1.8359024015748031
11
5.6511923228346452
21
-1.838855905511811
0
LINE
8
BLACK
6
CONTINUOUS
10
5.6511923228346452
20
-1.838855905511811
11
5.6436227165354333
21
-1.8403616141732284
0
LINE
8
BLACK
6
CONTINUOUS
10
5.6436227165354333
20
-1.8403616141732284
11
5.6359048425196852
21
-1.8403616141732284
0
LINE
8
BLACK
6
CONTINUOUS
10
5.6359048425196852
20
-1.8403616141732284
11
5.6283352362204724
21
-1.838855905511811
0
LINE
8
BLACK
6
CONTINUOUS
10
5.6283352362204724
20
-1.838855905511811
11
5.6212048425196848
21
-1.8359024015748031
0
LINE
8
BLACK
6
CONTINUOUS
10
5.6212048425196848
20
-1.8359024015748031
11
5.6147876771653538
21
-1.8316145669291337
0
LINE
8
BLACK
6
CONTINUOUS
10
5.6147876771653538
20
-1.8316145669291337
11
5.6093303149606299
21
-1.8261572047244095
0
LINE
8
BLACK
6
CONTINUOUS
10
5.6093303149606299
20
-1.8261572047244095
11
5.6050424803149603
21
-1.8197400393700787
0
LINE
8
BLACK
6
CONTINUOUS
10
5.6050424803149603
20
-1.8197400393700787
11
5.6020889763779529
21
-1.8126096456692913
0
LINE
8
BLACK
6
CONTINUOUS
10
5.6020889763779529
20
-1.8126096456692913
11
5.6005832677165355
21
-1.8050400393700787
0
LINE
8
BLACK
6
CONTINUOUS
10
5.6005832677165355
20
-1.8050400393700787
11
5.6005832677165355
21
-1.7973221653543308
0
LINE
8
BLACK
6
CONTINUOUS
10
5.6005832677165355
20
-1.7973221653543308
11
5.6020889763779529
21
-1.789752559055118
0
LINE
8
BLACK
6
CONTINUOUS
10
5.6020889763779529
20
-1.789752559055118
11
5.6050424803149603
21
-1.7826221653543306
0
LINE
8
BLACK
6
CONTINUOUS
10
5.6050424803149603
20
-1.7826221653543306
11
5.6092860629921262
21
-1.7762711811023622
0
LINE
8
BLACK
6
CONTINUOUS
10
5.6092860629921262
20
-1.7762711811023622
11
5.4893420866141733
21
-1.6563272047244093
0
LINE
8
BLACK
6
CONTINUOUS
10
5.4893420866141733
20
-1.6563272047244093
11
5.4888524803149608
21
-1.655730590551181
0
LINE
8
BLACK
6
CONTINUOUS
10
5.4888524803149608
20
-1.655730590551181
11
5.4882646062992126
21
-1.6543113779527558
0
LINE
8
BLACK
6
CONTINUOUS
10
5.4882646062992126
20
-1.6543113779527558
11
5.4881889763779528
21
-1.6535433070866141
0
LINE
8
BLACK
6
CONTINUOUS
10
5.4881889763779528
20
-1.6535433070866141
11
5.4881889763779528
21
-1.601254094488189
0
LINE
8
BLACK
6
CONTINUOUS
10
5.4881889763779528
20
-1.601254094488189
11
5.4829831496062988
21
-1.6002185826771653
0
LINE
8
BLACK
6
CONTINUOUS
10
5.4829831496062988
20
-1.6002185826771653
11
5.4772788582677165
21
-1.5978557874015749
0
LINE
8
BLACK
6
CONTINUOUS
10
5.4772788582677165
20
-1.5978557874015749
11
5.4721450787401578
21
-1.5944255118110235
0
LINE
8
BLACK
6
CONTINUOUS
10
5.4721450787401578
20
-1.5944255118110235
11
5.4677792125984253
21
-1.5900596456692913
0
LINE
8
BLACK
6
CONTINUOUS
10
5.4677792125984253
20
-1.5900596456692913
11
5.4643489370078742
21
-1.5849258661417323
0
LINE
8
BLACK
6
CONTINUOUS
10
5.4643489370078742
20
-1.5849258661417323
11
5.4619861417322833
21
-1.5792215748031495
0
LINE
8
BLACK
6
CONTINUOUS
10
5.4619861417322833
20
-1.5792215748031495
11
5.4607815748031499
21
-1.573165905511811
0
LINE
8
BLACK
6
CONTINUOUS
10
5.4607815748031499
20
-1.573165905511811
11
5.4607815748031499
21
-1.5669915748031495
0
LINE
8
BLACK
6
CONTINUOUS
10
5.4607815748031499
20
-1.5669915748031495
11
5.4619861417322833
21
-1.5609359055118111
0
LINE
8
BLACK
6
CONTINUOUS
10
5.4619861417322833
20
-1.5609359055118111
11
5.4643489370078742
21
-1.5552316141732283
0
LINE
8
BLACK
6
CONTINUOUS
10
5.4643489370078742
20
-1.5552316141732283
11
5.4677792125984253
21
-1.5500978346456693
0
LINE
8
BLACK
6
CONTINUOUS
10
5.4677792125984253
20
-1.5500978346456693
11
5.4721450787401578
21
-1.545731968503937
0
LINE
8
BLACK
6
CONTINUOUS
10
5.4721450787401578
20
-1.545731968503937
11
5.4772788582677165
21
-1.5423016929133857
0
LINE
8
BLACK
6
CONTINUOUS
10
5.4772788582677165
20
-1.5423016929133857
11
5.4829831496062988
21
-1.5399388976377952
0
LINE
8
BLACK
6
CONTINUOUS
10
5.4829831496062988
20
-1.5399388976377952
11
5.4890388188976376
21
-1.5387343307086614
0
LINE
8
BLACK
6
CONTINUOUS
10
5.4890388188976376
20
-1.5387343307086614
11
5.4952131496062995
21
-1.5387343307086614
0
LINE
8
BLACK
6
CONTINUOUS
10
5.4952131496062995
20
-1.5387343307086614
11
5.5012688188976373
21
-1.5399388976377952
0
LINE
8
BLACK
6
CONTINUOUS
10
5.9070978346456693
20
-1.7635062992125985
11
5.9142282283464569
21
-1.7664598031496062
0
LINE
8
BLACK
6
CONTINUOUS
10
5.9142282283464569
20
-1.7664598031496062
11
5.920645393700787
21
-1.7707476377952756
0
LINE
8
BLACK
6
CONTINUOUS
10
5.920645393700787
20
-1.7707476377952756
11
5.9261027559055117
21
-1.776205
0
LINE
8
BLACK
6
CONTINUOUS
10
5.9261027559055117
20
-1.776205
11
5.9303905905511813
21
-1.7826221653543306
0
LINE
8
BLACK
6
CONTINUOUS
10
5.9303905905511813
20
-1.7826221653543306
11
5.9333440944881888
21
-1.789752559055118
0
LINE
8
BLACK
6
CONTINUOUS
10
5.9333440944881888
20
-1.789752559055118
11
5.9348498031496062
21
-1.7973221653543308
0
LINE
8
BLACK
6
CONTINUOUS
10
5.9348498031496062
20
-1.7973221653543308
11
5.9348498031496062
21
-1.8050400393700787
0
LINE
8
BLACK
6
CONTINUOUS
10
5.9348498031496062
20
-1.8050400393700787
11
5.9333440944881888
21
-1.8126096456692913
0
LINE
8
BLACK
6
CONTINUOUS
10
5.9333440944881888
20
-1.8126096456692913
11
5.9303905905511813
21
-1.8197400393700787
0
LINE
8
BLACK
6
CONTINUOUS
10
5.9303905905511813
20
-1.8197400393700787
11
5.9261027559055117
21
-1.8261572047244095
0
LINE
8
BLACK
6
CONTINUOUS
10
5.9261027559055117
20
-1.8261572047244095
11
5.920645393700787
21
-1.8316145669291337
0
LINE
8
BLACK
6
CONTINUOUS
10
5.920645393700787
20
-1.8316145669291337
11
5.9142282283464569
21
-1.8359024015748031
0
LINE
8
BLACK
6
CONTINUOUS
10
5.9142282283464569
20
-1.8359024015748031
11
5.9070978346456693
21
-1.838855905511811
0
LINE
8
BLACK
6
CONTINUOUS
10
5.9070978346456693
20
-1.838855905511811
11
5.8995282283464565
21
-1.8403616141732284
0
LINE
8
BLACK
6
CONTINUOUS
10
5.8995282283464565
20
-1.8403616141732284
11
5.8918103543307083
21
-1.8403616141732284
0
LINE
8
BLACK
6
CONTINUOUS
10
5.8918103543307083
20
-1.8403616141732284
11
5.8842407480314955
21
-1.838855905511811
0
LINE
8
BLACK
6
CONTINUOUS
10
5.8842407480314955
20
-1.838855905511811
11
5.8771103543307088
21
-1.8359024015748031
0
LINE
8
BLACK
6
CONTINUOUS
10
5.8771103543307088
20
-1.8359024015748031
11
5.8706931889763778
21
-1.8316145669291337
0
LINE
8
BLACK
6
CONTINUOUS
10
5.8706931889763778
20
-1.8316145669291337
11
5.8652358267716531
21
-1.8261572047244095
0
LINE
8
BLACK
6
CONTINUOUS
10
5.8652358267716531
20
-1.8261572047244095
11
5.8609479921259844
21
-1.8197400393700787
0
LINE
8
BLACK
6
CONTINUOUS
10
5.8609479921259844
20
-1.8197400393700787
11
5.8579944881889761
21
-1.8126096456692913
0
LINE
8
BLACK
6
CONTINUOUS
10
5.8579944881889761
20
-1.8126096456692913
11
5.8564887795275586
21
-1.8050400393700787
0
LINE
8
BLACK
6
CONTINUOUS
10
5.8564887795275586
20
-1.8050400393700787
11
5.8564887795275586
21
-1.7973221653543308
0
LINE
8
BLACK
6
CONTINUOUS
10
5.8564887795275586
20
-1.7973221653543308
11
5.8579944881889761
21
-1.789752559055118
0
LINE
8
BLACK
6
CONTINUOUS
10
5.8579944881889761
20
-1.789752559055118
11
5.8609479921259844
21
-1.7826221653543306
0
LINE
8
BLACK
6
CONTINUOUS
10
5.8609479921259844
20
-1.7826221653543306
11
5.8652358267716531
21
-1.776205
0
LINE
8
BLACK
6
CONTINUOUS
10
5.8652358267716531
20
-1.776205
11
5.8706931889763778
21
-1.7707476377952756
0
LINE
8
BLACK
6
CONTINUOUS
10
5.8706931889763778
20
-1.7707476377952756
11
5.8771103543307088
21
-1.7664598031496062
0
LINE
8
BLACK
6
CONTINUOUS
10
5.8771103543307088
20
-1.7664598031496062
11
5.8842407480314955
21
-1.7635062992125985
0
LINE
8
BLACK
6
CONTINUOUS
10
5.8842407480314955
20
-1.7635062992125985
11
5.8918103543307083
21
-1.7620005905511811
0
LINE
8
BLACK
6
CONTINUOUS
10
5.8918103543307083
20
-1.7620005905511811
11
5.8995282283464565
21
-1.7620005905511811
0
LINE
8
BLACK
6
CONTINUOUS
10
5.8995282283464565
20
-1.7620005905511811
11
5.9070978346456693
21
-1.7635062992125985
0
LINE
8
BLACK
6
CONTINUOUS
10
1.8606793700787401
20
-1.6861714173228346
11
1.8670967322834646
21
-1.6888295669291338
0
LINE
8
BLACK
6
CONTINUOUS
10
1.8670967322834646
20
-1.6888295669291338
11
1.8728722047244093
21
-1.6926886220472441
0
LINE
8
BLACK
6
CONTINUOUS
10
1.8728722047244093
20
-1.6926886220472441
11
1.8777838188976377
21
-1.6976002362204723
0
LINE
8
BLACK
6
CONTINUOUS
10
1.8777838188976377
20
-1.6976002362204723
11
1.881642874015748
21
-1.7033757086614172
0
LINE
8
BLACK
6
CONTINUOUS
10
1.881642874015748
20
-1.7033757086614172
11
1.8843010236220472
21
-1.7097930708661417
0
LINE
8
BLACK
6
CONTINUOUS
10
1.8843010236220472
20
-1.7097930708661417
11
1.8856561417322835
21
-1.7166057086614173
0
LINE
8
BLACK
6
CONTINUOUS
10
1.8856561417322835
20
-1.7166057086614173
11
1.8856561417322835
21
-1.7235517716535433
0
LINE
8
BLACK
6
CONTINUOUS
10
1.8856561417322835
20
-1.7235517716535433
11
1.8843010236220472
21
-1.7303644094488189
0
LINE
8
BLACK
6
CONTINUOUS
10
1.8843010236220472
20
-1.7303644094488189
11
1.881642874015748
21
-1.7367817716535432
0
LINE
8
BLACK
6
CONTINUOUS
10
1.881642874015748
20
-1.7367817716535432
11
1.8777838188976377
21
-1.7425572440944881
0
LINE
8
BLACK
6
CONTINUOUS
10
1.8777838188976377
20
-1.7425572440944881
11
1.8728722047244093
21
-1.7474688582677165
0
LINE
8
BLACK
6
CONTINUOUS
10
1.8728722047244093
20
-1.7474688582677165
11
1.8670967322834646
21
-1.7513279133858268
0
LINE
8
BLACK
6
CONTINUOUS
10
1.8670967322834646
20
-1.7513279133858268
11
1.8606793700787401
21
-1.753986062992126
0
LINE
8
BLACK
6
CONTINUOUS
10
1.8606793700787401
20
-1.753986062992126
11
1.8538667322834645
21
-1.7553411811023623
0
LINE
8
BLACK
6
CONTINUOUS
10
1.8538667322834645
20
-1.7553411811023623
11
1.8469206692913385
21
-1.7553411811023623
0
LINE
8
BLACK
6
CONTINUOUS
10
1.8469206692913385
20
-1.7553411811023623
11
1.8401080314960629
21
-1.753986062992126
0
LINE
8
BLACK
6
CONTINUOUS
10
1.8401080314960629
20
-1.753986062992126
11
1.8336906692913386
21
-1.7513279133858268
0
LINE
8
BLACK
6
CONTINUOUS
10
1.8336906692913386
20
-1.7513279133858268
11
1.8279151968503937
21
-1.7474688582677165
0
LINE
8
BLACK
6
CONTINUOUS
10
1.8279151968503937
20
-1.7474688582677165
11
1.8230035826771653
21
-1.7425572440944881
0
LINE
8
BLACK
6
CONTINUOUS
10
1.8230035826771653
20
-1.7425572440944881
11
1.819144527559055
21
-1.7367817716535432
0
LINE
8
BLACK
6
CONTINUOUS
10
1.819144527559055
20
-1.7367817716535432
11
1.8164863779527558
21
-1.7303644094488189
0
LINE
8
BLACK
6
CONTINUOUS
10
1.8164863779527558
20
-1.7303644094488189
11
1.8151312598425196
21
-1.7235517716535433
0
LINE
8
BLACK
6
CONTINUOUS
10
1.8151312598425196
20
-1.7235517716535433
11
1.8151312598425196
21
-1.7166057086614173
0
LINE
8
BLACK
6
CONTINUOUS
10
1.8151312598425196
20
-1.7166057086614173
11
1.8164863779527558
21
-1.7097930708661417
0
LINE
8
BLACK
6
CONTINUOUS
10
1.8164863779527558
20
-1.7097930708661417
11
1.819144527559055
21
-1.7033757086614172
0
LINE
8
BLACK
6
CONTINUOUS
10
1.819144527559055
20
-1.7033757086614172
11
1.8230035826771653
21
-1.6976002362204723
0
LINE
8
BLACK
6
CONTINUOUS
10
1.8230035826771653
20
-1.6976002362204723
11
1.8279151968503937
21
-1.6926886220472441
0
LINE
8
BLACK
6
CONTINUOUS
10
1.8279151968503937
20
-1.6926886220472441
11
1.8336906692913386
21
-1.6888295669291338
0
LINE
8
BLACK
6
CONTINUOUS
10
1.8336906692913386
20
-1.6888295669291338
11
1.8401080314960629
21
-1.6861714173228346
0
LINE
8
BLACK
6
CONTINUOUS
10
1.8401080314960629
20
-1.6861714173228346
11
1.8469206692913385
21
-1.6848162992125983
0
LINE
8
BLACK
6
CONTINUOUS
10
1.8469206692913385
20
-1.6848162992125983
11
1.8538667322834645
21
-1.6848162992125983
0
LINE
8
BLACK
6
CONTINUOUS
10
1.8538667322834645
20
-1.6848162992125983
11
1.8606793700787401
21
-1.6861714173228346
0
LINE
8
BLACK
6
CONTINUOUS
10
5.0803261811023619
20
-1.5863409448818897
11
5.0874565748031495
21
-1.5892944488188976
0
LINE
8
BLACK
6
CONTINUOUS
10
5.0874565748031495
20
-1.5892944488188976
11
5.0938737401574805
21
-1.593582283464567
0
LINE
8
BLACK
6
CONTINUOUS
10
5.0938737401574805
20
-1.593582283464567
11
5.0993311023622043
21
-1.5990396456692912
0
LINE
8
BLACK
6
CONTINUOUS
10
5.0993311023622043
20
-1.5990396456692912
11
5.1036189370078739
21
-1.605456811023622
0
LINE
8
BLACK
6
CONTINUOUS
10
5.1036189370078739
20
-1.605456811023622
11
5.1065724409448814
21
-1.6125872047244094
0
LINE
8
BLACK
6
CONTINUOUS
10
5.1065724409448814
20
-1.6125872047244094
11
5.1080781496062988
21
-1.620156811023622
0
LINE
8
BLACK
6
CONTINUOUS
10
5.1080781496062988
20
-1.620156811023622
11
5.1080781496062988
21
-1.6278746850393699
0
LINE
8
BLACK
6
CONTINUOUS
10
5.1080781496062988
20
-1.6278746850393699
11
5.1065724409448814
21
-1.6354442913385827
0
LINE
8
BLACK
6
CONTINUOUS
10
5.1065724409448814
20
-1.6354442913385827
11
5.1036189370078739
21
-1.6425746850393701
0
LINE
8
BLACK
6
CONTINUOUS
10
5.1036189370078739
20
-1.6425746850393701
11
5.0993311023622043
21
-1.6489918503937007
0
LINE
8
BLACK
6
CONTINUOUS
10
5.0993311023622043
20
-1.6489918503937007
11
5.0938737401574805
21
-1.6544492125984251
0
LINE
8
BLACK
6
CONTINUOUS
10
5.0938737401574805
20
-1.6544492125984251
11
5.0874565748031495
21
-1.6587370472440945
0
LINE
8
BLACK
6
CONTINUOUS
10
5.0874565748031495
20
-1.6587370472440945
11
5.0803261811023619
21
-1.6616905511811024
0
LINE
8
BLACK
6
CONTINUOUS
10
5.0803261811023619
20
-1.6616905511811024
11
5.0727565748031491
21
-1.6631962598425196
0
LINE
8
BLACK
6
CONTINUOUS
10
5.0727565748031491
20
-1.6631962598425196
11
5.0650387007874018
21
-1.6631962598425196
0
LINE
8
BLACK
6
CONTINUOUS
10
5.0650387007874018
20
-1.6631962598425196
11
5.057469094488189
21
-1.6616905511811024
0
LINE
8
BLACK
6
CONTINUOUS
10
5.057469094488189
20
-1.6616905511811024
11
5.0503387007874014
21
-1.6587370472440945
0
LINE
8
BLACK
6
CONTINUOUS
10
5.0503387007874014
20
-1.6587370472440945
11
5.0439215354330704
21
-1.6544492125984251
0
LINE
8
BLACK
6
CONTINUOUS
10
5.0439215354330704
20
-1.6544492125984251
11
5.0384641732283466
21
-1.6489918503937007
0
LINE
8
BLACK
6
CONTINUOUS
10
5.0384641732283466
20
-1.6489918503937007
11
5.034176338582677
21
-1.6425746850393701
0
LINE
8
BLACK
6
CONTINUOUS
10
5.034176338582677
20
-1.6425746850393701
11
5.0312228346456696
21
-1.6354442913385827
0
LINE
8
BLACK
6
CONTINUOUS
10
5.0312228346456696
20
-1.6354442913385827
11
5.0297171259842521
21
-1.6278746850393699
0
LINE
8
BLACK
6
CONTINUOUS
10
5.0297171259842521
20
-1.6278746850393699
11
5.0297171259842521
21
-1.620156811023622
0
LINE
8
BLACK
6
CONTINUOUS
10
5.0297171259842521
20
-1.620156811023622
11
5.0312228346456696
21
-1.6125872047244094
0
LINE
8
BLACK
6
CONTINUOUS
10
5.0312228346456696
20
-1.6125872047244094
11
5.034176338582677
21
-1.605456811023622
0
LINE
8
BLACK
6
CONTINUOUS
10
5.034176338582677
20
-1.605456811023622
11
5.0384641732283466
21
-1.5990396456692912
0
LINE
8
BLACK
6
CONTINUOUS
10
5.0384641732283466
20
-1.5990396456692912
11
5.0439215354330704
21
-1.593582283464567
0
LINE
8
BLACK
6
CONTINUOUS
10
5.0439215354330704
20
-1.593582283464567
11
5.0503387007874014
21
-1.5892944488188976
0
LINE
8
BLACK
6
CONTINUOUS
10
5.0503387007874014
20
-1.5892944488188976
11
5.057469094488189
21
-1.5863409448818897
0
LINE
8
BLACK
6
CONTINUOUS
10
5.057469094488189
20
-1.5863409448818897
11
5.0650387007874018
21
-1.5848352362204725
0
LINE
8
BLACK
6
CONTINUOUS
10
5.0650387007874018
20
-1.5848352362204725
11
5.0727565748031491
21
-1.5848352362204725
0
LINE
8
BLACK
6
CONTINUOUS
10
5.0727565748031491
20
-1.5848352362204725
11
5.0803261811023619
21
-1.5863409448818897
0
LINE
8
BLACK
6
CONTINUOUS
10
5.3362316929133859
20
-1.5863409448818897
11
5.3433620866141727
21
-1.5892944488188976
0
LINE
8
BLACK
6
CONTINUOUS
10
5.3433620866141727
20
-1.5892944488188976
11
5.3497792519685037
21
-1.593582283464567
0
LINE
8
BLACK
6
CONTINUOUS
10
5.3497792519685037
20
-1.593582283464567
11
5.3552366141732284
21
-1.5990396456692912
0
LINE
8
BLACK
6
CONTINUOUS
10
5.3552366141732284
20
-1.5990396456692912
11
5.3595244488188971
21
-1.605456811023622
0
LINE
8
BLACK
6
CONTINUOUS
10
5.3595244488188971
20
-1.605456811023622
11
5.3624779527559054
21
-1.6125872047244094
0
LINE
8
BLACK
6
CONTINUOUS
10
5.3624779527559054
20
-1.6125872047244094
11
5.3639836614173229
21
-1.620156811023622
0
LINE
8
BLACK
6
CONTINUOUS
10
5.3639836614173229
20
-1.620156811023622
11
5.3639836614173229
21
-1.6278746850393699
0
LINE
8
BLACK
6
CONTINUOUS
10
5.3639836614173229
20
-1.6278746850393699
11
5.3624779527559054
21
-1.6354442913385827
0
LINE
8
BLACK
6
CONTINUOUS
10
5.3624779527559054
20
-1.6354442913385827
11
5.3595244488188971
21
-1.6425746850393701
0
LINE
8
BLACK
6
CONTINUOUS
10
5.3595244488188971
20
-1.6425746850393701
11
5.3552366141732284
21
-1.6489918503937007
0
LINE
8
BLACK
6
CONTINUOUS
10
5.3552366141732284
20
-1.6489918503937007
11
5.3497792519685037
21
-1.6544492125984251
0
LINE
8
BLACK
6
CONTINUOUS
10
5.3497792519685037
20
-1.6544492125984251
11
5.3433620866141727
21
-1.6587370472440945
0
LINE
8
BLACK
6
CONTINUOUS
10
5.3433620866141727
20
-1.6587370472440945
11
5.3362316929133859
21
-1.6616905511811024
0
LINE
8
BLACK
6
CONTINUOUS
10
5.3362316929133859
20
-1.6616905511811024
11
5.3286620866141732
21
-1.6631962598425196
0
LINE
8
BLACK
6
CONTINUOUS
10
5.3286620866141732
20
-1.6631962598425196
11
5.320944212598425
21
-1.6631962598425196
0
LINE
8
BLACK
6
CONTINUOUS
10
5.320944212598425
20
-1.6631962598425196
11
5.3133746062992122
21
-1.6616905511811024
0
LINE
8
BLACK
6
CONTINUOUS
10
5.3133746062992122
20
-1.6616905511811024
11
5.3062442125984255
21
-1.6587370472440945
0
LINE
8
BLACK
6
CONTINUOUS
10
5.3062442125984255
20
-1.6587370472440945
11
5.2998270472440945
21
-1.6544492125984251
0
LINE
8
BLACK
6
CONTINUOUS
10
5.2998270472440945
20
-1.6544492125984251
11
5.2943696850393698
21
-1.6489918503937007
0
LINE
8
BLACK
6
CONTINUOUS
10
5.2943696850393698
20
-1.6489918503937007
11
5.290081850393701
21
-1.6425746850393701
0
LINE
8
BLACK
6
CONTINUOUS
10
5.290081850393701
20
-1.6425746850393701
11
5.2871283464566927
21
-1.6354442913385827
0
LINE
8
BLACK
6
CONTINUOUS
10
5.2871283464566927
20
-1.6354442913385827
11
5.2856226377952753
21
-1.6278746850393699
0
LINE
8
BLACK
6
CONTINUOUS
10
5.2856226377952753
20
-1.6278746850393699
11
5.2856226377952753
21
-1.620156811023622
0
LINE
8
BLACK
6
CONTINUOUS
10
5.2856226377952753
20
-1.620156811023622
11
5.2871283464566927
21
-1.6125872047244094
0
LINE
8
BLACK
6
CONTINUOUS
10
5.2871283464566927
20
-1.6125872047244094
11
5.290081850393701
21
-1.605456811023622
0
LINE
8
BLACK
6
CONTINUOUS
10
5.290081850393701
20
-1.605456811023622
11
5.2943696850393698
21
-1.5990396456692912
0
LINE
8
BLACK
6
CONTINUOUS
10
5.2943696850393698
20
-1.5990396456692912
11
5.2998270472440945
21
-1.593582283464567
0
LINE
8
BLACK
6
CONTINUOUS
10
5.2998270472440945
20
-1.593582283464567
11
5.3062442125984255
21
-1.5892944488188976
0
LINE
8
BLACK
6
CONTINUOUS
10
5.3062442125984255
20
-1.5892944488188976
11
5.3133746062992122
21
-1.5863409448818897
0
LINE
8
BLACK
6
CONTINUOUS
10
5.3133746062992122
20
-1.5863409448818897
11
5.320944212598425
21
-1.5848352362204725
0
LINE
8
BLACK
6
CONTINUOUS
10
5.320944212598425
20
-1.5848352362204725
11
5.3286620866141732
21
-1.5848352362204725
0
LINE
8
BLACK
6
CONTINUOUS
10
5.3286620866141732
20
-1.5848352362204725
11
5.3362316929133859
21
-1.5863409448818897
0
LINE
8
BLACK
6
CONTINUOUS
10
5.6511923228346452
20
-1.5863409448818897
11
5.6583227165354328
21
-1.5892944488188976
0
LINE
8
BLACK
6
CONTINUOUS
10
5.6583227165354328
20
-1.5892944488188976
11
5.6647398818897639
21
-1.593582283464567
0
LINE
8
BLACK
6
CONTINUOUS
10
5.6647398818897639
20
-1.593582283464567
11
5.6701972440944877
21
-1.5990396456692912
0
LINE
8
BLACK
6
CONTINUOUS
10
5.6701972440944877
20
-1.5990396456692912
11
5.6744850787401573
21
-1.605456811023622
0
LINE
8
BLACK
6
CONTINUOUS
10
5.6744850787401573
20
-1.605456811023622
11
5.6774385826771656
21
-1.6125872047244094
0
LINE
8
BLACK
6
CONTINUOUS
10
5.6774385826771656
20
-1.6125872047244094
11
5.6789442913385821
21
-1.620156811023622
0
LINE
8
BLACK
6
CONTINUOUS
10
5.6789442913385821
20
-1.620156811023622
11
5.6789442913385821
21
-1.6278746850393699
0
LINE
8
BLACK
6
CONTINUOUS
10
5.6789442913385821
20
-1.6278746850393699
11
5.6774385826771656
21
-1.6354442913385827
0
LINE
8
BLACK
6
CONTINUOUS
10
5.6774385826771656
20
-1.6354442913385827
11
5.6744850787401573
21
-1.6425746850393701
0
LINE
8
BLACK
6
CONTINUOUS
10
5.6744850787401573
20
-1.6425746850393701
11
5.6701972440944877
21
-1.6489918503937007
0
LINE
8
BLACK
6
CONTINUOUS
10
5.6701972440944877
20
-1.6489918503937007
11
5.6647398818897639
21
-1.6544492125984251
0
LINE
8
BLACK
6
CONTINUOUS
10
5.6647398818897639
20
-1.6544492125984251
11
5.6583227165354328
21
-1.6587370472440945
0
LINE
8
BLACK
6
CONTINUOUS
10
5.6583227165354328
20
-1.6587370472440945
11
5.6511923228346452
21
-1.6616905511811024
0
LINE
8
BLACK
6
CONTINUOUS
10
5.6511923228346452
20
-1.6616905511811024
11
5.6436227165354333
21
-1.6631962598425196
0
LINE
8
BLACK
6
CONTINUOUS
10
5.6436227165354333
20
-1.6631962598425196
11
5.6359048425196852
21
-1.6631962598425196
0
LINE
8
BLACK
6
CONTINUOUS
10
5.6359048425196852
20
-1.6631962598425196
11
5.6283352362204724
21
-1.6616905511811024
0
LINE
8
BLACK
6
CONTINUOUS
10
5.6283352362204724
20
-1.6616905511811024
11
5.6212048425196848
21
-1.6587370472440945
0
LINE
8
BLACK
6
CONTINUOUS
10
5.6212048425196848
20
-1.6587370472440945
11
5.6147876771653538
21
-1.6544492125984251
0
LINE
8
BLACK
6
CONTINUOUS
10
5.6147876771653538
20
-1.6544492125984251
11
5.6093303149606299
21
-1.6489918503937007
0
LINE
8
BLACK
6
CONTINUOUS
10
5.6093303149606299
20
-1.6489918503937007
11
5.6050424803149603
21
-1.6425746850393701
0
LINE
8
BLACK
6
CONTINUOUS
10
5.6050424803149603
20
-1.6425746850393701
11
5.6020889763779529
21
-1.6354442913385827
0
LINE
8
BLACK
6
CONTINUOUS
10
5.6020889763779529
20
-1.6354442913385827
11
5.6005832677165355
21
-1.6278746850393699
0
LINE
8
BLACK
6
CONTINUOUS
10
5.6005832677165355
20
-1.6278746850393699
11
5.6005832677165355
21
-1.620156811023622
0
LINE
8
BLACK
6
CONTINUOUS
10
5.6005832677165355
20
-1.620156811023622
11
5.6020889763779529
21
-1.6125872047244094
0
LINE
8
BLACK
6
CONTINUOUS
10
5.6020889763779529
20
-1.6125872047244094
11
5.6050424803149603
21
-1.605456811023622
0
LINE
8
BLACK
6
CONTINUOUS
10
5.6050424803149603
20
-1.605456811023622
11
5.6093303149606299
21
-1.5990396456692912
0
LINE
8
BLACK
6
CONTINUOUS
10
5.6093303149606299
20
-1.5990396456692912
11
5.6147876771653538
21
-1.593582283464567
0
LINE
8
BLACK
6
CONTINUOUS
10
5.6147876771653538
20
-1.593582283464567
11
5.6212048425196848
21
-1.5892944488188976
0
LINE
8
BLACK
6
CONTINUOUS
10
5.6212048425196848
20
-1.5892944488188976
11
5.6283352362204724
21
-1.5863409448818897
0
LINE
8
BLACK
6
CONTINUOUS
10
5.6283352362204724
20
-1.5863409448818897
11
5.6359048425196852
21
-1.5848352362204725
0
LINE
8
BLACK
6
CONTINUOUS
10
5.6359048425196852
20
-1.5848352362204725
11
5.6436227165354333
21
-1.5848352362204725
0
LINE
8
BLACK
6
CONTINUOUS
10
5.6436227165354333
20
-1.5848352362204725
11
5.6511923228346452
21
-1.5863409448818897
0
LINE
8
BLACK
6
CONTINUOUS
10
5.9070978346456693
20
-1.5863409448818897
11
5.9142282283464569
21
-1.5892944488188976
0
LINE
8
BLACK
6
CONTINUOUS
10
5.9142282283464569
20
-1.5892944488188976
11
5.920645393700787
21
-1.593582283464567
0
LINE
8
BLACK
6
CONTINUOUS
10
5.920645393700787
20
-1.593582283464567
11
5.9261027559055117
21
-1.5990396456692912
0
LINE
8
BLACK
6
CONTINUOUS
10
5.9261027559055117
20
-1.5990396456692912
11
5.9303905905511813
21
-1.605456811023622
0
LINE
8
BLACK
6
CONTINUOUS
10
5.9303905905511813
20
-1.605456811023622
11
5.9333440944881888
21
-1.6125872047244094
0
LINE
8
BLACK
6
CONTINUOUS
10
5.9333440944881888
20
-1.6125872047244094
11
5.9348498031496062
21
-1.620156811023622
0
LINE
8
BLACK
6
CONTINUOUS
10
5.9348498031496062
20
-1.620156811023622
11
5.9348498031496062
21
-1.6278746850393699
0
LINE
8
BLACK
6
CONTINUOUS
10
5.9348498031496062
20
-1.6278746850393699
11
5.9333440944881888
21
-1.6354442913385827
0
LINE
8
BLACK
6
CONTINUOUS
10
5.9333440944881888
20
-1.6354442913385827
11
5.9303905905511813
21
-1.6425746850393701
0
LINE
8
BLACK
6
CONTINUOUS
10
5.9303905905511813
20
-1.6425746850393701
11
5.9261027559055117
21
-1.6489918503937007
0
LINE
8
BLACK
6
CONTINUOUS
10
5.9261027559055117
20
-1.6489918503937007
11
5.920645393700787
21
-1.6544492125984251
0
LINE
8
BLACK
6
CONTINUOUS
10
5.920645393700787
20
-1.6544492125984251
11
5.9142282283464569
21
-1.6587370472440945
0
LINE
8
BLACK
6
CONTINUOUS
10
5.9142282283464569
20
-1.6587370472440945
11
5.9070978346456693
21
-1.6616905511811024
0
LINE
8
BLACK
6
CONTINUOUS
10
5.9070978346456693
20
-1.6616905511811024
11
5.8995282283464565
21
-1.6631962598425196
0
LINE
8
BLACK
6
CONTINUOUS
10
5.8995282283464565
20
-1.6631962598425196
11
5.8918103543307083
21
-1.6631962598425196
0
LINE
8
BLACK
6
CONTINUOUS
10
5.8918103543307083
20
-1.6631962598425196
11
5.8842407480314955
21
-1.6616905511811024
0
LINE
8
BLACK
6
CONTINUOUS
10
5.8842407480314955
20
-1.6616905511811024
11
5.8771103543307088
21
-1.6587370472440945
0
LINE
8
BLACK
6
CONTINUOUS
10
5.8771103543307088
20
-1.6587370472440945
11
5.8706931889763778
21
-1.6544492125984251
0
LINE
8
BLACK
6
CONTINUOUS
10
5.8706931889763778
20
-1.6544492125984251
11
5.8652358267716531
21
-1.6489918503937007
0
LINE
8
BLACK
6
CONTINUOUS
10
5.8652358267716531
20
-1.6489918503937007
11
5.8609479921259844
21
-1.6425746850393701
0
LINE
8
BLACK
6
CONTINUOUS
10
5.8609479921259844
20
-1.6425746850393701
11
5.8579944881889761
21
-1.6354442913385827
0
LINE
8
BLACK
6
CONTINUOUS
10
5.8579944881889761
20
-1.6354442913385827
11
5.8564887795275586
21
-1.6278746850393699
0
LINE
8
BLACK
6
CONTINUOUS
10
5.8564887795275586
20
-1.6278746850393699
11
5.8564887795275586
21
-1.620156811023622
0
LINE
8
BLACK
6
CONTINUOUS
10
5.8564887795275586
20
-1.620156811023622
11
5.8579944881889761
21
-1.6125872047244094
0
LINE
8
BLACK
6
CONTINUOUS
10
5.8579944881889761
20
-1.6125872047244094
11
5.8609479921259844
21
-1.605456811023622
0
LINE
8
BLACK
6
CONTINUOUS
10
5.8609479921259844
20
-1.605456811023622
11
5.8652358267716531
21
-1.5990396456692912
0
LINE
8
BLACK
6
CONTINUOUS
10
5.8652358267716531
20
-1.5990396456692912
11
5.8706931889763778
21
-1.593582283464567
0
LINE
8
BLACK
6
CONTINUOUS
10
5.8706931889763778
20
-1.593582283464567
11
5.8771103543307088
21
-1.5892944488188976
0
LINE
8
BLACK
6
CONTINUOUS
10
5.8771103543307088
20
-1.5892944488188976
11
5.8842407480314955
21
-1.5863409448818897
0
LINE
8
BLACK
6
CONTINUOUS
10
5.8842407480314955
20
-1.5863409448818897
11
5.8918103543307083
21
-1.5848352362204725
0
LINE
8
BLACK
6
CONTINUOUS
10
5.8918103543307083
20
-1.5848352362204725
11
5.8995282283464565
21
-1.5848352362204725
0
LINE
8
BLACK
6
CONTINUOUS
10
5.8995282283464565
20
-1.5848352362204725
11
5.9070978346456693
21
-1.5863409448818897
0
LINE
8
BLACK
6
CONTINUOUS
10
1.8606793700787401
20
-1.5861714173228345
11
1.8670967322834646
21
-1.5888295669291339
0
LINE
8
BLACK
6
CONTINUOUS
10
1.8670967322834646
20
-1.5888295669291339
11
1.8728722047244093
21
-1.592688622047244
0
LINE
8
BLACK
6
CONTINUOUS
10
1.8728722047244093
20
-1.592688622047244
11
1.8777838188976377
21
-1.5976002362204724
0
LINE
8
BLACK
6
CONTINUOUS
10
1.8777838188976377
20
-1.5976002362204724
11
1.881642874015748
21
-1.6033757086614173
0
LINE
8
BLACK
6
CONTINUOUS
10
1.881642874015748
20
-1.6033757086614173
11
1.8843010236220472
21
-1.6097930708661417
0
LINE
8
BLACK
6
CONTINUOUS
10
1.8843010236220472
20
-1.6097930708661417
11
1.8856561417322835
21
-1.6166057086614174
0
LINE
8
BLACK
6
CONTINUOUS
10
1.8856561417322835
20
-1.6166057086614174
11
1.8856561417322835
21
-1.6235517716535433
0
LINE
8
BLACK
6
CONTINUOUS
10
1.8856561417322835
20
-1.6235517716535433
11
1.8843010236220472
21
-1.6303644094488188
0
LINE
8
BLACK
6
CONTINUOUS
10
1.8843010236220472
20
-1.6303644094488188
11
1.881642874015748
21
-1.6367817716535433
0
LINE
8
BLACK
6
CONTINUOUS
10
1.881642874015748
20
-1.6367817716535433
11
1.8777838188976377
21
-1.6425572440944882
0
LINE
8
BLACK
6
CONTINUOUS
10
1.8777838188976377
20
-1.6425572440944882
11
1.8728722047244093
21
-1.6474688582677166
0
LINE
8
BLACK
6
CONTINUOUS
10
1.8728722047244093
20
-1.6474688582677166
11
1.8670967322834646
21
-1.6513279133858267
0
LINE
8
BLACK
6
CONTINUOUS
10
1.8670967322834646
20
-1.6513279133858267
11
1.8606793700787401
21
-1.6539860629921259
0
LINE
8
BLACK
6
CONTINUOUS
10
1.8606793700787401
20
-1.6539860629921259
11
1.8538667322834645
21
-1.6553411811023622
0
LINE
8
BLACK
6
CONTINUOUS
10
1.8538667322834645
20
-1.6553411811023622
11
1.8469206692913385
21
-1.6553411811023622
0
LINE
8
BLACK
6
CONTINUOUS
10
1.8469206692913385
20
-1.6553411811023622
11
1.8401080314960629
21
-1.6539860629921259
0
LINE
8
BLACK
6
CONTINUOUS
10
1.8401080314960629
20
-1.6539860629921259
11
1.8336906692913386
21
-1.6513279133858267
0
LINE
8
BLACK
6
CONTINUOUS
10
1.8336906692913386
20
-1.6513279133858267
11
1.8279151968503937
21
-1.6474688582677166
0
LINE
8
BLACK
6
CONTINUOUS
10
1.8279151968503937
20
-1.6474688582677166
11
1.8230035826771653
21
-1.6425572440944882
0
LINE
8
BLACK
6
CONTINUOUS
10
1.8230035826771653
20
-1.6425572440944882
11
1.819144527559055
21
-1.6367817716535433
0
LINE
8
BLACK
6
CONTINUOUS
10
1.819144527559055
20
-1.6367817716535433
11
1.8164863779527558
21
-1.6303644094488188
0
LINE
8
BLACK
6
CONTINUOUS
10
1.8164863779527558
20
-1.6303644094488188
11
1.8151312598425196
21
-1.6235517716535433
0
LINE
8
BLACK
6
CONTINUOUS
10
1.8151312598425196
20
-1.6235517716535433
11
1.8151312598425196
21
-1.6166057086614174
0
LINE
8
BLACK
6
CONTINUOUS
10
1.8151312598425196
20
-1.6166057086614174
11
1.8164863779527558
21
-1.6097930708661417
0
LINE
8
BLACK
6
CONTINUOUS
10
1.8164863779527558
20
-1.6097930708661417
11
1.819144527559055
21
-1.6033757086614173
0
LINE
8
BLACK
6
CONTINUOUS
10
1.819144527559055
20
-1.6033757086614173
11
1.8230035826771653
21
-1.5976002362204724
0
LINE
8
BLACK
6
CONTINUOUS
10
1.8230035826771653
20
-1.5976002362204724
11
1.8279151968503937
21
-1.592688622047244
0
LINE
8
BLACK
6
CONTINUOUS
10
1.8279151968503937
20
-1.592688622047244
11
1.8336906692913386
21
-1.5888295669291339
0
LINE
8
BLACK
6
CONTINUOUS
10
1.8336906692913386
20
-1.5888295669291339
11
1.8401080314960629
21
-1.5861714173228345
0
LINE
8
BLACK
6
CONTINUOUS
10
1.8401080314960629
20
-1.5861714173228345
11
1.8469206692913385
21
-1.5848162992125985
0
LINE
8
BLACK
6
CONTINUOUS
10
1.8469206692913385
20
-1.5848162992125985
11
1.8538667322834645
21
-1.5848162992125985
0
LINE
8
BLACK
6
CONTINUOUS
10
1.8538667322834645
20
-1.5848162992125985
11
1.8606793700787401
21
-1.5861714173228345
0
CIRCLE
8
BLACK
10
3.0511811023622046
20
-1.5354330708661417
40
0.0059055118110236
0
CIRCLE
8
BLACK
10
3.0511811023622046
20
-1.6535433070866141
40
0.0059055118110236
0
CIRCLE
8
BLACK
10
2.6968503937007875
20
-1.8307086614173227
40
0.0059055118110236
0
CIRCLE
8
BLACK
10
2.6968503937007875
20
-1.7519685039370079
40
0.0059055118110236
0
CIRCLE
8
BLACK
10
2.1456692913385824
20
-1.8700787401574803
40
0.0059055118110236
0
CIRCLE
8
BLACK
10
3.0511811023622046
20
-1.8562992125984252
40
0.0059055118110236
0
CIRCLE
8
BLACK
10
3.0511811023622046
20
-1.7263779527559056
40
0.0059055118110236
  0
ENDSEC
  0
EOF
