%TF.GenerationSoftware,KiCad,Pcbnew,9.0.2*%
%TF.CreationDate,2026-06-17T19:08:43-06:00*%
%TF.ProjectId,speed-reader,73706565-642d-4726-9561-6465722e6b69,rev?*%
%TF.SameCoordinates,Original*%
%TF.FileFunction,Legend,Bot*%
%TF.FilePolarity,Positive*%
%FSLAX46Y46*%
G04 Gerber Fmt 4.6, Leading zero omitted, Abs format (unit mm)*
G04 Created by KiCad (PCBNEW 9.0.2) date 2026-06-17 19:08:43*
%MOMM*%
%LPD*%
G01*
G04 APERTURE LIST*
G04 Aperture macros list*
%AMRoundRect*
0 Rectangle with rounded corners*
0 $1 Rounding radius*
0 $2 $3 $4 $5 $6 $7 $8 $9 X,Y pos of 4 corners*
0 Add a 4 corners polygon primitive as box body*
4,1,4,$2,$3,$4,$5,$6,$7,$8,$9,$2,$3,0*
0 Add four circle primitives for the rounded corners*
1,1,$1+$1,$2,$3*
1,1,$1+$1,$4,$5*
1,1,$1+$1,$6,$7*
1,1,$1+$1,$8,$9*
0 Add four rect primitives between the rounded corners*
20,1,$1+$1,$2,$3,$4,$5,0*
20,1,$1+$1,$4,$5,$6,$7,0*
20,1,$1+$1,$6,$7,$8,$9,0*
20,1,$1+$1,$8,$9,$2,$3,0*%
G04 Aperture macros list end*
%ADD10C,0.106680*%
%ADD11C,0.150000*%
%ADD12C,0.100000*%
%ADD13C,0.127000*%
%ADD14C,0.504000*%
%ADD15C,0.120000*%
%TA.AperFunction,ComponentPad*%
%ADD16C,1.800000*%
%TD*%
%TA.AperFunction,ComponentPad*%
%ADD17R,1.800000X1.800000*%
%TD*%
%TA.AperFunction,ComponentPad*%
%ADD18C,1.600000*%
%TD*%
%TA.AperFunction,ComponentPad*%
%ADD19RoundRect,0.250000X0.550000X-0.550000X0.550000X0.550000X-0.550000X0.550000X-0.550000X-0.550000X0*%
%TD*%
%TA.AperFunction,ComponentPad*%
%ADD20C,2.000000*%
%TD*%
%TA.AperFunction,ComponentPad*%
%ADD21RoundRect,0.250000X0.625000X-0.350000X0.625000X0.350000X-0.625000X0.350000X-0.625000X-0.350000X0*%
%TD*%
%TA.AperFunction,ComponentPad*%
%ADD22O,1.750000X1.200000*%
%TD*%
%TA.AperFunction,ViaPad*%
%ADD23C,0.600000*%
%TD*%
%TA.AperFunction,Conductor*%
%ADD24C,0.200000*%
%TD*%
%TA.AperFunction,Profile*%
%ADD25C,0.200000*%
%TD*%
%TA.AperFunction,Profile*%
%ADD26C,0.100000*%
%TD*%
G04 APERTURE END LIST*
D10*
X68206056Y-34780391D02*
X67684509Y-35562711D01*
X67684509Y-34780391D02*
X68206056Y-35562711D01*
X67386482Y-35562711D02*
X67386482Y-34780391D01*
X67051202Y-35339191D02*
X66678669Y-35339191D01*
X67125709Y-35562711D02*
X66864936Y-34780391D01*
X66864936Y-34780391D02*
X66604162Y-35562711D01*
X66194376Y-34780391D02*
X66045362Y-34780391D01*
X66045362Y-34780391D02*
X65970856Y-34817644D01*
X65970856Y-34817644D02*
X65896349Y-34892151D01*
X65896349Y-34892151D02*
X65859096Y-35041164D01*
X65859096Y-35041164D02*
X65859096Y-35301938D01*
X65859096Y-35301938D02*
X65896349Y-35450951D01*
X65896349Y-35450951D02*
X65970856Y-35525458D01*
X65970856Y-35525458D02*
X66045362Y-35562711D01*
X66045362Y-35562711D02*
X66194376Y-35562711D01*
X66194376Y-35562711D02*
X66268882Y-35525458D01*
X66268882Y-35525458D02*
X66343389Y-35450951D01*
X66343389Y-35450951D02*
X66380642Y-35301938D01*
X66380642Y-35301938D02*
X66380642Y-35041164D01*
X66380642Y-35041164D02*
X66343389Y-34892151D01*
X66343389Y-34892151D02*
X66268882Y-34817644D01*
X66268882Y-34817644D02*
X66194376Y-34780391D01*
X65114029Y-35562711D02*
X65561069Y-35562711D01*
X65337549Y-35562711D02*
X65337549Y-34780391D01*
X65337549Y-34780391D02*
X65412056Y-34892151D01*
X65412056Y-34892151D02*
X65486563Y-34966658D01*
X65486563Y-34966658D02*
X65561069Y-35003911D01*
D11*
X122481009Y-48785714D02*
X122528628Y-48928571D01*
X122528628Y-48928571D02*
X122576247Y-48976190D01*
X122576247Y-48976190D02*
X122671485Y-49023809D01*
X122671485Y-49023809D02*
X122814342Y-49023809D01*
X122814342Y-49023809D02*
X122909580Y-48976190D01*
X122909580Y-48976190D02*
X122957200Y-48928571D01*
X122957200Y-48928571D02*
X123004819Y-48833333D01*
X123004819Y-48833333D02*
X123004819Y-48452381D01*
X123004819Y-48452381D02*
X122004819Y-48452381D01*
X122004819Y-48452381D02*
X122004819Y-48785714D01*
X122004819Y-48785714D02*
X122052438Y-48880952D01*
X122052438Y-48880952D02*
X122100057Y-48928571D01*
X122100057Y-48928571D02*
X122195295Y-48976190D01*
X122195295Y-48976190D02*
X122290533Y-48976190D01*
X122290533Y-48976190D02*
X122385771Y-48928571D01*
X122385771Y-48928571D02*
X122433390Y-48880952D01*
X122433390Y-48880952D02*
X122481009Y-48785714D01*
X122481009Y-48785714D02*
X122481009Y-48452381D01*
X122719104Y-49404762D02*
X122719104Y-49880952D01*
X123004819Y-49309524D02*
X122004819Y-49642857D01*
X122004819Y-49642857D02*
X123004819Y-49976190D01*
X122004819Y-50166667D02*
X122004819Y-50738095D01*
X123004819Y-50452381D02*
X122004819Y-50452381D01*
X123004819Y-51595238D02*
X123004819Y-51023810D01*
X123004819Y-51309524D02*
X122004819Y-51309524D01*
X122004819Y-51309524D02*
X122147676Y-51214286D01*
X122147676Y-51214286D02*
X122242914Y-51119048D01*
X122242914Y-51119048D02*
X122290533Y-51023810D01*
D12*
%TO.C,XIAO1*%
X75500000Y-55013000D02*
X75500000Y-37868000D01*
X73595000Y-56918000D02*
X59625000Y-56918000D01*
D13*
X71105000Y-35963000D02*
X71101272Y-34952728D01*
X70601272Y-34453000D02*
X62606000Y-34453000D01*
X62106000Y-34953000D02*
X62106000Y-35963000D01*
D12*
X59625000Y-35963000D02*
X73595000Y-35963000D01*
X57720000Y-55013000D02*
X57720000Y-37868000D01*
X73595000Y-35959000D02*
G75*
G02*
X75500000Y-37864000I-1J-1905001D01*
G01*
X75500000Y-55013000D02*
G75*
G02*
X73595000Y-56918000I-1905000J0D01*
G01*
D13*
X70601272Y-34453000D02*
G75*
G02*
X71101270Y-34952728I-22J-500020D01*
G01*
X62106000Y-34953000D02*
G75*
G02*
X62606000Y-34453000I500000J0D01*
G01*
D12*
X57720000Y-37868000D02*
G75*
G02*
X59625000Y-35963000I1905000J0D01*
G01*
X59625000Y-56918000D02*
G75*
G02*
X57720000Y-55013000I0J1905000D01*
G01*
D14*
X75962000Y-36379000D02*
G75*
G02*
X75458000Y-36379000I-252000J0D01*
G01*
X75458000Y-36379000D02*
G75*
G02*
X75962000Y-36379000I252000J0D01*
G01*
X74819000Y-37259000D02*
G75*
G02*
X74315000Y-37259000I-252000J0D01*
G01*
X74315000Y-37259000D02*
G75*
G02*
X74819000Y-37259000I252000J0D01*
G01*
D15*
%TO.C,BAT1*%
X121460000Y-53060000D02*
X113640000Y-53060000D01*
X119860000Y-53060000D02*
X119860000Y-52140000D01*
X113640000Y-53060000D02*
X113640000Y-46940000D01*
X117500000Y-52300000D02*
X115900000Y-52300000D01*
X115900000Y-52300000D02*
X115900000Y-51300000D01*
X121460000Y-52140000D02*
X121460000Y-53060000D01*
X119860000Y-52140000D02*
X121460000Y-52140000D01*
X119860000Y-51860000D02*
X119860000Y-52140000D01*
X119860000Y-51860000D02*
X121075000Y-51860000D01*
X115900000Y-51800000D02*
X113640000Y-51800000D01*
X117500000Y-51300000D02*
X117500000Y-52300000D01*
X115900000Y-51300000D02*
X117500000Y-51300000D01*
X115900000Y-51300000D02*
X113640000Y-51300000D01*
X118000000Y-50500000D02*
X118000000Y-49500000D01*
X113640000Y-50500000D02*
X118000000Y-50500000D01*
X118000000Y-49500000D02*
X113640000Y-49500000D01*
X117500000Y-48700000D02*
X117500000Y-47700000D01*
X115900000Y-48700000D02*
X117500000Y-48700000D01*
X121460000Y-47860000D02*
X119860000Y-47860000D01*
X119860000Y-47860000D02*
X119860000Y-48140000D01*
X117500000Y-47700000D02*
X115900000Y-47700000D01*
X115900000Y-47700000D02*
X115900000Y-48700000D01*
X121460000Y-46940000D02*
X121460000Y-47860000D01*
X119860000Y-46940000D02*
X119860000Y-47860000D01*
X113640000Y-46940000D02*
X121460000Y-46940000D01*
%TD*%
D16*
%TO.P,DISPLAY1,VCC*%
%TO.N,VCC*%
X47000000Y-56390000D03*
%TO.P,DISPLAY1,SDA,SDA*%
%TO.N,/SDA*%
X47000000Y-51310000D03*
%TO.P,DISPLAY1,SCL,SCL*%
%TO.N,/SCL*%
X47000000Y-53850000D03*
%TO.P,DISPLAY1,RST,RST*%
%TO.N,/RST*%
X47000000Y-48770000D03*
D17*
%TO.P,DISPLAY1,GND,GND*%
%TO.N,GND*%
X47000000Y-58930000D03*
D16*
%TO.P,DISPLAY1,DC,DC*%
%TO.N,/DC*%
X47000000Y-46230000D03*
%TO.P,DISPLAY1,CS,CS*%
%TO.N,/CS*%
X47000000Y-43690000D03*
%TO.P,DISPLAY1,BL,BL*%
%TO.N,/BL*%
X47000000Y-41150000D03*
%TD*%
D18*
%TO.P,D3,2,A*%
%TO.N,Net-(D3-A)*%
X125000000Y-52380000D03*
D19*
%TO.P,D3,1,K*%
%TO.N,/ROW1*%
X125000000Y-60000000D03*
%TD*%
D18*
%TO.P,D1,2,A*%
%TO.N,Net-(D1-A)*%
X125000000Y-39880000D03*
D19*
%TO.P,D1,1,K*%
%TO.N,/ROW0*%
X125000000Y-47500000D03*
%TD*%
%TO.P,D4,1,K*%
%TO.N,/ROW1*%
X139500000Y-60000000D03*
D18*
%TO.P,D4,2,A*%
%TO.N,Net-(D4-A)*%
X139500000Y-52380000D03*
%TD*%
D19*
%TO.P,D2,1,K*%
%TO.N,/ROW0*%
X139500000Y-47500000D03*
D18*
%TO.P,D2,2,A*%
%TO.N,Net-(D2-A)*%
X139500000Y-39880000D03*
%TD*%
D20*
%TO.P,SW2,1,1*%
%TO.N,/COL1*%
X143250000Y-41250000D03*
X149750000Y-41250000D03*
%TO.P,SW2,2,2*%
%TO.N,Net-(D2-A)*%
X143250000Y-45750000D03*
X149750000Y-45750000D03*
%TD*%
%TO.P,SW1,1,1*%
%TO.N,/COL0*%
X128750000Y-41250000D03*
X135250000Y-41250000D03*
%TO.P,SW1,2,2*%
%TO.N,Net-(D1-A)*%
X128750000Y-45750000D03*
X135250000Y-45750000D03*
%TD*%
%TO.P,SW3,1,1*%
%TO.N,/COL0*%
X128750000Y-53750000D03*
X135250000Y-53750000D03*
%TO.P,SW3,2,2*%
%TO.N,Net-(D3-A)*%
X128750000Y-58250000D03*
X135250000Y-58250000D03*
%TD*%
%TO.P,SW4,1,1*%
%TO.N,/COL1*%
X143250000Y-53750000D03*
X149750000Y-53750000D03*
%TO.P,SW4,2,2*%
%TO.N,Net-(D4-A)*%
X143250000Y-58250000D03*
X149750000Y-58250000D03*
%TD*%
D21*
%TO.P,BAT1,1,Pin_1*%
%TO.N,Net-(BAT1-Pin_1)*%
X120000000Y-51000000D03*
D22*
%TO.P,BAT1,2,Pin_2*%
%TO.N,Net-(BAT1-Pin_2)*%
X120000000Y-49000000D03*
%TD*%
D23*
%TO.N,/ROW0*%
X77500000Y-39000000D03*
%TO.N,/ROW1*%
X77500000Y-42000000D03*
%TO.N,Net-(BAT1-Pin_2)*%
X68500000Y-46500000D03*
%TO.N,Net-(BAT1-Pin_1)*%
X68500000Y-44500000D03*
%TO.N,VCC*%
X54500000Y-47500000D03*
%TO.N,/COL1*%
X77500000Y-47150000D03*
%TO.N,/COL0*%
X77500000Y-43850000D03*
%TD*%
D24*
%TO.N,/ROW1*%
X119863840Y-44250000D02*
X128062840Y-52449000D01*
X81502000Y-42000000D02*
X83752000Y-44250000D01*
X77500000Y-42000000D02*
X81502000Y-42000000D01*
X83752000Y-44250000D02*
X119863840Y-44250000D01*
X128062840Y-52449000D02*
X131949000Y-52449000D01*
X131949000Y-52449000D02*
X139500000Y-60000000D01*
%TO.N,/ROW0*%
X116500000Y-39000000D02*
X125000000Y-47500000D01*
X77500000Y-39000000D02*
X116500000Y-39000000D01*
%TO.N,/COL0*%
X119882843Y-44882843D02*
X128750000Y-53750000D01*
X108365686Y-54900000D02*
X118382843Y-44882843D01*
X90334314Y-54900000D02*
X108365686Y-54900000D01*
X79434314Y-44000000D02*
X90334314Y-54900000D01*
X77650000Y-44000000D02*
X79434314Y-44000000D01*
X118382843Y-44882843D02*
X119882843Y-44882843D01*
X77500000Y-43850000D02*
X77650000Y-44000000D01*
%TO.N,Net-(BAT1-Pin_1)*%
X121176000Y-49824000D02*
X120000000Y-51000000D01*
X118473132Y-45923926D02*
X121176000Y-48626794D01*
X90168629Y-55300000D02*
X109097058Y-55300000D01*
X79368628Y-44500000D02*
X90168629Y-55300000D01*
X109097058Y-55300000D02*
X118473132Y-45923926D01*
X68500000Y-44500000D02*
X79368628Y-44500000D01*
X121176000Y-48626794D02*
X121176000Y-49824000D01*
%TO.N,Net-(D4-A)*%
X139500000Y-54500000D02*
X143250000Y-58250000D01*
X139500000Y-52380000D02*
X139500000Y-54500000D01*
%TO.N,Net-(D3-A)*%
X125000000Y-54500000D02*
X128750000Y-58250000D01*
X125000000Y-52380000D02*
X125000000Y-54500000D01*
%TO.N,Net-(D2-A)*%
X139500000Y-42000000D02*
X143250000Y-45750000D01*
X139500000Y-39880000D02*
X139500000Y-42000000D01*
%TO.N,Net-(D1-A)*%
X125000000Y-42000000D02*
X128750000Y-45750000D01*
X125000000Y-39880000D02*
X125000000Y-42000000D01*
%TO.N,/ROW0*%
X125000000Y-47500000D02*
X139500000Y-47500000D01*
%TO.N,/ROW1*%
X125000000Y-60000000D02*
X139500000Y-60000000D01*
%TO.N,VCC*%
X54500000Y-48890000D02*
X54500000Y-47500000D01*
X47000000Y-56390000D02*
X54500000Y-48890000D01*
%TO.N,/COL1*%
X144551000Y-58788892D02*
X141839892Y-61500000D01*
%TO.N,Net-(BAT1-Pin_2)*%
X68500000Y-46500000D02*
X80802942Y-46500000D01*
X80802942Y-46500000D02*
X90002944Y-55700000D01*
X90002944Y-55700000D02*
X113025000Y-55700000D01*
X113025000Y-55700000D02*
X119725000Y-49000000D01*
X119725000Y-49000000D02*
X120000000Y-49000000D01*
%TO.N,/COL1*%
X143250000Y-53750000D02*
X144551000Y-55051000D01*
X144551000Y-55051000D02*
X144551000Y-58788892D01*
X141839892Y-61500000D02*
X95500000Y-61500000D01*
X95500000Y-61500000D02*
X90100000Y-56100000D01*
X90100000Y-56100000D02*
X89837258Y-56100000D01*
X89837258Y-56100000D02*
X80887256Y-47150000D01*
X80887256Y-47150000D02*
X77500000Y-47150000D01*
%TD*%
D25*
X45500000Y-64000000D02*
G75*
G02*
X42500000Y-61000000I0J3000000D01*
G01*
X42500000Y-39000000D02*
G75*
G02*
X45500000Y-36000000I3000000J0D01*
G01*
X157500000Y-61000000D02*
G75*
G02*
X154500000Y-64000000I-3000000J0D01*
G01*
X154500000Y-36000000D02*
G75*
G02*
X157500000Y-39000000I0J-3000000D01*
G01*
X42500000Y-61000000D02*
X42500000Y-39000000D01*
X154500000Y-64000000D02*
X45500000Y-64000000D01*
X45500000Y-36000000D02*
X154500000Y-36000000D01*
X157500000Y-39000000D02*
X157500000Y-61000000D01*
D26*
%TO.C,DISPLAY1*%
X117415000Y-41870000D02*
G75*
G02*
X114915000Y-41870000I-1250000J0D01*
G01*
X114915000Y-41870000D02*
G75*
G02*
X117415000Y-41870000I1250000J0D01*
G01*
X117415000Y-58130000D02*
G75*
G02*
X114915000Y-58130000I-1250000J0D01*
G01*
X114915000Y-58130000D02*
G75*
G02*
X117415000Y-58130000I1250000J0D01*
G01*
%TD*%
M02*
